<?xml version="1.0" encoding="utf-8" standalone="no"?>
<!DOCTYPE svg PUBLIC "-//W3C//DTD SVG 1.1//EN"
  "http://www.w3.org/Graphics/SVG/1.1/DTD/svg11.dtd">
<svg xmlns:xlink="http://www.w3.org/1999/xlink" width="432pt" height="432pt" viewBox="0 0 432 432" xmlns="http://www.w3.org/2000/svg" version="1.1">
 <metadata>
  <rdf:RDF xmlns:dc="http://purl.org/dc/elements/1.1/" xmlns:cc="http://creativecommons.org/ns#" xmlns:rdf="http://www.w3.org/1999/02/22-rdf-syntax-ns#">
   <cc:Work>
    <dc:type rdf:resource="http://purl.org/dc/dcmitype/StillImage"/>
    <dc:date>2023-07-31T06:20:32.607783</dc:date>
    <dc:format>image/svg+xml</dc:format>
    <dc:creator>
     <cc:Agent>
      <dc:title>Matplotlib v3.7.2, https://matplotlib.org/</dc:title>
     </cc:Agent>
    </dc:creator>
   </cc:Work>
  </rdf:RDF>
 </metadata>
 <defs>
  <style type="text/css">*{stroke-linejoin: round; stroke-linecap: butt}</style>
 </defs>
 <g id="figure_1">
  <g id="patch_1">
   <path d="M 0 432 
L 432 432 
L 432 0 
L 0 0 
z
" style="fill: #ffffff"/>
  </g>
  <g id="axes_1">
   <g id="patch_2">
    <path d="M 129.6 384.48 
L 388.8 384.48 
L 388.8 51.84 
L 129.6 51.84 
z
" style="fill: #ffffff"/>
   </g>
   <g id="PathCollection_1">
    <path d="M 377.018182 74.031068 
C 378.893451 74.031068 380.692166 73.286015 382.018182 71.96 
C 383.344197 70.633984 384.08925 68.835269 384.08925 66.96 
C 384.08925 65.084731 383.344197 63.286015 382.018182 61.96 
C 380.692166 60.633984 378.893451 59.888932 377.018182 59.888932 
C 375.142913 59.888932 373.344197 60.633984 372.018182 61.96 
C 370.692166 63.286015 369.947114 65.084731 369.947114 66.96 
C 369.947114 68.835269 370.692166 70.633984 372.018182 71.96 
C 373.344197 73.286015 375.142913 74.031068 377.018182 74.031068 
z
" clip-path="url(#p7965454a31)" style="fill: #215584; stroke: #ffffff; stroke-width: 0.600214"/>
    <path d="M 366.740228 97.175985 
C 368.584568 97.175985 370.353618 96.443221 371.657764 95.139075 
C 372.96191 93.834929 373.694674 92.065879 373.694674 90.221538 
C 373.694674 88.377198 372.96191 86.608148 371.657764 85.304002 
C 370.353618 83.999856 368.584568 83.267092 366.740228 83.267092 
C 364.895887 83.267092 363.126837 83.999856 361.822691 85.304002 
C 360.518545 86.608148 359.785781 88.377198 359.785781 90.221538 
C 359.785781 92.065879 360.518545 93.834929 361.822691 95.139075 
C 363.126837 96.443221 364.895887 97.175985 366.740228 97.175985 
z
" clip-path="url(#p7965454a31)" style="fill: #215584; stroke: #ffffff; stroke-width: 0.600214"/>
    <path d="M 296.409069 119.579927 
C 298.025973 119.579927 299.57687 118.937525 300.720193 117.794201 
C 301.863517 116.650878 302.505919 115.09998 302.505919 113.483077 
C 302.505919 111.866173 301.863517 110.315276 300.720193 109.171953 
C 299.57687 108.028629 298.025973 107.386227 296.409069 107.386227 
C 294.792166 107.386227 293.241269 108.028629 292.097945 109.171953 
C 290.954622 110.315276 290.312219 111.866173 290.312219 113.483077 
C 290.312219 115.09998 290.954622 116.650878 292.097945 117.794201 
C 293.241269 118.937525 294.792166 119.579927 296.409069 119.579927 
z
" clip-path="url(#p7965454a31)" style="fill: #215584; stroke: #ffffff; stroke-width: 0.600214"/>
    <path d="M 280.904077 142.635631 
C 282.466393 142.635631 283.96493 142.014916 285.069654 140.910192 
C 286.174378 139.805468 286.795093 138.306931 286.795093 136.744615 
C 286.795093 135.1823 286.174378 133.683762 285.069654 132.579038 
C 283.96493 131.474314 282.466393 130.8536 280.904077 130.8536 
C 279.341762 130.8536 277.843224 131.474314 276.7385 132.579038 
C 275.633776 133.683762 275.013062 135.1823 275.013062 136.744615 
C 275.013062 138.306931 275.633776 139.805468 276.7385 140.910192 
C 277.843224 142.014916 279.341762 142.635631 280.904077 142.635631 
z
" clip-path="url(#p7965454a31)" style="fill: #215584; stroke: #ffffff; stroke-width: 0.600214"/>
    <path d="M 277.207294 165.847022 
C 278.756311 165.847022 280.242092 165.231592 281.337412 164.136272 
C 282.432732 163.040952 283.048163 161.55517 283.048163 160.006154 
C 283.048163 158.457137 282.432732 156.971356 281.337412 155.876036 
C 280.242092 154.780716 278.756311 154.165285 277.207294 154.165285 
C 275.658278 154.165285 274.172497 154.780716 273.077177 155.876036 
C 271.981857 156.971356 271.366426 158.457137 271.366426 160.006154 
C 271.366426 161.55517 271.981857 163.040952 273.077177 164.136272 
C 274.172497 165.231592 275.658278 165.847022 277.207294 165.847022 
z
" clip-path="url(#p7965454a31)" style="fill: #24768b; stroke: #ffffff; stroke-width: 0.600214"/>
    <path d="M 247.487623 188.688583 
C 248.92526 188.688583 250.304209 188.117403 251.320771 187.100841 
C 252.337334 186.084278 252.908513 184.705329 252.908513 183.267692 
C 252.908513 181.830055 252.337334 180.451107 251.320771 179.434544 
C 250.304209 178.417981 248.92526 177.846802 247.487623 177.846802 
C 246.049986 177.846802 244.671038 178.417981 243.654475 179.434544 
C 242.637912 180.451107 242.066733 181.830055 242.066733 183.267692 
C 242.066733 184.705329 242.637912 186.084278 243.654475 187.100841 
C 244.671038 188.117403 246.049986 188.688583 247.487623 188.688583 
z
" clip-path="url(#p7965454a31)" style="fill: #24768b; stroke: #ffffff; stroke-width: 0.600214"/>
    <path d="M 202.071364 211.236496 
C 203.319746 211.236496 204.517165 210.740509 205.399904 209.85777 
C 206.282643 208.975031 206.77863 207.777612 206.77863 206.529231 
C 206.77863 205.280849 206.282643 204.08343 205.399904 203.200691 
C 204.517165 202.317953 203.319746 201.821965 202.071364 201.821965 
C 200.822983 201.821965 199.625564 202.317953 198.742825 203.200691 
C 197.860086 204.08343 197.364099 205.280849 197.364099 206.529231 
C 197.364099 207.777612 197.860086 208.975031 198.742825 209.85777 
C 199.625564 210.740509 200.822983 211.236496 202.071364 211.236496 
z
" clip-path="url(#p7965454a31)" style="fill: #24768b; stroke: #ffffff; stroke-width: 0.600214"/>
    <path d="M 181.140648 234.12982 
C 182.291378 234.12982 183.395131 233.67263 184.20882 232.858941 
C 185.022509 232.045253 185.479698 230.941499 185.479698 229.790769 
C 185.479698 228.64004 185.022509 227.536286 184.20882 226.722597 
C 183.395131 225.908908 182.291378 225.451719 181.140648 225.451719 
C 179.989918 225.451719 178.886164 225.908908 178.072476 226.722597 
C 177.258787 227.536286 176.801597 228.64004 176.801597 229.790769 
C 176.801597 230.941499 177.258787 232.045253 178.072476 232.858941 
C 178.886164 233.67263 179.989918 234.12982 181.140648 234.12982 
z
" clip-path="url(#p7965454a31)" style="fill: #44948f; stroke: #ffffff; stroke-width: 0.600214"/>
    <path d="M 180.394721 234.116119 
C 181.541817 234.116119 182.642085 233.660373 183.453205 232.849253 
C 184.264324 232.038134 184.72007 230.937865 184.72007 229.790769 
C 184.72007 228.643673 184.264324 227.543405 183.453205 226.732285 
C 182.642085 225.921166 181.541817 225.465419 180.394721 225.465419 
C 179.247624 225.465419 178.147356 225.921166 177.336236 226.732285 
C 176.525117 227.543405 176.069371 228.643673 176.069371 229.790769 
C 176.069371 230.937865 176.525117 232.038134 177.336236 232.849253 
C 178.147356 233.660373 179.247624 234.116119 180.394721 234.116119 
z
" clip-path="url(#p7965454a31)" style="fill: #44948f; stroke: #ffffff; stroke-width: 0.600214"/>
    <path d="M 160.908005 257.002936 
C 161.955724 257.002936 162.960672 256.586673 163.701522 255.845824 
C 164.442371 255.104975 164.858634 254.100027 164.858634 253.052308 
C 164.858634 252.004589 164.442371 250.999641 163.701522 250.258791 
C 162.960672 249.517942 161.955724 249.101679 160.908005 249.101679 
C 159.860286 249.101679 158.855338 249.517942 158.114489 250.258791 
C 157.37364 250.999641 156.957377 252.004589 156.957377 253.052308 
C 156.957377 254.100027 157.37364 255.104975 158.114489 255.845824 
C 158.855338 256.586673 159.860286 257.002936 160.908005 257.002936 
z
" clip-path="url(#p7965454a31)" style="fill: #44948f; stroke: #ffffff; stroke-width: 0.600214"/>
    <path d="M 160.192928 280.250046 
C 161.23682 280.250046 162.238098 279.835303 162.976241 279.097159 
C 163.714384 278.359016 164.129127 277.357738 164.129127 276.313846 
C 164.129127 275.269954 163.714384 274.268676 162.976241 273.530533 
C 162.238098 272.79239 161.23682 272.377647 160.192928 272.377647 
C 159.149036 272.377647 158.147758 272.79239 157.409614 273.530533 
C 156.671471 274.268676 156.256728 275.269954 156.256728 276.313846 
C 156.256728 277.357738 156.671471 278.359016 157.409614 279.097159 
C 158.147758 279.835303 159.149036 280.250046 160.192928 280.250046 
z
" clip-path="url(#p7965454a31)" style="fill: #44948f; stroke: #ffffff; stroke-width: 0.600214"/>
    <path d="M 158.682301 303.480927 
C 159.718063 303.480927 160.711542 303.069414 161.443936 302.33702 
C 162.17633 301.604626 162.587843 300.611147 162.587843 299.575385 
C 162.587843 298.539623 162.17633 297.546144 161.443936 296.813749 
C 160.711542 296.081355 159.718063 295.669842 158.682301 295.669842 
C 157.646539 295.669842 156.65306 296.081355 155.920665 296.813749 
C 155.188271 297.546144 154.776759 298.539623 154.776759 299.575385 
C 154.776759 300.611147 155.188271 301.604626 155.920665 302.33702 
C 156.65306 303.069414 157.646539 303.480927 158.682301 303.480927 
z
" clip-path="url(#p7965454a31)" style="fill: #6db290; stroke: #ffffff; stroke-width: 0.600214"/>
    <path d="M 152.673669 326.618064 
C 153.676439 326.618064 154.638274 326.219659 155.347339 325.510593 
C 156.056405 324.801528 156.45481 323.839693 156.45481 322.836923 
C 156.45481 321.834153 156.056405 320.872318 155.347339 320.163253 
C 154.638274 319.454187 153.676439 319.055782 152.673669 319.055782 
C 151.670899 319.055782 150.709065 319.454187 149.999999 320.163253 
C 149.290933 320.872318 148.892529 321.834153 148.892529 322.836923 
C 148.892529 323.839693 149.290933 324.801528 149.999999 325.510593 
C 150.709065 326.219659 151.670899 326.618064 152.673669 326.618064 
z
" clip-path="url(#p7965454a31)" style="fill: #6db290; stroke: #ffffff; stroke-width: 0.600214"/>
    <path d="M 150.322602 349.829797 
C 151.312164 349.829797 152.261329 349.43664 152.961055 348.736914 
C 153.660781 348.037189 154.053938 347.088023 154.053938 346.098462 
C 154.053938 345.1089 153.660781 344.159734 152.961055 343.460009 
C 152.261329 342.760283 151.312164 342.367126 150.322602 342.367126 
C 149.33304 342.367126 148.383875 342.760283 147.684149 343.460009 
C 146.984423 344.159734 146.591266 345.1089 146.591266 346.098462 
C 146.591266 347.088023 146.984423 348.037189 147.684149 348.736914 
C 148.383875 349.43664 149.33304 349.829797 150.322602 349.829797 
z
" clip-path="url(#p7965454a31)" style="fill: #6db290; stroke: #ffffff; stroke-width: 0.600214"/>
    <path d="M 141.381818 372.895534 
C 142.319453 372.895534 143.21881 372.523008 143.881818 371.86 
C 144.544826 371.196992 144.917352 370.297635 144.917352 369.36 
C 144.917352 368.422365 144.544826 367.523008 143.881818 366.86 
C 143.21881 366.196992 142.319453 365.824466 141.381818 365.824466 
C 140.444184 365.824466 139.544826 366.196992 138.881818 366.86 
C 138.21881 367.523008 137.846284 368.422365 137.846284 369.36 
C 137.846284 370.297635 138.21881 371.196992 138.881818 371.86 
C 139.544826 372.523008 140.444184 372.895534 141.381818 372.895534 
z
" clip-path="url(#p7965454a31)" style="fill: #6db290; stroke: #ffffff; stroke-width: 0.600214"/>
   </g>
   <g id="PathCollection_2"/>
   <g id="PathCollection_3"/>
   <g id="PathCollection_4"/>
   <g id="PathCollection_5"/>
   <g id="PathCollection_6"/>
   <g id="PathCollection_7"/>
   <g id="PathCollection_8"/>
   <g id="PathCollection_9"/>
   <g id="PathCollection_10"/>
   <g id="PathCollection_11"/>
   <g id="matplotlib.axis_1">
    <g id="xtick_1">
     <g id="line2d_1">
      <defs>
       <path id="m562cde6664" d="M 0 0 
L 0 3.5 
" style="stroke: #000000; stroke-width: 0.8"/>
      </defs>
      <g>
       <use xlink:href="#m562cde6664" x="159.854473" y="384.48" style="stroke: #000000; stroke-width: 0.8"/>
      </g>
     </g>
     <g id="text_1">
      <!-- 0.2 -->
      <g transform="translate(151.902911 399.078438) scale(0.1 -0.1)">
       <defs>
        <path id="DejaVuSans-30" d="M 2034 4250 
Q 1547 4250 1301 3770 
Q 1056 3291 1056 2328 
Q 1056 1369 1301 889 
Q 1547 409 2034 409 
Q 2525 409 2770 889 
Q 3016 1369 3016 2328 
Q 3016 3291 2770 3770 
Q 2525 4250 2034 4250 
z
M 2034 4750 
Q 2819 4750 3233 4129 
Q 3647 3509 3647 2328 
Q 3647 1150 3233 529 
Q 2819 -91 2034 -91 
Q 1250 -91 836 529 
Q 422 1150 422 2328 
Q 422 3509 836 4129 
Q 1250 4750 2034 4750 
z
" transform="scale(0.015625)"/>
        <path id="DejaVuSans-2e" d="M 684 794 
L 1344 794 
L 1344 0 
L 684 0 
L 684 794 
z
" transform="scale(0.015625)"/>
        <path id="DejaVuSans-32" d="M 1228 531 
L 3431 531 
L 3431 0 
L 469 0 
L 469 531 
Q 828 903 1448 1529 
Q 2069 2156 2228 2338 
Q 2531 2678 2651 2914 
Q 2772 3150 2772 3378 
Q 2772 3750 2511 3984 
Q 2250 4219 1831 4219 
Q 1534 4219 1204 4116 
Q 875 4013 500 3803 
L 500 4441 
Q 881 4594 1212 4672 
Q 1544 4750 1819 4750 
Q 2544 4750 2975 4387 
Q 3406 4025 3406 3419 
Q 3406 3131 3298 2873 
Q 3191 2616 2906 2266 
Q 2828 2175 2409 1742 
Q 1991 1309 1228 531 
z
" transform="scale(0.015625)"/>
       </defs>
       <use xlink:href="#DejaVuSans-30"/>
       <use xlink:href="#DejaVuSans-2e" x="63.623047"/>
       <use xlink:href="#DejaVuSans-32" x="95.410156"/>
      </g>
     </g>
    </g>
    <g id="xtick_2">
     <g id="line2d_2">
      <g>
       <use xlink:href="#m562cde6664" x="214.255942" y="384.48" style="stroke: #000000; stroke-width: 0.8"/>
      </g>
     </g>
     <g id="text_2">
      <!-- 0.4 -->
      <g transform="translate(206.30438 399.078438) scale(0.1 -0.1)">
       <defs>
        <path id="DejaVuSans-34" d="M 2419 4116 
L 825 1625 
L 2419 1625 
L 2419 4116 
z
M 2253 4666 
L 3047 4666 
L 3047 1625 
L 3713 1625 
L 3713 1100 
L 3047 1100 
L 3047 0 
L 2419 0 
L 2419 1100 
L 313 1100 
L 313 1709 
L 2253 4666 
z
" transform="scale(0.015625)"/>
       </defs>
       <use xlink:href="#DejaVuSans-30"/>
       <use xlink:href="#DejaVuSans-2e" x="63.623047"/>
       <use xlink:href="#DejaVuSans-34" x="95.410156"/>
      </g>
     </g>
    </g>
    <g id="xtick_3">
     <g id="line2d_3">
      <g>
       <use xlink:href="#m562cde6664" x="268.657412" y="384.48" style="stroke: #000000; stroke-width: 0.8"/>
      </g>
     </g>
     <g id="text_3">
      <!-- 0.6 -->
      <g transform="translate(260.705849 399.078438) scale(0.1 -0.1)">
       <defs>
        <path id="DejaVuSans-36" d="M 2113 2584 
Q 1688 2584 1439 2293 
Q 1191 2003 1191 1497 
Q 1191 994 1439 701 
Q 1688 409 2113 409 
Q 2538 409 2786 701 
Q 3034 994 3034 1497 
Q 3034 2003 2786 2293 
Q 2538 2584 2113 2584 
z
M 3366 4563 
L 3366 3988 
Q 3128 4100 2886 4159 
Q 2644 4219 2406 4219 
Q 1781 4219 1451 3797 
Q 1122 3375 1075 2522 
Q 1259 2794 1537 2939 
Q 1816 3084 2150 3084 
Q 2853 3084 3261 2657 
Q 3669 2231 3669 1497 
Q 3669 778 3244 343 
Q 2819 -91 2113 -91 
Q 1303 -91 875 529 
Q 447 1150 447 2328 
Q 447 3434 972 4092 
Q 1497 4750 2381 4750 
Q 2619 4750 2861 4703 
Q 3103 4656 3366 4563 
z
" transform="scale(0.015625)"/>
       </defs>
       <use xlink:href="#DejaVuSans-30"/>
       <use xlink:href="#DejaVuSans-2e" x="63.623047"/>
       <use xlink:href="#DejaVuSans-36" x="95.410156"/>
      </g>
     </g>
    </g>
    <g id="xtick_4">
     <g id="line2d_4">
      <g>
       <use xlink:href="#m562cde6664" x="323.058881" y="384.48" style="stroke: #000000; stroke-width: 0.8"/>
      </g>
     </g>
     <g id="text_4">
      <!-- 0.8 -->
      <g transform="translate(315.107319 399.078438) scale(0.1 -0.1)">
       <defs>
        <path id="DejaVuSans-38" d="M 2034 2216 
Q 1584 2216 1326 1975 
Q 1069 1734 1069 1313 
Q 1069 891 1326 650 
Q 1584 409 2034 409 
Q 2484 409 2743 651 
Q 3003 894 3003 1313 
Q 3003 1734 2745 1975 
Q 2488 2216 2034 2216 
z
M 1403 2484 
Q 997 2584 770 2862 
Q 544 3141 544 3541 
Q 544 4100 942 4425 
Q 1341 4750 2034 4750 
Q 2731 4750 3128 4425 
Q 3525 4100 3525 3541 
Q 3525 3141 3298 2862 
Q 3072 2584 2669 2484 
Q 3125 2378 3379 2068 
Q 3634 1759 3634 1313 
Q 3634 634 3220 271 
Q 2806 -91 2034 -91 
Q 1263 -91 848 271 
Q 434 634 434 1313 
Q 434 1759 690 2068 
Q 947 2378 1403 2484 
z
M 1172 3481 
Q 1172 3119 1398 2916 
Q 1625 2713 2034 2713 
Q 2441 2713 2670 2916 
Q 2900 3119 2900 3481 
Q 2900 3844 2670 4047 
Q 2441 4250 2034 4250 
Q 1625 4250 1398 4047 
Q 1172 3844 1172 3481 
z
" transform="scale(0.015625)"/>
       </defs>
       <use xlink:href="#DejaVuSans-30"/>
       <use xlink:href="#DejaVuSans-2e" x="63.623047"/>
       <use xlink:href="#DejaVuSans-38" x="95.410156"/>
      </g>
     </g>
    </g>
    <g id="xtick_5">
     <g id="line2d_5">
      <g>
       <use xlink:href="#m562cde6664" x="377.46035" y="384.48" style="stroke: #000000; stroke-width: 0.8"/>
      </g>
     </g>
     <g id="text_5">
      <!-- 1.0 -->
      <g transform="translate(369.508788 399.078438) scale(0.1 -0.1)">
       <defs>
        <path id="DejaVuSans-31" d="M 794 531 
L 1825 531 
L 1825 4091 
L 703 3866 
L 703 4441 
L 1819 4666 
L 2450 4666 
L 2450 531 
L 3481 531 
L 3481 0 
L 794 0 
L 794 531 
z
" transform="scale(0.015625)"/>
       </defs>
       <use xlink:href="#DejaVuSans-31"/>
       <use xlink:href="#DejaVuSans-2e" x="63.623047"/>
       <use xlink:href="#DejaVuSans-30" x="95.410156"/>
      </g>
     </g>
    </g>
    <g id="text_6">
     <!-- Importance -->
     <g transform="translate(230.546875 412.756563) scale(0.1 -0.1)">
      <defs>
       <path id="DejaVuSans-49" d="M 628 4666 
L 1259 4666 
L 1259 0 
L 628 0 
L 628 4666 
z
" transform="scale(0.015625)"/>
       <path id="DejaVuSans-6d" d="M 3328 2828 
Q 3544 3216 3844 3400 
Q 4144 3584 4550 3584 
Q 5097 3584 5394 3201 
Q 5691 2819 5691 2113 
L 5691 0 
L 5113 0 
L 5113 2094 
Q 5113 2597 4934 2840 
Q 4756 3084 4391 3084 
Q 3944 3084 3684 2787 
Q 3425 2491 3425 1978 
L 3425 0 
L 2847 0 
L 2847 2094 
Q 2847 2600 2669 2842 
Q 2491 3084 2119 3084 
Q 1678 3084 1418 2786 
Q 1159 2488 1159 1978 
L 1159 0 
L 581 0 
L 581 3500 
L 1159 3500 
L 1159 2956 
Q 1356 3278 1631 3431 
Q 1906 3584 2284 3584 
Q 2666 3584 2933 3390 
Q 3200 3197 3328 2828 
z
" transform="scale(0.015625)"/>
       <path id="DejaVuSans-70" d="M 1159 525 
L 1159 -1331 
L 581 -1331 
L 581 3500 
L 1159 3500 
L 1159 2969 
Q 1341 3281 1617 3432 
Q 1894 3584 2278 3584 
Q 2916 3584 3314 3078 
Q 3713 2572 3713 1747 
Q 3713 922 3314 415 
Q 2916 -91 2278 -91 
Q 1894 -91 1617 61 
Q 1341 213 1159 525 
z
M 3116 1747 
Q 3116 2381 2855 2742 
Q 2594 3103 2138 3103 
Q 1681 3103 1420 2742 
Q 1159 2381 1159 1747 
Q 1159 1113 1420 752 
Q 1681 391 2138 391 
Q 2594 391 2855 752 
Q 3116 1113 3116 1747 
z
" transform="scale(0.015625)"/>
       <path id="DejaVuSans-6f" d="M 1959 3097 
Q 1497 3097 1228 2736 
Q 959 2375 959 1747 
Q 959 1119 1226 758 
Q 1494 397 1959 397 
Q 2419 397 2687 759 
Q 2956 1122 2956 1747 
Q 2956 2369 2687 2733 
Q 2419 3097 1959 3097 
z
M 1959 3584 
Q 2709 3584 3137 3096 
Q 3566 2609 3566 1747 
Q 3566 888 3137 398 
Q 2709 -91 1959 -91 
Q 1206 -91 779 398 
Q 353 888 353 1747 
Q 353 2609 779 3096 
Q 1206 3584 1959 3584 
z
" transform="scale(0.015625)"/>
       <path id="DejaVuSans-72" d="M 2631 2963 
Q 2534 3019 2420 3045 
Q 2306 3072 2169 3072 
Q 1681 3072 1420 2755 
Q 1159 2438 1159 1844 
L 1159 0 
L 581 0 
L 581 3500 
L 1159 3500 
L 1159 2956 
Q 1341 3275 1631 3429 
Q 1922 3584 2338 3584 
Q 2397 3584 2469 3576 
Q 2541 3569 2628 3553 
L 2631 2963 
z
" transform="scale(0.015625)"/>
       <path id="DejaVuSans-74" d="M 1172 4494 
L 1172 3500 
L 2356 3500 
L 2356 3053 
L 1172 3053 
L 1172 1153 
Q 1172 725 1289 603 
Q 1406 481 1766 481 
L 2356 481 
L 2356 0 
L 1766 0 
Q 1100 0 847 248 
Q 594 497 594 1153 
L 594 3053 
L 172 3053 
L 172 3500 
L 594 3500 
L 594 4494 
L 1172 4494 
z
" transform="scale(0.015625)"/>
       <path id="DejaVuSans-61" d="M 2194 1759 
Q 1497 1759 1228 1600 
Q 959 1441 959 1056 
Q 959 750 1161 570 
Q 1363 391 1709 391 
Q 2188 391 2477 730 
Q 2766 1069 2766 1631 
L 2766 1759 
L 2194 1759 
z
M 3341 1997 
L 3341 0 
L 2766 0 
L 2766 531 
Q 2569 213 2275 61 
Q 1981 -91 1556 -91 
Q 1019 -91 701 211 
Q 384 513 384 1019 
Q 384 1609 779 1909 
Q 1175 2209 1959 2209 
L 2766 2209 
L 2766 2266 
Q 2766 2663 2505 2880 
Q 2244 3097 1772 3097 
Q 1472 3097 1187 3025 
Q 903 2953 641 2809 
L 641 3341 
Q 956 3463 1253 3523 
Q 1550 3584 1831 3584 
Q 2591 3584 2966 3190 
Q 3341 2797 3341 1997 
z
" transform="scale(0.015625)"/>
       <path id="DejaVuSans-6e" d="M 3513 2113 
L 3513 0 
L 2938 0 
L 2938 2094 
Q 2938 2591 2744 2837 
Q 2550 3084 2163 3084 
Q 1697 3084 1428 2787 
Q 1159 2491 1159 1978 
L 1159 0 
L 581 0 
L 581 3500 
L 1159 3500 
L 1159 2956 
Q 1366 3272 1645 3428 
Q 1925 3584 2291 3584 
Q 2894 3584 3203 3211 
Q 3513 2838 3513 2113 
z
" transform="scale(0.015625)"/>
       <path id="DejaVuSans-63" d="M 3122 3366 
L 3122 2828 
Q 2878 2963 2633 3030 
Q 2388 3097 2138 3097 
Q 1578 3097 1268 2742 
Q 959 2388 959 1747 
Q 959 1106 1268 751 
Q 1578 397 2138 397 
Q 2388 397 2633 464 
Q 2878 531 3122 666 
L 3122 134 
Q 2881 22 2623 -34 
Q 2366 -91 2075 -91 
Q 1284 -91 818 406 
Q 353 903 353 1747 
Q 353 2603 823 3093 
Q 1294 3584 2113 3584 
Q 2378 3584 2631 3529 
Q 2884 3475 3122 3366 
z
" transform="scale(0.015625)"/>
       <path id="DejaVuSans-65" d="M 3597 1894 
L 3597 1613 
L 953 1613 
Q 991 1019 1311 708 
Q 1631 397 2203 397 
Q 2534 397 2845 478 
Q 3156 559 3463 722 
L 3463 178 
Q 3153 47 2828 -22 
Q 2503 -91 2169 -91 
Q 1331 -91 842 396 
Q 353 884 353 1716 
Q 353 2575 817 3079 
Q 1281 3584 2069 3584 
Q 2775 3584 3186 3129 
Q 3597 2675 3597 1894 
z
M 3022 2063 
Q 3016 2534 2758 2815 
Q 2500 3097 2075 3097 
Q 1594 3097 1305 2825 
Q 1016 2553 972 2059 
L 3022 2063 
z
" transform="scale(0.015625)"/>
      </defs>
      <use xlink:href="#DejaVuSans-49"/>
      <use xlink:href="#DejaVuSans-6d" x="29.492188"/>
      <use xlink:href="#DejaVuSans-70" x="126.904297"/>
      <use xlink:href="#DejaVuSans-6f" x="190.380859"/>
      <use xlink:href="#DejaVuSans-72" x="251.5625"/>
      <use xlink:href="#DejaVuSans-74" x="292.675781"/>
      <use xlink:href="#DejaVuSans-61" x="331.884766"/>
      <use xlink:href="#DejaVuSans-6e" x="393.164062"/>
      <use xlink:href="#DejaVuSans-63" x="456.542969"/>
      <use xlink:href="#DejaVuSans-65" x="511.523438"/>
     </g>
    </g>
   </g>
   <g id="matplotlib.axis_2">
    <g id="ytick_1">
     <g id="line2d_6">
      <defs>
       <path id="mfc5d651d7c" d="M 0 0 
L -3.5 0 
" style="stroke: #000000; stroke-width: 0.8"/>
      </defs>
      <g>
       <use xlink:href="#mfc5d651d7c" x="129.6" y="66.96" style="stroke: #000000; stroke-width: 0.8"/>
      </g>
     </g>
     <g id="text_7">
      <!-- NP-000964 -->
      <g transform="translate(67.53125 70.759219) scale(0.1 -0.1)">
       <defs>
        <path id="DejaVuSans-4e" d="M 628 4666 
L 1478 4666 
L 3547 763 
L 3547 4666 
L 4159 4666 
L 4159 0 
L 3309 0 
L 1241 3903 
L 1241 0 
L 628 0 
L 628 4666 
z
" transform="scale(0.015625)"/>
        <path id="DejaVuSans-50" d="M 1259 4147 
L 1259 2394 
L 2053 2394 
Q 2494 2394 2734 2622 
Q 2975 2850 2975 3272 
Q 2975 3691 2734 3919 
Q 2494 4147 2053 4147 
L 1259 4147 
z
M 628 4666 
L 2053 4666 
Q 2838 4666 3239 4311 
Q 3641 3956 3641 3272 
Q 3641 2581 3239 2228 
Q 2838 1875 2053 1875 
L 1259 1875 
L 1259 0 
L 628 0 
L 628 4666 
z
" transform="scale(0.015625)"/>
        <path id="DejaVuSans-2d" d="M 313 2009 
L 1997 2009 
L 1997 1497 
L 313 1497 
L 313 2009 
z
" transform="scale(0.015625)"/>
        <path id="DejaVuSans-39" d="M 703 97 
L 703 672 
Q 941 559 1184 500 
Q 1428 441 1663 441 
Q 2288 441 2617 861 
Q 2947 1281 2994 2138 
Q 2813 1869 2534 1725 
Q 2256 1581 1919 1581 
Q 1219 1581 811 2004 
Q 403 2428 403 3163 
Q 403 3881 828 4315 
Q 1253 4750 1959 4750 
Q 2769 4750 3195 4129 
Q 3622 3509 3622 2328 
Q 3622 1225 3098 567 
Q 2575 -91 1691 -91 
Q 1453 -91 1209 -44 
Q 966 3 703 97 
z
M 1959 2075 
Q 2384 2075 2632 2365 
Q 2881 2656 2881 3163 
Q 2881 3666 2632 3958 
Q 2384 4250 1959 4250 
Q 1534 4250 1286 3958 
Q 1038 3666 1038 3163 
Q 1038 2656 1286 2365 
Q 1534 2075 1959 2075 
z
" transform="scale(0.015625)"/>
       </defs>
       <use xlink:href="#DejaVuSans-4e"/>
       <use xlink:href="#DejaVuSans-50" x="74.804688"/>
       <use xlink:href="#DejaVuSans-2d" x="132.857422"/>
       <use xlink:href="#DejaVuSans-30" x="168.941406"/>
       <use xlink:href="#DejaVuSans-30" x="232.564453"/>
       <use xlink:href="#DejaVuSans-30" x="296.1875"/>
       <use xlink:href="#DejaVuSans-39" x="359.810547"/>
       <use xlink:href="#DejaVuSans-36" x="423.433594"/>
       <use xlink:href="#DejaVuSans-34" x="487.056641"/>
      </g>
     </g>
    </g>
    <g id="ytick_2">
     <g id="line2d_7">
      <g>
       <use xlink:href="#mfc5d651d7c" x="129.6" y="90.221538" style="stroke: #000000; stroke-width: 0.8"/>
      </g>
     </g>
     <g id="text_8">
      <!-- Glyoxylic acid -->
      <g transform="translate(53.525 94.020757) scale(0.1 -0.1)">
       <defs>
        <path id="DejaVuSans-47" d="M 3809 666 
L 3809 1919 
L 2778 1919 
L 2778 2438 
L 4434 2438 
L 4434 434 
Q 4069 175 3628 42 
Q 3188 -91 2688 -91 
Q 1594 -91 976 548 
Q 359 1188 359 2328 
Q 359 3472 976 4111 
Q 1594 4750 2688 4750 
Q 3144 4750 3555 4637 
Q 3966 4525 4313 4306 
L 4313 3634 
Q 3963 3931 3569 4081 
Q 3175 4231 2741 4231 
Q 1884 4231 1454 3753 
Q 1025 3275 1025 2328 
Q 1025 1384 1454 906 
Q 1884 428 2741 428 
Q 3075 428 3337 486 
Q 3600 544 3809 666 
z
" transform="scale(0.015625)"/>
        <path id="DejaVuSans-6c" d="M 603 4863 
L 1178 4863 
L 1178 0 
L 603 0 
L 603 4863 
z
" transform="scale(0.015625)"/>
        <path id="DejaVuSans-79" d="M 2059 -325 
Q 1816 -950 1584 -1140 
Q 1353 -1331 966 -1331 
L 506 -1331 
L 506 -850 
L 844 -850 
Q 1081 -850 1212 -737 
Q 1344 -625 1503 -206 
L 1606 56 
L 191 3500 
L 800 3500 
L 1894 763 
L 2988 3500 
L 3597 3500 
L 2059 -325 
z
" transform="scale(0.015625)"/>
        <path id="DejaVuSans-78" d="M 3513 3500 
L 2247 1797 
L 3578 0 
L 2900 0 
L 1881 1375 
L 863 0 
L 184 0 
L 1544 1831 
L 300 3500 
L 978 3500 
L 1906 2253 
L 2834 3500 
L 3513 3500 
z
" transform="scale(0.015625)"/>
        <path id="DejaVuSans-69" d="M 603 3500 
L 1178 3500 
L 1178 0 
L 603 0 
L 603 3500 
z
M 603 4863 
L 1178 4863 
L 1178 4134 
L 603 4134 
L 603 4863 
z
" transform="scale(0.015625)"/>
        <path id="DejaVuSans-20" transform="scale(0.015625)"/>
        <path id="DejaVuSans-64" d="M 2906 2969 
L 2906 4863 
L 3481 4863 
L 3481 0 
L 2906 0 
L 2906 525 
Q 2725 213 2448 61 
Q 2172 -91 1784 -91 
Q 1150 -91 751 415 
Q 353 922 353 1747 
Q 353 2572 751 3078 
Q 1150 3584 1784 3584 
Q 2172 3584 2448 3432 
Q 2725 3281 2906 2969 
z
M 947 1747 
Q 947 1113 1208 752 
Q 1469 391 1925 391 
Q 2381 391 2643 752 
Q 2906 1113 2906 1747 
Q 2906 2381 2643 2742 
Q 2381 3103 1925 3103 
Q 1469 3103 1208 2742 
Q 947 2381 947 1747 
z
" transform="scale(0.015625)"/>
       </defs>
       <use xlink:href="#DejaVuSans-47"/>
       <use xlink:href="#DejaVuSans-6c" x="77.490234"/>
       <use xlink:href="#DejaVuSans-79" x="105.273438"/>
       <use xlink:href="#DejaVuSans-6f" x="164.453125"/>
       <use xlink:href="#DejaVuSans-78" x="222.509766"/>
       <use xlink:href="#DejaVuSans-79" x="281.689453"/>
       <use xlink:href="#DejaVuSans-6c" x="340.869141"/>
       <use xlink:href="#DejaVuSans-69" x="368.652344"/>
       <use xlink:href="#DejaVuSans-63" x="396.435547"/>
       <use xlink:href="#DejaVuSans-20" x="451.416016"/>
       <use xlink:href="#DejaVuSans-61" x="483.203125"/>
       <use xlink:href="#DejaVuSans-63" x="544.482422"/>
       <use xlink:href="#DejaVuSans-69" x="599.462891"/>
       <use xlink:href="#DejaVuSans-64" x="627.246094"/>
      </g>
     </g>
    </g>
    <g id="ytick_3">
     <g id="line2d_8">
      <g>
       <use xlink:href="#mfc5d651d7c" x="129.6" y="113.483077" style="stroke: #000000; stroke-width: 0.8"/>
      </g>
     </g>
     <g id="text_9">
      <!-- D-(+)-Malic acid -->
      <g transform="translate(41.759375 117.282296) scale(0.1 -0.1)">
       <defs>
        <path id="DejaVuSans-44" d="M 1259 4147 
L 1259 519 
L 2022 519 
Q 2988 519 3436 956 
Q 3884 1394 3884 2338 
Q 3884 3275 3436 3711 
Q 2988 4147 2022 4147 
L 1259 4147 
z
M 628 4666 
L 1925 4666 
Q 3281 4666 3915 4102 
Q 4550 3538 4550 2338 
Q 4550 1131 3912 565 
Q 3275 0 1925 0 
L 628 0 
L 628 4666 
z
" transform="scale(0.015625)"/>
        <path id="DejaVuSans-28" d="M 1984 4856 
Q 1566 4138 1362 3434 
Q 1159 2731 1159 2009 
Q 1159 1288 1364 580 
Q 1569 -128 1984 -844 
L 1484 -844 
Q 1016 -109 783 600 
Q 550 1309 550 2009 
Q 550 2706 781 3412 
Q 1013 4119 1484 4856 
L 1984 4856 
z
" transform="scale(0.015625)"/>
        <path id="DejaVuSans-2b" d="M 2944 4013 
L 2944 2272 
L 4684 2272 
L 4684 1741 
L 2944 1741 
L 2944 0 
L 2419 0 
L 2419 1741 
L 678 1741 
L 678 2272 
L 2419 2272 
L 2419 4013 
L 2944 4013 
z
" transform="scale(0.015625)"/>
        <path id="DejaVuSans-29" d="M 513 4856 
L 1013 4856 
Q 1481 4119 1714 3412 
Q 1947 2706 1947 2009 
Q 1947 1309 1714 600 
Q 1481 -109 1013 -844 
L 513 -844 
Q 928 -128 1133 580 
Q 1338 1288 1338 2009 
Q 1338 2731 1133 3434 
Q 928 4138 513 4856 
z
" transform="scale(0.015625)"/>
        <path id="DejaVuSans-4d" d="M 628 4666 
L 1569 4666 
L 2759 1491 
L 3956 4666 
L 4897 4666 
L 4897 0 
L 4281 0 
L 4281 4097 
L 3078 897 
L 2444 897 
L 1241 4097 
L 1241 0 
L 628 0 
L 628 4666 
z
" transform="scale(0.015625)"/>
       </defs>
       <use xlink:href="#DejaVuSans-44"/>
       <use xlink:href="#DejaVuSans-2d" x="77.001953"/>
       <use xlink:href="#DejaVuSans-28" x="113.085938"/>
       <use xlink:href="#DejaVuSans-2b" x="152.099609"/>
       <use xlink:href="#DejaVuSans-29" x="235.888672"/>
       <use xlink:href="#DejaVuSans-2d" x="274.902344"/>
       <use xlink:href="#DejaVuSans-4d" x="310.986328"/>
       <use xlink:href="#DejaVuSans-61" x="397.265625"/>
       <use xlink:href="#DejaVuSans-6c" x="458.544922"/>
       <use xlink:href="#DejaVuSans-69" x="486.328125"/>
       <use xlink:href="#DejaVuSans-63" x="514.111328"/>
       <use xlink:href="#DejaVuSans-20" x="569.091797"/>
       <use xlink:href="#DejaVuSans-61" x="600.878906"/>
       <use xlink:href="#DejaVuSans-63" x="662.158203"/>
       <use xlink:href="#DejaVuSans-69" x="717.138672"/>
       <use xlink:href="#DejaVuSans-64" x="744.921875"/>
      </g>
     </g>
    </g>
    <g id="ytick_4">
     <g id="line2d_9">
      <g>
       <use xlink:href="#mfc5d651d7c" x="129.6" y="136.744615" style="stroke: #000000; stroke-width: 0.8"/>
      </g>
     </g>
     <g id="text_10">
      <!-- D-(-)-Mannitol -->
      <g transform="translate(53.246875 140.543834) scale(0.1 -0.1)">
       <use xlink:href="#DejaVuSans-44"/>
       <use xlink:href="#DejaVuSans-2d" x="77.001953"/>
       <use xlink:href="#DejaVuSans-28" x="113.085938"/>
       <use xlink:href="#DejaVuSans-2d" x="152.099609"/>
       <use xlink:href="#DejaVuSans-29" x="188.183594"/>
       <use xlink:href="#DejaVuSans-2d" x="227.197266"/>
       <use xlink:href="#DejaVuSans-4d" x="263.28125"/>
       <use xlink:href="#DejaVuSans-61" x="349.560547"/>
       <use xlink:href="#DejaVuSans-6e" x="410.839844"/>
       <use xlink:href="#DejaVuSans-6e" x="474.21875"/>
       <use xlink:href="#DejaVuSans-69" x="537.597656"/>
       <use xlink:href="#DejaVuSans-74" x="565.380859"/>
       <use xlink:href="#DejaVuSans-6f" x="604.589844"/>
       <use xlink:href="#DejaVuSans-6c" x="665.771484"/>
      </g>
     </g>
    </g>
    <g id="ytick_5">
     <g id="line2d_10">
      <g>
       <use xlink:href="#mfc5d651d7c" x="129.6" y="160.006154" style="stroke: #000000; stroke-width: 0.8"/>
      </g>
     </g>
     <g id="text_11">
      <!-- LPE 18:2 -->
      <g transform="translate(79.045312 163.805373) scale(0.1 -0.1)">
       <defs>
        <path id="DejaVuSans-4c" d="M 628 4666 
L 1259 4666 
L 1259 531 
L 3531 531 
L 3531 0 
L 628 0 
L 628 4666 
z
" transform="scale(0.015625)"/>
        <path id="DejaVuSans-45" d="M 628 4666 
L 3578 4666 
L 3578 4134 
L 1259 4134 
L 1259 2753 
L 3481 2753 
L 3481 2222 
L 1259 2222 
L 1259 531 
L 3634 531 
L 3634 0 
L 628 0 
L 628 4666 
z
" transform="scale(0.015625)"/>
        <path id="DejaVuSans-3a" d="M 750 794 
L 1409 794 
L 1409 0 
L 750 0 
L 750 794 
z
M 750 3309 
L 1409 3309 
L 1409 2516 
L 750 2516 
L 750 3309 
z
" transform="scale(0.015625)"/>
       </defs>
       <use xlink:href="#DejaVuSans-4c"/>
       <use xlink:href="#DejaVuSans-50" x="55.712891"/>
       <use xlink:href="#DejaVuSans-45" x="116.015625"/>
       <use xlink:href="#DejaVuSans-20" x="179.199219"/>
       <use xlink:href="#DejaVuSans-31" x="210.986328"/>
       <use xlink:href="#DejaVuSans-38" x="274.609375"/>
       <use xlink:href="#DejaVuSans-3a" x="338.232422"/>
       <use xlink:href="#DejaVuSans-32" x="371.923828"/>
      </g>
     </g>
    </g>
    <g id="ytick_6">
     <g id="line2d_11">
      <g>
       <use xlink:href="#mfc5d651d7c" x="129.6" y="183.267692" style="stroke: #000000; stroke-width: 0.8"/>
      </g>
     </g>
     <g id="text_12">
      <!-- 4-Oxoproline -->
      <g transform="translate(58.357812 187.066911) scale(0.1 -0.1)">
       <defs>
        <path id="DejaVuSans-4f" d="M 2522 4238 
Q 1834 4238 1429 3725 
Q 1025 3213 1025 2328 
Q 1025 1447 1429 934 
Q 1834 422 2522 422 
Q 3209 422 3611 934 
Q 4013 1447 4013 2328 
Q 4013 3213 3611 3725 
Q 3209 4238 2522 4238 
z
M 2522 4750 
Q 3503 4750 4090 4092 
Q 4678 3434 4678 2328 
Q 4678 1225 4090 567 
Q 3503 -91 2522 -91 
Q 1538 -91 948 565 
Q 359 1222 359 2328 
Q 359 3434 948 4092 
Q 1538 4750 2522 4750 
z
" transform="scale(0.015625)"/>
       </defs>
       <use xlink:href="#DejaVuSans-34"/>
       <use xlink:href="#DejaVuSans-2d" x="63.623047"/>
       <use xlink:href="#DejaVuSans-4f" x="102.457031"/>
       <use xlink:href="#DejaVuSans-78" x="181.167969"/>
       <use xlink:href="#DejaVuSans-6f" x="237.222656"/>
       <use xlink:href="#DejaVuSans-70" x="298.404297"/>
       <use xlink:href="#DejaVuSans-72" x="361.880859"/>
       <use xlink:href="#DejaVuSans-6f" x="400.744141"/>
       <use xlink:href="#DejaVuSans-6c" x="461.925781"/>
       <use xlink:href="#DejaVuSans-69" x="489.708984"/>
       <use xlink:href="#DejaVuSans-6e" x="517.492188"/>
       <use xlink:href="#DejaVuSans-65" x="580.871094"/>
      </g>
     </g>
    </g>
    <g id="ytick_7">
     <g id="line2d_12">
      <g>
       <use xlink:href="#mfc5d651d7c" x="129.6" y="206.529231" style="stroke: #000000; stroke-width: 0.8"/>
      </g>
     </g>
     <g id="text_13">
      <!-- Citraconic acid -->
      <g transform="translate(48.517187 210.32845) scale(0.1 -0.1)">
       <defs>
        <path id="DejaVuSans-43" d="M 4122 4306 
L 4122 3641 
Q 3803 3938 3442 4084 
Q 3081 4231 2675 4231 
Q 1875 4231 1450 3742 
Q 1025 3253 1025 2328 
Q 1025 1406 1450 917 
Q 1875 428 2675 428 
Q 3081 428 3442 575 
Q 3803 722 4122 1019 
L 4122 359 
Q 3791 134 3420 21 
Q 3050 -91 2638 -91 
Q 1578 -91 968 557 
Q 359 1206 359 2328 
Q 359 3453 968 4101 
Q 1578 4750 2638 4750 
Q 3056 4750 3426 4639 
Q 3797 4528 4122 4306 
z
" transform="scale(0.015625)"/>
       </defs>
       <use xlink:href="#DejaVuSans-43"/>
       <use xlink:href="#DejaVuSans-69" x="69.824219"/>
       <use xlink:href="#DejaVuSans-74" x="97.607422"/>
       <use xlink:href="#DejaVuSans-72" x="136.816406"/>
       <use xlink:href="#DejaVuSans-61" x="177.929688"/>
       <use xlink:href="#DejaVuSans-63" x="239.208984"/>
       <use xlink:href="#DejaVuSans-6f" x="294.189453"/>
       <use xlink:href="#DejaVuSans-6e" x="355.371094"/>
       <use xlink:href="#DejaVuSans-69" x="418.75"/>
       <use xlink:href="#DejaVuSans-63" x="446.533203"/>
       <use xlink:href="#DejaVuSans-20" x="501.513672"/>
       <use xlink:href="#DejaVuSans-61" x="533.300781"/>
       <use xlink:href="#DejaVuSans-63" x="594.580078"/>
       <use xlink:href="#DejaVuSans-69" x="649.560547"/>
       <use xlink:href="#DejaVuSans-64" x="677.34375"/>
      </g>
     </g>
    </g>
    <g id="ytick_8">
     <g id="line2d_13">
      <g>
       <use xlink:href="#mfc5d651d7c" x="129.6" y="229.790769" style="stroke: #000000; stroke-width: 0.8"/>
      </g>
     </g>
     <g id="text_14">
      <!-- LPS 18:2 -->
      <g transform="translate(79.015625 233.589988) scale(0.1 -0.1)">
       <defs>
        <path id="DejaVuSans-53" d="M 3425 4513 
L 3425 3897 
Q 3066 4069 2747 4153 
Q 2428 4238 2131 4238 
Q 1616 4238 1336 4038 
Q 1056 3838 1056 3469 
Q 1056 3159 1242 3001 
Q 1428 2844 1947 2747 
L 2328 2669 
Q 3034 2534 3370 2195 
Q 3706 1856 3706 1288 
Q 3706 609 3251 259 
Q 2797 -91 1919 -91 
Q 1588 -91 1214 -16 
Q 841 59 441 206 
L 441 856 
Q 825 641 1194 531 
Q 1563 422 1919 422 
Q 2459 422 2753 634 
Q 3047 847 3047 1241 
Q 3047 1584 2836 1778 
Q 2625 1972 2144 2069 
L 1759 2144 
Q 1053 2284 737 2584 
Q 422 2884 422 3419 
Q 422 4038 858 4394 
Q 1294 4750 2059 4750 
Q 2388 4750 2728 4690 
Q 3069 4631 3425 4513 
z
" transform="scale(0.015625)"/>
       </defs>
       <use xlink:href="#DejaVuSans-4c"/>
       <use xlink:href="#DejaVuSans-50" x="55.712891"/>
       <use xlink:href="#DejaVuSans-53" x="116.015625"/>
       <use xlink:href="#DejaVuSans-20" x="179.492188"/>
       <use xlink:href="#DejaVuSans-31" x="211.279297"/>
       <use xlink:href="#DejaVuSans-38" x="274.902344"/>
       <use xlink:href="#DejaVuSans-3a" x="338.525391"/>
       <use xlink:href="#DejaVuSans-32" x="372.216797"/>
      </g>
     </g>
    </g>
    <g id="ytick_9">
     <g id="line2d_14">
      <g>
       <use xlink:href="#mfc5d651d7c" x="129.6" y="253.052308" style="stroke: #000000; stroke-width: 0.8"/>
      </g>
     </g>
     <g id="text_15">
      <!-- Isocitric acid -->
      <g transform="translate(59.80625 256.851526) scale(0.1 -0.1)">
       <defs>
        <path id="DejaVuSans-73" d="M 2834 3397 
L 2834 2853 
Q 2591 2978 2328 3040 
Q 2066 3103 1784 3103 
Q 1356 3103 1142 2972 
Q 928 2841 928 2578 
Q 928 2378 1081 2264 
Q 1234 2150 1697 2047 
L 1894 2003 
Q 2506 1872 2764 1633 
Q 3022 1394 3022 966 
Q 3022 478 2636 193 
Q 2250 -91 1575 -91 
Q 1294 -91 989 -36 
Q 684 19 347 128 
L 347 722 
Q 666 556 975 473 
Q 1284 391 1588 391 
Q 1994 391 2212 530 
Q 2431 669 2431 922 
Q 2431 1156 2273 1281 
Q 2116 1406 1581 1522 
L 1381 1569 
Q 847 1681 609 1914 
Q 372 2147 372 2553 
Q 372 3047 722 3315 
Q 1072 3584 1716 3584 
Q 2034 3584 2315 3537 
Q 2597 3491 2834 3397 
z
" transform="scale(0.015625)"/>
       </defs>
       <use xlink:href="#DejaVuSans-49"/>
       <use xlink:href="#DejaVuSans-73" x="29.492188"/>
       <use xlink:href="#DejaVuSans-6f" x="81.591797"/>
       <use xlink:href="#DejaVuSans-63" x="142.773438"/>
       <use xlink:href="#DejaVuSans-69" x="197.753906"/>
       <use xlink:href="#DejaVuSans-74" x="225.537109"/>
       <use xlink:href="#DejaVuSans-72" x="264.746094"/>
       <use xlink:href="#DejaVuSans-69" x="305.859375"/>
       <use xlink:href="#DejaVuSans-63" x="333.642578"/>
       <use xlink:href="#DejaVuSans-20" x="388.623047"/>
       <use xlink:href="#DejaVuSans-61" x="420.410156"/>
       <use xlink:href="#DejaVuSans-63" x="481.689453"/>
       <use xlink:href="#DejaVuSans-69" x="536.669922"/>
       <use xlink:href="#DejaVuSans-64" x="564.453125"/>
      </g>
     </g>
    </g>
    <g id="ytick_10">
     <g id="line2d_15">
      <g>
       <use xlink:href="#mfc5d651d7c" x="129.6" y="276.313846" style="stroke: #000000; stroke-width: 0.8"/>
      </g>
     </g>
     <g id="text_16">
      <!-- L-(+)-Lactic acid -->
      <g transform="translate(40.478125 280.113065) scale(0.1 -0.1)">
       <use xlink:href="#DejaVuSans-4c"/>
       <use xlink:href="#DejaVuSans-2d" x="53.962891"/>
       <use xlink:href="#DejaVuSans-28" x="90.046875"/>
       <use xlink:href="#DejaVuSans-2b" x="129.060547"/>
       <use xlink:href="#DejaVuSans-29" x="212.849609"/>
       <use xlink:href="#DejaVuSans-2d" x="251.863281"/>
       <use xlink:href="#DejaVuSans-4c" x="287.947266"/>
       <use xlink:href="#DejaVuSans-61" x="343.660156"/>
       <use xlink:href="#DejaVuSans-63" x="404.939453"/>
       <use xlink:href="#DejaVuSans-74" x="459.919922"/>
       <use xlink:href="#DejaVuSans-69" x="499.128906"/>
       <use xlink:href="#DejaVuSans-63" x="526.912109"/>
       <use xlink:href="#DejaVuSans-20" x="581.892578"/>
       <use xlink:href="#DejaVuSans-61" x="613.679688"/>
       <use xlink:href="#DejaVuSans-63" x="674.958984"/>
       <use xlink:href="#DejaVuSans-69" x="729.939453"/>
       <use xlink:href="#DejaVuSans-64" x="757.722656"/>
      </g>
     </g>
    </g>
    <g id="ytick_11">
     <g id="line2d_16">
      <g>
       <use xlink:href="#mfc5d651d7c" x="129.6" y="299.575385" style="stroke: #000000; stroke-width: 0.8"/>
      </g>
     </g>
     <g id="text_17">
      <!-- LPE 18:1 -->
      <g transform="translate(79.045312 303.374603) scale(0.1 -0.1)">
       <use xlink:href="#DejaVuSans-4c"/>
       <use xlink:href="#DejaVuSans-50" x="55.712891"/>
       <use xlink:href="#DejaVuSans-45" x="116.015625"/>
       <use xlink:href="#DejaVuSans-20" x="179.199219"/>
       <use xlink:href="#DejaVuSans-31" x="210.986328"/>
       <use xlink:href="#DejaVuSans-38" x="274.609375"/>
       <use xlink:href="#DejaVuSans-3a" x="338.232422"/>
       <use xlink:href="#DejaVuSans-31" x="371.923828"/>
      </g>
     </g>
    </g>
    <g id="ytick_12">
     <g id="line2d_17">
      <g>
       <use xlink:href="#mfc5d651d7c" x="129.6" y="322.836923" style="stroke: #000000; stroke-width: 0.8"/>
      </g>
     </g>
     <g id="text_18">
      <!-- 1,2,3-cyclopropanetr -->
      <g transform="translate(18.384375 321.797079) scale(0.1 -0.1)">
       <defs>
        <path id="DejaVuSans-2c" d="M 750 794 
L 1409 794 
L 1409 256 
L 897 -744 
L 494 -744 
L 750 256 
L 750 794 
z
" transform="scale(0.015625)"/>
        <path id="DejaVuSans-33" d="M 2597 2516 
Q 3050 2419 3304 2112 
Q 3559 1806 3559 1356 
Q 3559 666 3084 287 
Q 2609 -91 1734 -91 
Q 1441 -91 1130 -33 
Q 819 25 488 141 
L 488 750 
Q 750 597 1062 519 
Q 1375 441 1716 441 
Q 2309 441 2620 675 
Q 2931 909 2931 1356 
Q 2931 1769 2642 2001 
Q 2353 2234 1838 2234 
L 1294 2234 
L 1294 2753 
L 1863 2753 
Q 2328 2753 2575 2939 
Q 2822 3125 2822 3475 
Q 2822 3834 2567 4026 
Q 2313 4219 1838 4219 
Q 1578 4219 1281 4162 
Q 984 4106 628 3988 
L 628 4550 
Q 988 4650 1302 4700 
Q 1616 4750 1894 4750 
Q 2613 4750 3031 4423 
Q 3450 4097 3450 3541 
Q 3450 3153 3228 2886 
Q 3006 2619 2597 2516 
z
" transform="scale(0.015625)"/>
       </defs>
       <use xlink:href="#DejaVuSans-31"/>
       <use xlink:href="#DejaVuSans-2c" x="63.623047"/>
       <use xlink:href="#DejaVuSans-32" x="95.410156"/>
       <use xlink:href="#DejaVuSans-2c" x="159.033203"/>
       <use xlink:href="#DejaVuSans-33" x="190.820312"/>
       <use xlink:href="#DejaVuSans-2d" x="254.443359"/>
       <use xlink:href="#DejaVuSans-63" x="290.527344"/>
       <use xlink:href="#DejaVuSans-79" x="345.507812"/>
       <use xlink:href="#DejaVuSans-63" x="404.6875"/>
       <use xlink:href="#DejaVuSans-6c" x="459.667969"/>
       <use xlink:href="#DejaVuSans-6f" x="487.451172"/>
       <use xlink:href="#DejaVuSans-70" x="548.632812"/>
       <use xlink:href="#DejaVuSans-72" x="612.109375"/>
       <use xlink:href="#DejaVuSans-6f" x="650.972656"/>
       <use xlink:href="#DejaVuSans-70" x="712.154297"/>
       <use xlink:href="#DejaVuSans-61" x="775.630859"/>
       <use xlink:href="#DejaVuSans-6e" x="836.910156"/>
       <use xlink:href="#DejaVuSans-65" x="900.289062"/>
       <use xlink:href="#DejaVuSans-74" x="961.8125"/>
       <use xlink:href="#DejaVuSans-72" x="1001.021484"/>
      </g>
      <!-- icarboxylic acid -->
      <g transform="translate(45.10625 332.994892) scale(0.1 -0.1)">
       <defs>
        <path id="DejaVuSans-62" d="M 3116 1747 
Q 3116 2381 2855 2742 
Q 2594 3103 2138 3103 
Q 1681 3103 1420 2742 
Q 1159 2381 1159 1747 
Q 1159 1113 1420 752 
Q 1681 391 2138 391 
Q 2594 391 2855 752 
Q 3116 1113 3116 1747 
z
M 1159 2969 
Q 1341 3281 1617 3432 
Q 1894 3584 2278 3584 
Q 2916 3584 3314 3078 
Q 3713 2572 3713 1747 
Q 3713 922 3314 415 
Q 2916 -91 2278 -91 
Q 1894 -91 1617 61 
Q 1341 213 1159 525 
L 1159 0 
L 581 0 
L 581 4863 
L 1159 4863 
L 1159 2969 
z
" transform="scale(0.015625)"/>
       </defs>
       <use xlink:href="#DejaVuSans-69"/>
       <use xlink:href="#DejaVuSans-63" x="27.783203"/>
       <use xlink:href="#DejaVuSans-61" x="82.763672"/>
       <use xlink:href="#DejaVuSans-72" x="144.042969"/>
       <use xlink:href="#DejaVuSans-62" x="185.15625"/>
       <use xlink:href="#DejaVuSans-6f" x="248.632812"/>
       <use xlink:href="#DejaVuSans-78" x="306.689453"/>
       <use xlink:href="#DejaVuSans-79" x="365.869141"/>
       <use xlink:href="#DejaVuSans-6c" x="425.048828"/>
       <use xlink:href="#DejaVuSans-69" x="452.832031"/>
       <use xlink:href="#DejaVuSans-63" x="480.615234"/>
       <use xlink:href="#DejaVuSans-20" x="535.595703"/>
       <use xlink:href="#DejaVuSans-61" x="567.382812"/>
       <use xlink:href="#DejaVuSans-63" x="628.662109"/>
       <use xlink:href="#DejaVuSans-69" x="683.642578"/>
       <use xlink:href="#DejaVuSans-64" x="711.425781"/>
      </g>
     </g>
    </g>
    <g id="ytick_13">
     <g id="line2d_18">
      <g>
       <use xlink:href="#mfc5d651d7c" x="129.6" y="346.098462" style="stroke: #000000; stroke-width: 0.8"/>
      </g>
     </g>
     <g id="text_19">
      <!-- Methylmalonic acid -->
      <g transform="translate(25.553125 349.89768) scale(0.1 -0.1)">
       <defs>
        <path id="DejaVuSans-68" d="M 3513 2113 
L 3513 0 
L 2938 0 
L 2938 2094 
Q 2938 2591 2744 2837 
Q 2550 3084 2163 3084 
Q 1697 3084 1428 2787 
Q 1159 2491 1159 1978 
L 1159 0 
L 581 0 
L 581 4863 
L 1159 4863 
L 1159 2956 
Q 1366 3272 1645 3428 
Q 1925 3584 2291 3584 
Q 2894 3584 3203 3211 
Q 3513 2838 3513 2113 
z
" transform="scale(0.015625)"/>
       </defs>
       <use xlink:href="#DejaVuSans-4d"/>
       <use xlink:href="#DejaVuSans-65" x="86.279297"/>
       <use xlink:href="#DejaVuSans-74" x="147.802734"/>
       <use xlink:href="#DejaVuSans-68" x="187.011719"/>
       <use xlink:href="#DejaVuSans-79" x="250.390625"/>
       <use xlink:href="#DejaVuSans-6c" x="309.570312"/>
       <use xlink:href="#DejaVuSans-6d" x="337.353516"/>
       <use xlink:href="#DejaVuSans-61" x="434.765625"/>
       <use xlink:href="#DejaVuSans-6c" x="496.044922"/>
       <use xlink:href="#DejaVuSans-6f" x="523.828125"/>
       <use xlink:href="#DejaVuSans-6e" x="585.009766"/>
       <use xlink:href="#DejaVuSans-69" x="648.388672"/>
       <use xlink:href="#DejaVuSans-63" x="676.171875"/>
       <use xlink:href="#DejaVuSans-20" x="731.152344"/>
       <use xlink:href="#DejaVuSans-61" x="762.939453"/>
       <use xlink:href="#DejaVuSans-63" x="824.21875"/>
       <use xlink:href="#DejaVuSans-69" x="879.199219"/>
       <use xlink:href="#DejaVuSans-64" x="906.982422"/>
      </g>
     </g>
    </g>
    <g id="ytick_14">
     <g id="line2d_19">
      <g>
       <use xlink:href="#mfc5d651d7c" x="129.6" y="369.36" style="stroke: #000000; stroke-width: 0.8"/>
      </g>
     </g>
     <g id="text_20">
      <!-- 2-Furoic acid -->
      <g transform="translate(58.878125 373.159219) scale(0.1 -0.1)">
       <defs>
        <path id="DejaVuSans-46" d="M 628 4666 
L 3309 4666 
L 3309 4134 
L 1259 4134 
L 1259 2759 
L 3109 2759 
L 3109 2228 
L 1259 2228 
L 1259 0 
L 628 0 
L 628 4666 
z
" transform="scale(0.015625)"/>
        <path id="DejaVuSans-75" d="M 544 1381 
L 544 3500 
L 1119 3500 
L 1119 1403 
Q 1119 906 1312 657 
Q 1506 409 1894 409 
Q 2359 409 2629 706 
Q 2900 1003 2900 1516 
L 2900 3500 
L 3475 3500 
L 3475 0 
L 2900 0 
L 2900 538 
Q 2691 219 2414 64 
Q 2138 -91 1772 -91 
Q 1169 -91 856 284 
Q 544 659 544 1381 
z
M 1991 3584 
L 1991 3584 
z
" transform="scale(0.015625)"/>
       </defs>
       <use xlink:href="#DejaVuSans-32"/>
       <use xlink:href="#DejaVuSans-2d" x="63.623047"/>
       <use xlink:href="#DejaVuSans-46" x="99.707031"/>
       <use xlink:href="#DejaVuSans-75" x="151.726562"/>
       <use xlink:href="#DejaVuSans-72" x="215.105469"/>
       <use xlink:href="#DejaVuSans-6f" x="253.96875"/>
       <use xlink:href="#DejaVuSans-69" x="315.150391"/>
       <use xlink:href="#DejaVuSans-63" x="342.933594"/>
       <use xlink:href="#DejaVuSans-20" x="397.914062"/>
       <use xlink:href="#DejaVuSans-61" x="429.701172"/>
       <use xlink:href="#DejaVuSans-63" x="490.980469"/>
       <use xlink:href="#DejaVuSans-69" x="545.960938"/>
       <use xlink:href="#DejaVuSans-64" x="573.744141"/>
      </g>
     </g>
    </g>
    <g id="text_21">
     <!--   -->
     <g transform="translate(12.304687 219.749062) rotate(-90) scale(0.1 -0.1)">
      <use xlink:href="#DejaVuSans-20"/>
     </g>
    </g>
   </g>
   <g id="patch_3">
    <path d="M 129.6 384.48 
L 129.6 51.84 
" style="fill: none; stroke: #000000; stroke-width: 0.8; stroke-linejoin: miter; stroke-linecap: square"/>
   </g>
   <g id="patch_4">
    <path d="M 388.8 384.48 
L 388.8 51.84 
" style="fill: none; stroke: #000000; stroke-width: 0.8; stroke-linejoin: miter; stroke-linecap: square"/>
   </g>
   <g id="patch_5">
    <path d="M 129.6 384.48 
L 388.8 384.48 
" style="fill: none; stroke: #000000; stroke-width: 0.8; stroke-linejoin: miter; stroke-linecap: square"/>
   </g>
   <g id="patch_6">
    <path d="M 129.6 51.84 
L 388.8 51.84 
" style="fill: none; stroke: #000000; stroke-width: 0.8; stroke-linejoin: miter; stroke-linecap: square"/>
   </g>
  </g>
 </g>
 <defs>
  <clipPath id="p7965454a31">
   <rect x="129.6" y="51.84" width="259.2" height="332.64"/>
  </clipPath>
 </defs>
</svg>
