<?xml version="1.0" encoding="utf-8" standalone="no"?>
<!DOCTYPE svg PUBLIC "-//W3C//DTD SVG 1.1//EN"
  "http://www.w3.org/Graphics/SVG/1.1/DTD/svg11.dtd">
<svg xmlns:xlink="http://www.w3.org/1999/xlink" width="432pt" height="432pt" viewBox="0 0 432 432" xmlns="http://www.w3.org/2000/svg" version="1.1">
 <metadata>
  <rdf:RDF xmlns:dc="http://purl.org/dc/elements/1.1/" xmlns:cc="http://creativecommons.org/ns#" xmlns:rdf="http://www.w3.org/1999/02/22-rdf-syntax-ns#">
   <cc:Work>
    <dc:type rdf:resource="http://purl.org/dc/dcmitype/StillImage"/>
    <dc:date>2023-07-31T06:19:43.494342</dc:date>
    <dc:format>image/svg+xml</dc:format>
    <dc:creator>
     <cc:Agent>
      <dc:title>Matplotlib v3.7.2, https://matplotlib.org/</dc:title>
     </cc:Agent>
    </dc:creator>
   </cc:Work>
  </rdf:RDF>
 </metadata>
 <defs>
  <style type="text/css">*{stroke-linejoin: round; stroke-linecap: butt}</style>
 </defs>
 <g id="figure_1">
  <g id="patch_1">
   <path d="M 0 432 
L 432 432 
L 432 0 
L 0 0 
z
" style="fill: #ffffff"/>
  </g>
  <g id="axes_1">
   <g id="patch_2">
    <path d="M 129.6 384.48 
L 388.8 384.48 
L 388.8 51.84 
L 129.6 51.84 
z
" style="fill: #ffffff"/>
   </g>
   <g id="PathCollection_1">
    <path d="M 377.018182 74.031068 
C 378.893451 74.031068 380.692166 73.286015 382.018182 71.96 
C 383.344197 70.633984 384.08925 68.835269 384.08925 66.96 
C 384.08925 65.084731 383.344197 63.286015 382.018182 61.96 
C 380.692166 60.633984 378.893451 59.888932 377.018182 59.888932 
C 375.142913 59.888932 373.344197 60.633984 372.018182 61.96 
C 370.692166 63.286015 369.947114 65.084731 369.947114 66.96 
C 369.947114 68.835269 370.692166 70.633984 372.018182 71.96 
C 373.344197 73.286015 375.142913 74.031068 377.018182 74.031068 
z
" clip-path="url(#p4fa86493c2)" style="fill: #7a2e70; stroke: #ffffff; stroke-width: 0.608065"/>
    <path d="M 374.891885 95.6071 
C 376.760798 95.6071 378.553416 94.864573 379.874937 93.543052 
C 381.196458 92.221531 381.938985 90.428913 381.938985 88.56 
C 381.938985 86.691087 381.196458 84.898469 379.874937 83.576948 
C 378.553416 82.255427 376.760798 81.5129 374.891885 81.5129 
C 373.022973 81.5129 371.230354 82.255427 369.908833 83.576948 
C 368.587312 84.898469 367.844786 86.691087 367.844786 88.56 
C 367.844786 90.428913 368.587312 92.221531 369.908833 93.543052 
C 371.230354 94.864573 373.022973 95.6071 374.891885 95.6071 
z
" clip-path="url(#p4fa86493c2)" style="fill: #7a2e70; stroke: #ffffff; stroke-width: 0.608065"/>
    <path d="M 373.803905 117.194804 
C 375.669557 117.194804 377.459048 116.453573 378.778263 115.134358 
C 380.097478 113.815143 380.838709 112.025652 380.838709 110.16 
C 380.838709 108.294348 380.097478 106.504857 378.778263 105.185642 
C 377.459048 103.866427 375.669557 103.125196 373.803905 103.125196 
C 371.938253 103.125196 370.148763 103.866427 368.829548 105.185642 
C 367.510332 106.504857 366.769101 108.294348 366.769101 110.16 
C 366.769101 112.025652 367.510332 113.815143 368.829548 115.134358 
C 370.148763 116.453573 371.938253 117.194804 373.803905 117.194804 
z
" clip-path="url(#p4fa86493c2)" style="fill: #7a2e70; stroke: #ffffff; stroke-width: 0.608065"/>
    <path d="M 353.736081 138.564029 
C 355.54053 138.564029 357.271317 137.847113 358.547256 136.571175 
C 359.823194 135.295236 360.540109 133.564449 360.540109 131.76 
C 360.540109 129.955551 359.823194 128.224764 358.547256 126.948825 
C 357.271317 125.672887 355.54053 124.955971 353.736081 124.955971 
C 351.931631 124.955971 350.200845 125.672887 348.924906 126.948825 
C 347.648968 128.224764 346.932052 129.955551 346.932052 131.76 
C 346.932052 133.564449 347.648968 135.295236 348.924906 136.571175 
C 350.200845 137.847113 351.931631 138.564029 353.736081 138.564029 
z
" clip-path="url(#p4fa86493c2)" style="fill: #7a2e70; stroke: #ffffff; stroke-width: 0.608065"/>
    <path d="M 300.771303 159.51352 
C 302.403235 159.51352 303.968548 158.865146 305.122498 157.711195 
C 306.276449 156.557245 306.924823 154.991932 306.924823 153.36 
C 306.924823 151.728068 306.276449 150.162755 305.122498 149.008805 
C 303.968548 147.854854 302.403235 147.20648 300.771303 147.20648 
C 299.13937 147.20648 297.574058 147.854854 296.420108 149.008805 
C 295.266157 150.162755 294.617783 151.728068 294.617783 153.36 
C 294.617783 154.991932 295.266157 156.557245 296.420108 157.711195 
C 297.574058 158.865146 299.13937 159.51352 300.771303 159.51352 
z
" clip-path="url(#p4fa86493c2)" style="fill: #aa3a6e; stroke: #ffffff; stroke-width: 0.608065"/>
    <path d="M 290.851611 180.983882 
C 292.449163 180.983882 293.981499 180.349167 295.111138 179.219527 
C 296.240778 178.089888 296.875493 176.557552 296.875493 174.96 
C 296.875493 173.362448 296.240778 171.830112 295.111138 170.700473 
C 293.981499 169.570833 292.449163 168.936118 290.851611 168.936118 
C 289.254059 168.936118 287.721723 169.570833 286.592084 170.700473 
C 285.462444 171.830112 284.827729 173.362448 284.827729 174.96 
C 284.827729 176.557552 285.462444 178.089888 286.592084 179.219527 
C 287.721723 180.349167 289.254059 180.983882 290.851611 180.983882 
z
" clip-path="url(#p4fa86493c2)" style="fill: #aa3a6e; stroke: #ffffff; stroke-width: 0.608065"/>
    <path d="M 255.927143 202.103388 
C 257.397266 202.103388 258.807375 201.519301 259.846909 200.479767 
C 260.886444 199.440233 261.47053 198.030124 261.47053 196.56 
C 261.47053 195.089876 260.886444 193.679767 259.846909 192.640233 
C 258.807375 191.600699 257.397266 191.016612 255.927143 191.016612 
C 254.457019 191.016612 253.04691 191.600699 252.007376 192.640233 
C 250.967841 193.679767 250.383755 195.089876 250.383755 196.56 
C 250.383755 198.030124 250.967841 199.440233 252.007376 200.479767 
C 253.04691 201.519301 254.457019 202.103388 255.927143 202.103388 
z
" clip-path="url(#p4fa86493c2)" style="fill: #aa3a6e; stroke: #ffffff; stroke-width: 0.608065"/>
    <path d="M 227.597234 223.280608 
C 228.955235 223.280608 230.257799 222.741068 231.21805 221.780817 
C 232.178302 220.820565 232.717842 219.518001 232.717842 218.16 
C 232.717842 216.801999 232.178302 215.499435 231.21805 214.539183 
C 230.257799 213.578932 228.955235 213.039392 227.597234 213.039392 
C 226.239233 213.039392 224.936669 213.578932 223.976417 214.539183 
C 223.016166 215.499435 222.476626 216.801999 222.476626 218.16 
C 222.476626 219.518001 223.016166 220.820565 223.976417 221.780817 
C 224.936669 222.741068 226.239233 223.280608 227.597234 223.280608 
z
" clip-path="url(#p4fa86493c2)" style="fill: #d64f5f; stroke: #ffffff; stroke-width: 0.608065"/>
    <path d="M 217.401215 244.719637 
C 218.716526 244.719637 219.978143 244.197058 220.908208 243.266993 
C 221.838273 242.336927 222.360852 241.075311 222.360852 239.76 
C 222.360852 238.444689 221.838273 237.183073 220.908208 236.253007 
C 219.978143 235.322942 218.716526 234.800363 217.401215 234.800363 
C 216.085904 234.800363 214.824288 235.322942 213.894223 236.253007 
C 212.964157 237.183073 212.441579 238.444689 212.441579 239.76 
C 212.441579 241.075311 212.964157 242.336927 213.894223 243.266993 
C 214.824288 244.197058 216.085904 244.719637 217.401215 244.719637 
z
" clip-path="url(#p4fa86493c2)" style="fill: #d64f5f; stroke: #ffffff; stroke-width: 0.608065"/>
    <path d="M 191.162724 265.879105 
C 192.361205 265.879105 193.51076 265.402943 194.358214 264.55549 
C 195.205668 263.708036 195.681829 262.558481 195.681829 261.36 
C 195.681829 260.161519 195.205668 259.011964 194.358214 258.16451 
C 193.51076 257.317057 192.361205 256.840895 191.162724 256.840895 
C 189.964244 256.840895 188.814688 257.317057 187.967235 258.16451 
C 187.119781 259.011964 186.643619 260.161519 186.643619 261.36 
C 186.643619 262.558481 187.119781 263.708036 187.967235 264.55549 
C 188.814688 265.402943 189.964244 265.879105 191.162724 265.879105 
z
" clip-path="url(#p4fa86493c2)" style="fill: #d64f5f; stroke: #ffffff; stroke-width: 0.608065"/>
    <path d="M 179.496733 287.268798 
C 180.639439 287.268798 181.735497 286.814796 182.543513 286.00678 
C 183.351529 285.198765 183.805531 284.102707 183.805531 282.96 
C 183.805531 281.817293 183.351529 280.721235 182.543513 279.91322 
C 181.735497 279.105204 180.639439 278.651202 179.496733 278.651202 
C 178.354026 278.651202 177.257968 279.105204 176.449952 279.91322 
C 175.641937 280.721235 175.187935 281.817293 175.187935 282.96 
C 175.187935 284.102707 175.641937 285.198765 176.449952 286.00678 
C 177.257968 286.814796 178.354026 287.268798 179.496733 287.268798 
z
" clip-path="url(#p4fa86493c2)" style="fill: #d64f5f; stroke: #ffffff; stroke-width: 0.608065"/>
    <path d="M 168.565101 308.661956 
C 169.652953 308.661956 170.696395 308.229748 171.465622 307.460521 
C 172.23485 306.691294 172.667058 305.647851 172.667058 304.56 
C 172.667058 303.472149 172.23485 302.428706 171.465622 301.659479 
C 170.696395 300.890252 169.652953 300.458044 168.565101 300.458044 
C 167.47725 300.458044 166.433808 300.890252 165.664581 301.659479 
C 164.895353 302.428706 164.463145 303.472149 164.463145 304.56 
C 164.463145 305.647851 164.895353 306.691294 165.664581 307.460521 
C 166.433808 308.229748 167.47725 308.661956 168.565101 308.661956 
z
" clip-path="url(#p4fa86493c2)" style="fill: #e77e63; stroke: #ffffff; stroke-width: 0.608065"/>
    <path d="M 153.857767 329.965978 
C 154.867124 329.965978 155.835276 329.564956 156.548999 328.851233 
C 157.262723 328.137509 157.663744 327.169357 157.663744 326.16 
C 157.663744 325.150643 157.262723 324.182491 156.548999 323.468767 
C 155.835276 322.755044 154.867124 322.354022 153.857767 322.354022 
C 152.84841 322.354022 151.880257 322.755044 151.166534 323.468767 
C 150.452811 324.182491 150.051789 325.150643 150.051789 326.16 
C 150.051789 327.169357 150.452811 328.137509 151.166534 328.851233 
C 151.880257 329.564956 152.84841 329.965978 153.857767 329.965978 
z
" clip-path="url(#p4fa86493c2)" style="fill: #e77e63; stroke: #ffffff; stroke-width: 0.608065"/>
    <path d="M 153.413818 351.556685 
C 154.420711 351.556685 155.386499 351.156642 156.09848 350.444662 
C 156.81046 349.732681 157.210503 348.766893 157.210503 347.76 
C 157.210503 346.753107 156.81046 345.787319 156.09848 345.075338 
C 155.386499 344.363358 154.420711 343.963315 153.413818 343.963315 
C 152.406926 343.963315 151.441137 344.363358 150.729157 345.075338 
C 150.017176 345.787319 149.617133 346.753107 149.617133 347.76 
C 149.617133 348.766893 150.017176 349.732681 150.729157 350.444662 
C 151.441137 351.156642 152.406926 351.556685 153.413818 351.556685 
z
" clip-path="url(#p4fa86493c2)" style="fill: #e77e63; stroke: #ffffff; stroke-width: 0.608065"/>
    <path d="M 141.381818 372.895534 
C 142.319453 372.895534 143.21881 372.523008 143.881818 371.86 
C 144.544826 371.196992 144.917352 370.297635 144.917352 369.36 
C 144.917352 368.422365 144.544826 367.523008 143.881818 366.86 
C 143.21881 366.196992 142.319453 365.824466 141.381818 365.824466 
C 140.444184 365.824466 139.544826 366.196992 138.881818 366.86 
C 138.21881 367.523008 137.846284 368.422365 137.846284 369.36 
C 137.846284 370.297635 138.21881 371.196992 138.881818 371.86 
C 139.544826 372.523008 140.444184 372.895534 141.381818 372.895534 
z
" clip-path="url(#p4fa86493c2)" style="fill: #e77e63; stroke: #ffffff; stroke-width: 0.608065"/>
   </g>
   <g id="PathCollection_2"/>
   <g id="PathCollection_3"/>
   <g id="PathCollection_4"/>
   <g id="PathCollection_5"/>
   <g id="PathCollection_6"/>
   <g id="PathCollection_7"/>
   <g id="PathCollection_8"/>
   <g id="PathCollection_9"/>
   <g id="PathCollection_10"/>
   <g id="PathCollection_11"/>
   <g id="matplotlib.axis_1">
    <g id="xtick_1">
     <g id="line2d_1">
      <defs>
       <path id="m0532af8e29" d="M 0 0 
L 0 3.5 
" style="stroke: #000000; stroke-width: 0.8"/>
      </defs>
      <g>
       <use xlink:href="#m0532af8e29" x="160.616865" y="384.48" style="stroke: #000000; stroke-width: 0.8"/>
      </g>
     </g>
     <g id="text_1">
      <!-- 0.2 -->
      <g transform="translate(152.665302 399.078438) scale(0.1 -0.1)">
       <defs>
        <path id="DejaVuSans-30" d="M 2034 4250 
Q 1547 4250 1301 3770 
Q 1056 3291 1056 2328 
Q 1056 1369 1301 889 
Q 1547 409 2034 409 
Q 2525 409 2770 889 
Q 3016 1369 3016 2328 
Q 3016 3291 2770 3770 
Q 2525 4250 2034 4250 
z
M 2034 4750 
Q 2819 4750 3233 4129 
Q 3647 3509 3647 2328 
Q 3647 1150 3233 529 
Q 2819 -91 2034 -91 
Q 1250 -91 836 529 
Q 422 1150 422 2328 
Q 422 3509 836 4129 
Q 1250 4750 2034 4750 
z
" transform="scale(0.015625)"/>
        <path id="DejaVuSans-2e" d="M 684 794 
L 1344 794 
L 1344 0 
L 684 0 
L 684 794 
z
" transform="scale(0.015625)"/>
        <path id="DejaVuSans-32" d="M 1228 531 
L 3431 531 
L 3431 0 
L 469 0 
L 469 531 
Q 828 903 1448 1529 
Q 2069 2156 2228 2338 
Q 2531 2678 2651 2914 
Q 2772 3150 2772 3378 
Q 2772 3750 2511 3984 
Q 2250 4219 1831 4219 
Q 1534 4219 1204 4116 
Q 875 4013 500 3803 
L 500 4441 
Q 881 4594 1212 4672 
Q 1544 4750 1819 4750 
Q 2544 4750 2975 4387 
Q 3406 4025 3406 3419 
Q 3406 3131 3298 2873 
Q 3191 2616 2906 2266 
Q 2828 2175 2409 1742 
Q 1991 1309 1228 531 
z
" transform="scale(0.015625)"/>
       </defs>
       <use xlink:href="#DejaVuSans-30"/>
       <use xlink:href="#DejaVuSans-2e" x="63.623047"/>
       <use xlink:href="#DejaVuSans-32" x="95.410156"/>
      </g>
     </g>
    </g>
    <g id="xtick_2">
     <g id="line2d_2">
      <g>
       <use xlink:href="#m0532af8e29" x="215.00804" y="384.48" style="stroke: #000000; stroke-width: 0.8"/>
      </g>
     </g>
     <g id="text_2">
      <!-- 0.4 -->
      <g transform="translate(207.056477 399.078438) scale(0.1 -0.1)">
       <defs>
        <path id="DejaVuSans-34" d="M 2419 4116 
L 825 1625 
L 2419 1625 
L 2419 4116 
z
M 2253 4666 
L 3047 4666 
L 3047 1625 
L 3713 1625 
L 3713 1100 
L 3047 1100 
L 3047 0 
L 2419 0 
L 2419 1100 
L 313 1100 
L 313 1709 
L 2253 4666 
z
" transform="scale(0.015625)"/>
       </defs>
       <use xlink:href="#DejaVuSans-30"/>
       <use xlink:href="#DejaVuSans-2e" x="63.623047"/>
       <use xlink:href="#DejaVuSans-34" x="95.410156"/>
      </g>
     </g>
    </g>
    <g id="xtick_3">
     <g id="line2d_3">
      <g>
       <use xlink:href="#m0532af8e29" x="269.399215" y="384.48" style="stroke: #000000; stroke-width: 0.8"/>
      </g>
     </g>
     <g id="text_3">
      <!-- 0.6 -->
      <g transform="translate(261.447652 399.078438) scale(0.1 -0.1)">
       <defs>
        <path id="DejaVuSans-36" d="M 2113 2584 
Q 1688 2584 1439 2293 
Q 1191 2003 1191 1497 
Q 1191 994 1439 701 
Q 1688 409 2113 409 
Q 2538 409 2786 701 
Q 3034 994 3034 1497 
Q 3034 2003 2786 2293 
Q 2538 2584 2113 2584 
z
M 3366 4563 
L 3366 3988 
Q 3128 4100 2886 4159 
Q 2644 4219 2406 4219 
Q 1781 4219 1451 3797 
Q 1122 3375 1075 2522 
Q 1259 2794 1537 2939 
Q 1816 3084 2150 3084 
Q 2853 3084 3261 2657 
Q 3669 2231 3669 1497 
Q 3669 778 3244 343 
Q 2819 -91 2113 -91 
Q 1303 -91 875 529 
Q 447 1150 447 2328 
Q 447 3434 972 4092 
Q 1497 4750 2381 4750 
Q 2619 4750 2861 4703 
Q 3103 4656 3366 4563 
z
" transform="scale(0.015625)"/>
       </defs>
       <use xlink:href="#DejaVuSans-30"/>
       <use xlink:href="#DejaVuSans-2e" x="63.623047"/>
       <use xlink:href="#DejaVuSans-36" x="95.410156"/>
      </g>
     </g>
    </g>
    <g id="xtick_4">
     <g id="line2d_4">
      <g>
       <use xlink:href="#m0532af8e29" x="323.790389" y="384.48" style="stroke: #000000; stroke-width: 0.8"/>
      </g>
     </g>
     <g id="text_4">
      <!-- 0.8 -->
      <g transform="translate(315.838827 399.078438) scale(0.1 -0.1)">
       <defs>
        <path id="DejaVuSans-38" d="M 2034 2216 
Q 1584 2216 1326 1975 
Q 1069 1734 1069 1313 
Q 1069 891 1326 650 
Q 1584 409 2034 409 
Q 2484 409 2743 651 
Q 3003 894 3003 1313 
Q 3003 1734 2745 1975 
Q 2488 2216 2034 2216 
z
M 1403 2484 
Q 997 2584 770 2862 
Q 544 3141 544 3541 
Q 544 4100 942 4425 
Q 1341 4750 2034 4750 
Q 2731 4750 3128 4425 
Q 3525 4100 3525 3541 
Q 3525 3141 3298 2862 
Q 3072 2584 2669 2484 
Q 3125 2378 3379 2068 
Q 3634 1759 3634 1313 
Q 3634 634 3220 271 
Q 2806 -91 2034 -91 
Q 1263 -91 848 271 
Q 434 634 434 1313 
Q 434 1759 690 2068 
Q 947 2378 1403 2484 
z
M 1172 3481 
Q 1172 3119 1398 2916 
Q 1625 2713 2034 2713 
Q 2441 2713 2670 2916 
Q 2900 3119 2900 3481 
Q 2900 3844 2670 4047 
Q 2441 4250 2034 4250 
Q 1625 4250 1398 4047 
Q 1172 3844 1172 3481 
z
" transform="scale(0.015625)"/>
       </defs>
       <use xlink:href="#DejaVuSans-30"/>
       <use xlink:href="#DejaVuSans-2e" x="63.623047"/>
       <use xlink:href="#DejaVuSans-38" x="95.410156"/>
      </g>
     </g>
    </g>
    <g id="xtick_5">
     <g id="line2d_5">
      <g>
       <use xlink:href="#m0532af8e29" x="378.181564" y="384.48" style="stroke: #000000; stroke-width: 0.8"/>
      </g>
     </g>
     <g id="text_5">
      <!-- 1.0 -->
      <g transform="translate(370.230002 399.078438) scale(0.1 -0.1)">
       <defs>
        <path id="DejaVuSans-31" d="M 794 531 
L 1825 531 
L 1825 4091 
L 703 3866 
L 703 4441 
L 1819 4666 
L 2450 4666 
L 2450 531 
L 3481 531 
L 3481 0 
L 794 0 
L 794 531 
z
" transform="scale(0.015625)"/>
       </defs>
       <use xlink:href="#DejaVuSans-31"/>
       <use xlink:href="#DejaVuSans-2e" x="63.623047"/>
       <use xlink:href="#DejaVuSans-30" x="95.410156"/>
      </g>
     </g>
    </g>
    <g id="text_6">
     <!-- Importance -->
     <g transform="translate(230.546875 412.756563) scale(0.1 -0.1)">
      <defs>
       <path id="DejaVuSans-49" d="M 628 4666 
L 1259 4666 
L 1259 0 
L 628 0 
L 628 4666 
z
" transform="scale(0.015625)"/>
       <path id="DejaVuSans-6d" d="M 3328 2828 
Q 3544 3216 3844 3400 
Q 4144 3584 4550 3584 
Q 5097 3584 5394 3201 
Q 5691 2819 5691 2113 
L 5691 0 
L 5113 0 
L 5113 2094 
Q 5113 2597 4934 2840 
Q 4756 3084 4391 3084 
Q 3944 3084 3684 2787 
Q 3425 2491 3425 1978 
L 3425 0 
L 2847 0 
L 2847 2094 
Q 2847 2600 2669 2842 
Q 2491 3084 2119 3084 
Q 1678 3084 1418 2786 
Q 1159 2488 1159 1978 
L 1159 0 
L 581 0 
L 581 3500 
L 1159 3500 
L 1159 2956 
Q 1356 3278 1631 3431 
Q 1906 3584 2284 3584 
Q 2666 3584 2933 3390 
Q 3200 3197 3328 2828 
z
" transform="scale(0.015625)"/>
       <path id="DejaVuSans-70" d="M 1159 525 
L 1159 -1331 
L 581 -1331 
L 581 3500 
L 1159 3500 
L 1159 2969 
Q 1341 3281 1617 3432 
Q 1894 3584 2278 3584 
Q 2916 3584 3314 3078 
Q 3713 2572 3713 1747 
Q 3713 922 3314 415 
Q 2916 -91 2278 -91 
Q 1894 -91 1617 61 
Q 1341 213 1159 525 
z
M 3116 1747 
Q 3116 2381 2855 2742 
Q 2594 3103 2138 3103 
Q 1681 3103 1420 2742 
Q 1159 2381 1159 1747 
Q 1159 1113 1420 752 
Q 1681 391 2138 391 
Q 2594 391 2855 752 
Q 3116 1113 3116 1747 
z
" transform="scale(0.015625)"/>
       <path id="DejaVuSans-6f" d="M 1959 3097 
Q 1497 3097 1228 2736 
Q 959 2375 959 1747 
Q 959 1119 1226 758 
Q 1494 397 1959 397 
Q 2419 397 2687 759 
Q 2956 1122 2956 1747 
Q 2956 2369 2687 2733 
Q 2419 3097 1959 3097 
z
M 1959 3584 
Q 2709 3584 3137 3096 
Q 3566 2609 3566 1747 
Q 3566 888 3137 398 
Q 2709 -91 1959 -91 
Q 1206 -91 779 398 
Q 353 888 353 1747 
Q 353 2609 779 3096 
Q 1206 3584 1959 3584 
z
" transform="scale(0.015625)"/>
       <path id="DejaVuSans-72" d="M 2631 2963 
Q 2534 3019 2420 3045 
Q 2306 3072 2169 3072 
Q 1681 3072 1420 2755 
Q 1159 2438 1159 1844 
L 1159 0 
L 581 0 
L 581 3500 
L 1159 3500 
L 1159 2956 
Q 1341 3275 1631 3429 
Q 1922 3584 2338 3584 
Q 2397 3584 2469 3576 
Q 2541 3569 2628 3553 
L 2631 2963 
z
" transform="scale(0.015625)"/>
       <path id="DejaVuSans-74" d="M 1172 4494 
L 1172 3500 
L 2356 3500 
L 2356 3053 
L 1172 3053 
L 1172 1153 
Q 1172 725 1289 603 
Q 1406 481 1766 481 
L 2356 481 
L 2356 0 
L 1766 0 
Q 1100 0 847 248 
Q 594 497 594 1153 
L 594 3053 
L 172 3053 
L 172 3500 
L 594 3500 
L 594 4494 
L 1172 4494 
z
" transform="scale(0.015625)"/>
       <path id="DejaVuSans-61" d="M 2194 1759 
Q 1497 1759 1228 1600 
Q 959 1441 959 1056 
Q 959 750 1161 570 
Q 1363 391 1709 391 
Q 2188 391 2477 730 
Q 2766 1069 2766 1631 
L 2766 1759 
L 2194 1759 
z
M 3341 1997 
L 3341 0 
L 2766 0 
L 2766 531 
Q 2569 213 2275 61 
Q 1981 -91 1556 -91 
Q 1019 -91 701 211 
Q 384 513 384 1019 
Q 384 1609 779 1909 
Q 1175 2209 1959 2209 
L 2766 2209 
L 2766 2266 
Q 2766 2663 2505 2880 
Q 2244 3097 1772 3097 
Q 1472 3097 1187 3025 
Q 903 2953 641 2809 
L 641 3341 
Q 956 3463 1253 3523 
Q 1550 3584 1831 3584 
Q 2591 3584 2966 3190 
Q 3341 2797 3341 1997 
z
" transform="scale(0.015625)"/>
       <path id="DejaVuSans-6e" d="M 3513 2113 
L 3513 0 
L 2938 0 
L 2938 2094 
Q 2938 2591 2744 2837 
Q 2550 3084 2163 3084 
Q 1697 3084 1428 2787 
Q 1159 2491 1159 1978 
L 1159 0 
L 581 0 
L 581 3500 
L 1159 3500 
L 1159 2956 
Q 1366 3272 1645 3428 
Q 1925 3584 2291 3584 
Q 2894 3584 3203 3211 
Q 3513 2838 3513 2113 
z
" transform="scale(0.015625)"/>
       <path id="DejaVuSans-63" d="M 3122 3366 
L 3122 2828 
Q 2878 2963 2633 3030 
Q 2388 3097 2138 3097 
Q 1578 3097 1268 2742 
Q 959 2388 959 1747 
Q 959 1106 1268 751 
Q 1578 397 2138 397 
Q 2388 397 2633 464 
Q 2878 531 3122 666 
L 3122 134 
Q 2881 22 2623 -34 
Q 2366 -91 2075 -91 
Q 1284 -91 818 406 
Q 353 903 353 1747 
Q 353 2603 823 3093 
Q 1294 3584 2113 3584 
Q 2378 3584 2631 3529 
Q 2884 3475 3122 3366 
z
" transform="scale(0.015625)"/>
       <path id="DejaVuSans-65" d="M 3597 1894 
L 3597 1613 
L 953 1613 
Q 991 1019 1311 708 
Q 1631 397 2203 397 
Q 2534 397 2845 478 
Q 3156 559 3463 722 
L 3463 178 
Q 3153 47 2828 -22 
Q 2503 -91 2169 -91 
Q 1331 -91 842 396 
Q 353 884 353 1716 
Q 353 2575 817 3079 
Q 1281 3584 2069 3584 
Q 2775 3584 3186 3129 
Q 3597 2675 3597 1894 
z
M 3022 2063 
Q 3016 2534 2758 2815 
Q 2500 3097 2075 3097 
Q 1594 3097 1305 2825 
Q 1016 2553 972 2059 
L 3022 2063 
z
" transform="scale(0.015625)"/>
      </defs>
      <use xlink:href="#DejaVuSans-49"/>
      <use xlink:href="#DejaVuSans-6d" x="29.492188"/>
      <use xlink:href="#DejaVuSans-70" x="126.904297"/>
      <use xlink:href="#DejaVuSans-6f" x="190.380859"/>
      <use xlink:href="#DejaVuSans-72" x="251.5625"/>
      <use xlink:href="#DejaVuSans-74" x="292.675781"/>
      <use xlink:href="#DejaVuSans-61" x="331.884766"/>
      <use xlink:href="#DejaVuSans-6e" x="393.164062"/>
      <use xlink:href="#DejaVuSans-63" x="456.542969"/>
      <use xlink:href="#DejaVuSans-65" x="511.523438"/>
     </g>
    </g>
   </g>
   <g id="matplotlib.axis_2">
    <g id="ytick_1">
     <g id="line2d_6">
      <defs>
       <path id="m224e99b3dd" d="M 0 0 
L -3.5 0 
" style="stroke: #000000; stroke-width: 0.8"/>
      </defs>
      <g>
       <use xlink:href="#m224e99b3dd" x="129.6" y="66.96" style="stroke: #000000; stroke-width: 0.8"/>
      </g>
     </g>
     <g id="text_7">
      <!-- FGRAMPH1_01T05457 -->
      <g transform="translate(11.525 70.670937) scale(0.1 -0.1)">
       <defs>
        <path id="DejaVuSans-46" d="M 628 4666 
L 3309 4666 
L 3309 4134 
L 1259 4134 
L 1259 2759 
L 3109 2759 
L 3109 2228 
L 1259 2228 
L 1259 0 
L 628 0 
L 628 4666 
z
" transform="scale(0.015625)"/>
        <path id="DejaVuSans-47" d="M 3809 666 
L 3809 1919 
L 2778 1919 
L 2778 2438 
L 4434 2438 
L 4434 434 
Q 4069 175 3628 42 
Q 3188 -91 2688 -91 
Q 1594 -91 976 548 
Q 359 1188 359 2328 
Q 359 3472 976 4111 
Q 1594 4750 2688 4750 
Q 3144 4750 3555 4637 
Q 3966 4525 4313 4306 
L 4313 3634 
Q 3963 3931 3569 4081 
Q 3175 4231 2741 4231 
Q 1884 4231 1454 3753 
Q 1025 3275 1025 2328 
Q 1025 1384 1454 906 
Q 1884 428 2741 428 
Q 3075 428 3337 486 
Q 3600 544 3809 666 
z
" transform="scale(0.015625)"/>
        <path id="DejaVuSans-52" d="M 2841 2188 
Q 3044 2119 3236 1894 
Q 3428 1669 3622 1275 
L 4263 0 
L 3584 0 
L 2988 1197 
Q 2756 1666 2539 1819 
Q 2322 1972 1947 1972 
L 1259 1972 
L 1259 0 
L 628 0 
L 628 4666 
L 2053 4666 
Q 2853 4666 3247 4331 
Q 3641 3997 3641 3322 
Q 3641 2881 3436 2590 
Q 3231 2300 2841 2188 
z
M 1259 4147 
L 1259 2491 
L 2053 2491 
Q 2509 2491 2742 2702 
Q 2975 2913 2975 3322 
Q 2975 3731 2742 3939 
Q 2509 4147 2053 4147 
L 1259 4147 
z
" transform="scale(0.015625)"/>
        <path id="DejaVuSans-41" d="M 2188 4044 
L 1331 1722 
L 3047 1722 
L 2188 4044 
z
M 1831 4666 
L 2547 4666 
L 4325 0 
L 3669 0 
L 3244 1197 
L 1141 1197 
L 716 0 
L 50 0 
L 1831 4666 
z
" transform="scale(0.015625)"/>
        <path id="DejaVuSans-4d" d="M 628 4666 
L 1569 4666 
L 2759 1491 
L 3956 4666 
L 4897 4666 
L 4897 0 
L 4281 0 
L 4281 4097 
L 3078 897 
L 2444 897 
L 1241 4097 
L 1241 0 
L 628 0 
L 628 4666 
z
" transform="scale(0.015625)"/>
        <path id="DejaVuSans-50" d="M 1259 4147 
L 1259 2394 
L 2053 2394 
Q 2494 2394 2734 2622 
Q 2975 2850 2975 3272 
Q 2975 3691 2734 3919 
Q 2494 4147 2053 4147 
L 1259 4147 
z
M 628 4666 
L 2053 4666 
Q 2838 4666 3239 4311 
Q 3641 3956 3641 3272 
Q 3641 2581 3239 2228 
Q 2838 1875 2053 1875 
L 1259 1875 
L 1259 0 
L 628 0 
L 628 4666 
z
" transform="scale(0.015625)"/>
        <path id="DejaVuSans-48" d="M 628 4666 
L 1259 4666 
L 1259 2753 
L 3553 2753 
L 3553 4666 
L 4184 4666 
L 4184 0 
L 3553 0 
L 3553 2222 
L 1259 2222 
L 1259 0 
L 628 0 
L 628 4666 
z
" transform="scale(0.015625)"/>
        <path id="DejaVuSans-5f" d="M 3263 -1063 
L 3263 -1509 
L -63 -1509 
L -63 -1063 
L 3263 -1063 
z
" transform="scale(0.015625)"/>
        <path id="DejaVuSans-54" d="M -19 4666 
L 3928 4666 
L 3928 4134 
L 2272 4134 
L 2272 0 
L 1638 0 
L 1638 4134 
L -19 4134 
L -19 4666 
z
" transform="scale(0.015625)"/>
        <path id="DejaVuSans-35" d="M 691 4666 
L 3169 4666 
L 3169 4134 
L 1269 4134 
L 1269 2991 
Q 1406 3038 1543 3061 
Q 1681 3084 1819 3084 
Q 2600 3084 3056 2656 
Q 3513 2228 3513 1497 
Q 3513 744 3044 326 
Q 2575 -91 1722 -91 
Q 1428 -91 1123 -41 
Q 819 9 494 109 
L 494 744 
Q 775 591 1075 516 
Q 1375 441 1709 441 
Q 2250 441 2565 725 
Q 2881 1009 2881 1497 
Q 2881 1984 2565 2268 
Q 2250 2553 1709 2553 
Q 1456 2553 1204 2497 
Q 953 2441 691 2322 
L 691 4666 
z
" transform="scale(0.015625)"/>
        <path id="DejaVuSans-37" d="M 525 4666 
L 3525 4666 
L 3525 4397 
L 1831 0 
L 1172 0 
L 2766 4134 
L 525 4134 
L 525 4666 
z
" transform="scale(0.015625)"/>
       </defs>
       <use xlink:href="#DejaVuSans-46"/>
       <use xlink:href="#DejaVuSans-47" x="57.519531"/>
       <use xlink:href="#DejaVuSans-52" x="135.009766"/>
       <use xlink:href="#DejaVuSans-41" x="200.492188"/>
       <use xlink:href="#DejaVuSans-4d" x="268.900391"/>
       <use xlink:href="#DejaVuSans-50" x="355.179688"/>
       <use xlink:href="#DejaVuSans-48" x="415.482422"/>
       <use xlink:href="#DejaVuSans-31" x="490.677734"/>
       <use xlink:href="#DejaVuSans-5f" x="554.300781"/>
       <use xlink:href="#DejaVuSans-30" x="604.300781"/>
       <use xlink:href="#DejaVuSans-31" x="667.923828"/>
       <use xlink:href="#DejaVuSans-54" x="731.546875"/>
       <use xlink:href="#DejaVuSans-30" x="792.630859"/>
       <use xlink:href="#DejaVuSans-35" x="856.253906"/>
       <use xlink:href="#DejaVuSans-34" x="919.876953"/>
       <use xlink:href="#DejaVuSans-35" x="983.5"/>
       <use xlink:href="#DejaVuSans-37" x="1047.123047"/>
      </g>
     </g>
    </g>
    <g id="ytick_2">
     <g id="line2d_7">
      <g>
       <use xlink:href="#m224e99b3dd" x="129.6" y="88.56" style="stroke: #000000; stroke-width: 0.8"/>
      </g>
     </g>
     <g id="text_8">
      <!-- FGRAMPH1_01T04069 -->
      <g transform="translate(11.525 92.270938) scale(0.1 -0.1)">
       <defs>
        <path id="DejaVuSans-39" d="M 703 97 
L 703 672 
Q 941 559 1184 500 
Q 1428 441 1663 441 
Q 2288 441 2617 861 
Q 2947 1281 2994 2138 
Q 2813 1869 2534 1725 
Q 2256 1581 1919 1581 
Q 1219 1581 811 2004 
Q 403 2428 403 3163 
Q 403 3881 828 4315 
Q 1253 4750 1959 4750 
Q 2769 4750 3195 4129 
Q 3622 3509 3622 2328 
Q 3622 1225 3098 567 
Q 2575 -91 1691 -91 
Q 1453 -91 1209 -44 
Q 966 3 703 97 
z
M 1959 2075 
Q 2384 2075 2632 2365 
Q 2881 2656 2881 3163 
Q 2881 3666 2632 3958 
Q 2384 4250 1959 4250 
Q 1534 4250 1286 3958 
Q 1038 3666 1038 3163 
Q 1038 2656 1286 2365 
Q 1534 2075 1959 2075 
z
" transform="scale(0.015625)"/>
       </defs>
       <use xlink:href="#DejaVuSans-46"/>
       <use xlink:href="#DejaVuSans-47" x="57.519531"/>
       <use xlink:href="#DejaVuSans-52" x="135.009766"/>
       <use xlink:href="#DejaVuSans-41" x="200.492188"/>
       <use xlink:href="#DejaVuSans-4d" x="268.900391"/>
       <use xlink:href="#DejaVuSans-50" x="355.179688"/>
       <use xlink:href="#DejaVuSans-48" x="415.482422"/>
       <use xlink:href="#DejaVuSans-31" x="490.677734"/>
       <use xlink:href="#DejaVuSans-5f" x="554.300781"/>
       <use xlink:href="#DejaVuSans-30" x="604.300781"/>
       <use xlink:href="#DejaVuSans-31" x="667.923828"/>
       <use xlink:href="#DejaVuSans-54" x="731.546875"/>
       <use xlink:href="#DejaVuSans-30" x="792.630859"/>
       <use xlink:href="#DejaVuSans-34" x="856.253906"/>
       <use xlink:href="#DejaVuSans-30" x="919.876953"/>
       <use xlink:href="#DejaVuSans-36" x="983.5"/>
       <use xlink:href="#DejaVuSans-39" x="1047.123047"/>
      </g>
     </g>
    </g>
    <g id="ytick_3">
     <g id="line2d_8">
      <g>
       <use xlink:href="#m224e99b3dd" x="129.6" y="110.16" style="stroke: #000000; stroke-width: 0.8"/>
      </g>
     </g>
     <g id="text_9">
      <!-- FGRAMPH1_01T04033 -->
      <g transform="translate(11.525 113.870937) scale(0.1 -0.1)">
       <defs>
        <path id="DejaVuSans-33" d="M 2597 2516 
Q 3050 2419 3304 2112 
Q 3559 1806 3559 1356 
Q 3559 666 3084 287 
Q 2609 -91 1734 -91 
Q 1441 -91 1130 -33 
Q 819 25 488 141 
L 488 750 
Q 750 597 1062 519 
Q 1375 441 1716 441 
Q 2309 441 2620 675 
Q 2931 909 2931 1356 
Q 2931 1769 2642 2001 
Q 2353 2234 1838 2234 
L 1294 2234 
L 1294 2753 
L 1863 2753 
Q 2328 2753 2575 2939 
Q 2822 3125 2822 3475 
Q 2822 3834 2567 4026 
Q 2313 4219 1838 4219 
Q 1578 4219 1281 4162 
Q 984 4106 628 3988 
L 628 4550 
Q 988 4650 1302 4700 
Q 1616 4750 1894 4750 
Q 2613 4750 3031 4423 
Q 3450 4097 3450 3541 
Q 3450 3153 3228 2886 
Q 3006 2619 2597 2516 
z
" transform="scale(0.015625)"/>
       </defs>
       <use xlink:href="#DejaVuSans-46"/>
       <use xlink:href="#DejaVuSans-47" x="57.519531"/>
       <use xlink:href="#DejaVuSans-52" x="135.009766"/>
       <use xlink:href="#DejaVuSans-41" x="200.492188"/>
       <use xlink:href="#DejaVuSans-4d" x="268.900391"/>
       <use xlink:href="#DejaVuSans-50" x="355.179688"/>
       <use xlink:href="#DejaVuSans-48" x="415.482422"/>
       <use xlink:href="#DejaVuSans-31" x="490.677734"/>
       <use xlink:href="#DejaVuSans-5f" x="554.300781"/>
       <use xlink:href="#DejaVuSans-30" x="604.300781"/>
       <use xlink:href="#DejaVuSans-31" x="667.923828"/>
       <use xlink:href="#DejaVuSans-54" x="731.546875"/>
       <use xlink:href="#DejaVuSans-30" x="792.630859"/>
       <use xlink:href="#DejaVuSans-34" x="856.253906"/>
       <use xlink:href="#DejaVuSans-30" x="919.876953"/>
       <use xlink:href="#DejaVuSans-33" x="983.5"/>
       <use xlink:href="#DejaVuSans-33" x="1047.123047"/>
      </g>
     </g>
    </g>
    <g id="ytick_4">
     <g id="line2d_9">
      <g>
       <use xlink:href="#m224e99b3dd" x="129.6" y="131.76" style="stroke: #000000; stroke-width: 0.8"/>
      </g>
     </g>
     <g id="text_10">
      <!-- FGRAMPH1_01T05421 -->
      <g transform="translate(11.525 135.470937) scale(0.1 -0.1)">
       <use xlink:href="#DejaVuSans-46"/>
       <use xlink:href="#DejaVuSans-47" x="57.519531"/>
       <use xlink:href="#DejaVuSans-52" x="135.009766"/>
       <use xlink:href="#DejaVuSans-41" x="200.492188"/>
       <use xlink:href="#DejaVuSans-4d" x="268.900391"/>
       <use xlink:href="#DejaVuSans-50" x="355.179688"/>
       <use xlink:href="#DejaVuSans-48" x="415.482422"/>
       <use xlink:href="#DejaVuSans-31" x="490.677734"/>
       <use xlink:href="#DejaVuSans-5f" x="554.300781"/>
       <use xlink:href="#DejaVuSans-30" x="604.300781"/>
       <use xlink:href="#DejaVuSans-31" x="667.923828"/>
       <use xlink:href="#DejaVuSans-54" x="731.546875"/>
       <use xlink:href="#DejaVuSans-30" x="792.630859"/>
       <use xlink:href="#DejaVuSans-35" x="856.253906"/>
       <use xlink:href="#DejaVuSans-34" x="919.876953"/>
       <use xlink:href="#DejaVuSans-32" x="983.5"/>
       <use xlink:href="#DejaVuSans-31" x="1047.123047"/>
      </g>
     </g>
    </g>
    <g id="ytick_5">
     <g id="line2d_10">
      <g>
       <use xlink:href="#m224e99b3dd" x="129.6" y="153.36" style="stroke: #000000; stroke-width: 0.8"/>
      </g>
     </g>
     <g id="text_11">
      <!-- FGRAMPH1_01T08385 -->
      <g transform="translate(11.525 157.070938) scale(0.1 -0.1)">
       <use xlink:href="#DejaVuSans-46"/>
       <use xlink:href="#DejaVuSans-47" x="57.519531"/>
       <use xlink:href="#DejaVuSans-52" x="135.009766"/>
       <use xlink:href="#DejaVuSans-41" x="200.492188"/>
       <use xlink:href="#DejaVuSans-4d" x="268.900391"/>
       <use xlink:href="#DejaVuSans-50" x="355.179688"/>
       <use xlink:href="#DejaVuSans-48" x="415.482422"/>
       <use xlink:href="#DejaVuSans-31" x="490.677734"/>
       <use xlink:href="#DejaVuSans-5f" x="554.300781"/>
       <use xlink:href="#DejaVuSans-30" x="604.300781"/>
       <use xlink:href="#DejaVuSans-31" x="667.923828"/>
       <use xlink:href="#DejaVuSans-54" x="731.546875"/>
       <use xlink:href="#DejaVuSans-30" x="792.630859"/>
       <use xlink:href="#DejaVuSans-38" x="856.253906"/>
       <use xlink:href="#DejaVuSans-33" x="919.876953"/>
       <use xlink:href="#DejaVuSans-38" x="983.5"/>
       <use xlink:href="#DejaVuSans-35" x="1047.123047"/>
      </g>
     </g>
    </g>
    <g id="ytick_6">
     <g id="line2d_11">
      <g>
       <use xlink:href="#m224e99b3dd" x="129.6" y="174.96" style="stroke: #000000; stroke-width: 0.8"/>
      </g>
     </g>
     <g id="text_12">
      <!-- FGRAMPH1_01T05437 -->
      <g transform="translate(11.525 178.670938) scale(0.1 -0.1)">
       <use xlink:href="#DejaVuSans-46"/>
       <use xlink:href="#DejaVuSans-47" x="57.519531"/>
       <use xlink:href="#DejaVuSans-52" x="135.009766"/>
       <use xlink:href="#DejaVuSans-41" x="200.492188"/>
       <use xlink:href="#DejaVuSans-4d" x="268.900391"/>
       <use xlink:href="#DejaVuSans-50" x="355.179688"/>
       <use xlink:href="#DejaVuSans-48" x="415.482422"/>
       <use xlink:href="#DejaVuSans-31" x="490.677734"/>
       <use xlink:href="#DejaVuSans-5f" x="554.300781"/>
       <use xlink:href="#DejaVuSans-30" x="604.300781"/>
       <use xlink:href="#DejaVuSans-31" x="667.923828"/>
       <use xlink:href="#DejaVuSans-54" x="731.546875"/>
       <use xlink:href="#DejaVuSans-30" x="792.630859"/>
       <use xlink:href="#DejaVuSans-35" x="856.253906"/>
       <use xlink:href="#DejaVuSans-34" x="919.876953"/>
       <use xlink:href="#DejaVuSans-33" x="983.5"/>
       <use xlink:href="#DejaVuSans-37" x="1047.123047"/>
      </g>
     </g>
    </g>
    <g id="ytick_7">
     <g id="line2d_12">
      <g>
       <use xlink:href="#m224e99b3dd" x="129.6" y="196.56" style="stroke: #000000; stroke-width: 0.8"/>
      </g>
     </g>
     <g id="text_13">
      <!-- FGRAMPH1_01T05589 -->
      <g transform="translate(11.525 200.270938) scale(0.1 -0.1)">
       <use xlink:href="#DejaVuSans-46"/>
       <use xlink:href="#DejaVuSans-47" x="57.519531"/>
       <use xlink:href="#DejaVuSans-52" x="135.009766"/>
       <use xlink:href="#DejaVuSans-41" x="200.492188"/>
       <use xlink:href="#DejaVuSans-4d" x="268.900391"/>
       <use xlink:href="#DejaVuSans-50" x="355.179688"/>
       <use xlink:href="#DejaVuSans-48" x="415.482422"/>
       <use xlink:href="#DejaVuSans-31" x="490.677734"/>
       <use xlink:href="#DejaVuSans-5f" x="554.300781"/>
       <use xlink:href="#DejaVuSans-30" x="604.300781"/>
       <use xlink:href="#DejaVuSans-31" x="667.923828"/>
       <use xlink:href="#DejaVuSans-54" x="731.546875"/>
       <use xlink:href="#DejaVuSans-30" x="792.630859"/>
       <use xlink:href="#DejaVuSans-35" x="856.253906"/>
       <use xlink:href="#DejaVuSans-35" x="919.876953"/>
       <use xlink:href="#DejaVuSans-38" x="983.5"/>
       <use xlink:href="#DejaVuSans-39" x="1047.123047"/>
      </g>
     </g>
    </g>
    <g id="ytick_8">
     <g id="line2d_13">
      <g>
       <use xlink:href="#m224e99b3dd" x="129.6" y="218.16" style="stroke: #000000; stroke-width: 0.8"/>
      </g>
     </g>
     <g id="text_14">
      <!-- FGRAMPH1_01T08369 -->
      <g transform="translate(11.525 221.870938) scale(0.1 -0.1)">
       <use xlink:href="#DejaVuSans-46"/>
       <use xlink:href="#DejaVuSans-47" x="57.519531"/>
       <use xlink:href="#DejaVuSans-52" x="135.009766"/>
       <use xlink:href="#DejaVuSans-41" x="200.492188"/>
       <use xlink:href="#DejaVuSans-4d" x="268.900391"/>
       <use xlink:href="#DejaVuSans-50" x="355.179688"/>
       <use xlink:href="#DejaVuSans-48" x="415.482422"/>
       <use xlink:href="#DejaVuSans-31" x="490.677734"/>
       <use xlink:href="#DejaVuSans-5f" x="554.300781"/>
       <use xlink:href="#DejaVuSans-30" x="604.300781"/>
       <use xlink:href="#DejaVuSans-31" x="667.923828"/>
       <use xlink:href="#DejaVuSans-54" x="731.546875"/>
       <use xlink:href="#DejaVuSans-30" x="792.630859"/>
       <use xlink:href="#DejaVuSans-38" x="856.253906"/>
       <use xlink:href="#DejaVuSans-33" x="919.876953"/>
       <use xlink:href="#DejaVuSans-36" x="983.5"/>
       <use xlink:href="#DejaVuSans-39" x="1047.123047"/>
      </g>
     </g>
    </g>
    <g id="ytick_9">
     <g id="line2d_14">
      <g>
       <use xlink:href="#m224e99b3dd" x="129.6" y="239.76" style="stroke: #000000; stroke-width: 0.8"/>
      </g>
     </g>
     <g id="text_15">
      <!-- FGRAMPH1_01T08397 -->
      <g transform="translate(11.525 243.470938) scale(0.1 -0.1)">
       <use xlink:href="#DejaVuSans-46"/>
       <use xlink:href="#DejaVuSans-47" x="57.519531"/>
       <use xlink:href="#DejaVuSans-52" x="135.009766"/>
       <use xlink:href="#DejaVuSans-41" x="200.492188"/>
       <use xlink:href="#DejaVuSans-4d" x="268.900391"/>
       <use xlink:href="#DejaVuSans-50" x="355.179688"/>
       <use xlink:href="#DejaVuSans-48" x="415.482422"/>
       <use xlink:href="#DejaVuSans-31" x="490.677734"/>
       <use xlink:href="#DejaVuSans-5f" x="554.300781"/>
       <use xlink:href="#DejaVuSans-30" x="604.300781"/>
       <use xlink:href="#DejaVuSans-31" x="667.923828"/>
       <use xlink:href="#DejaVuSans-54" x="731.546875"/>
       <use xlink:href="#DejaVuSans-30" x="792.630859"/>
       <use xlink:href="#DejaVuSans-38" x="856.253906"/>
       <use xlink:href="#DejaVuSans-33" x="919.876953"/>
       <use xlink:href="#DejaVuSans-39" x="983.5"/>
       <use xlink:href="#DejaVuSans-37" x="1047.123047"/>
      </g>
     </g>
    </g>
    <g id="ytick_10">
     <g id="line2d_15">
      <g>
       <use xlink:href="#m224e99b3dd" x="129.6" y="261.36" style="stroke: #000000; stroke-width: 0.8"/>
      </g>
     </g>
     <g id="text_16">
      <!-- FGRAMPH1_01T00133 -->
      <g transform="translate(11.525 265.070938) scale(0.1 -0.1)">
       <use xlink:href="#DejaVuSans-46"/>
       <use xlink:href="#DejaVuSans-47" x="57.519531"/>
       <use xlink:href="#DejaVuSans-52" x="135.009766"/>
       <use xlink:href="#DejaVuSans-41" x="200.492188"/>
       <use xlink:href="#DejaVuSans-4d" x="268.900391"/>
       <use xlink:href="#DejaVuSans-50" x="355.179688"/>
       <use xlink:href="#DejaVuSans-48" x="415.482422"/>
       <use xlink:href="#DejaVuSans-31" x="490.677734"/>
       <use xlink:href="#DejaVuSans-5f" x="554.300781"/>
       <use xlink:href="#DejaVuSans-30" x="604.300781"/>
       <use xlink:href="#DejaVuSans-31" x="667.923828"/>
       <use xlink:href="#DejaVuSans-54" x="731.546875"/>
       <use xlink:href="#DejaVuSans-30" x="792.630859"/>
       <use xlink:href="#DejaVuSans-30" x="856.253906"/>
       <use xlink:href="#DejaVuSans-31" x="919.876953"/>
       <use xlink:href="#DejaVuSans-33" x="983.5"/>
       <use xlink:href="#DejaVuSans-33" x="1047.123047"/>
      </g>
     </g>
    </g>
    <g id="ytick_11">
     <g id="line2d_16">
      <g>
       <use xlink:href="#m224e99b3dd" x="129.6" y="282.96" style="stroke: #000000; stroke-width: 0.8"/>
      </g>
     </g>
     <g id="text_17">
      <!-- FGRAMPH1_01T05769 -->
      <g transform="translate(11.525 286.670938) scale(0.1 -0.1)">
       <use xlink:href="#DejaVuSans-46"/>
       <use xlink:href="#DejaVuSans-47" x="57.519531"/>
       <use xlink:href="#DejaVuSans-52" x="135.009766"/>
       <use xlink:href="#DejaVuSans-41" x="200.492188"/>
       <use xlink:href="#DejaVuSans-4d" x="268.900391"/>
       <use xlink:href="#DejaVuSans-50" x="355.179688"/>
       <use xlink:href="#DejaVuSans-48" x="415.482422"/>
       <use xlink:href="#DejaVuSans-31" x="490.677734"/>
       <use xlink:href="#DejaVuSans-5f" x="554.300781"/>
       <use xlink:href="#DejaVuSans-30" x="604.300781"/>
       <use xlink:href="#DejaVuSans-31" x="667.923828"/>
       <use xlink:href="#DejaVuSans-54" x="731.546875"/>
       <use xlink:href="#DejaVuSans-30" x="792.630859"/>
       <use xlink:href="#DejaVuSans-35" x="856.253906"/>
       <use xlink:href="#DejaVuSans-37" x="919.876953"/>
       <use xlink:href="#DejaVuSans-36" x="983.5"/>
       <use xlink:href="#DejaVuSans-39" x="1047.123047"/>
      </g>
     </g>
    </g>
    <g id="ytick_12">
     <g id="line2d_17">
      <g>
       <use xlink:href="#m224e99b3dd" x="129.6" y="304.56" style="stroke: #000000; stroke-width: 0.8"/>
      </g>
     </g>
     <g id="text_18">
      <!-- FGRAMPH1_01T08371 -->
      <g transform="translate(11.525 308.270938) scale(0.1 -0.1)">
       <use xlink:href="#DejaVuSans-46"/>
       <use xlink:href="#DejaVuSans-47" x="57.519531"/>
       <use xlink:href="#DejaVuSans-52" x="135.009766"/>
       <use xlink:href="#DejaVuSans-41" x="200.492188"/>
       <use xlink:href="#DejaVuSans-4d" x="268.900391"/>
       <use xlink:href="#DejaVuSans-50" x="355.179688"/>
       <use xlink:href="#DejaVuSans-48" x="415.482422"/>
       <use xlink:href="#DejaVuSans-31" x="490.677734"/>
       <use xlink:href="#DejaVuSans-5f" x="554.300781"/>
       <use xlink:href="#DejaVuSans-30" x="604.300781"/>
       <use xlink:href="#DejaVuSans-31" x="667.923828"/>
       <use xlink:href="#DejaVuSans-54" x="731.546875"/>
       <use xlink:href="#DejaVuSans-30" x="792.630859"/>
       <use xlink:href="#DejaVuSans-38" x="856.253906"/>
       <use xlink:href="#DejaVuSans-33" x="919.876953"/>
       <use xlink:href="#DejaVuSans-37" x="983.5"/>
       <use xlink:href="#DejaVuSans-31" x="1047.123047"/>
      </g>
     </g>
    </g>
    <g id="ytick_13">
     <g id="line2d_18">
      <g>
       <use xlink:href="#m224e99b3dd" x="129.6" y="326.16" style="stroke: #000000; stroke-width: 0.8"/>
      </g>
     </g>
     <g id="text_19">
      <!-- FGRAMPH1_01T00131 -->
      <g transform="translate(11.525 329.870938) scale(0.1 -0.1)">
       <use xlink:href="#DejaVuSans-46"/>
       <use xlink:href="#DejaVuSans-47" x="57.519531"/>
       <use xlink:href="#DejaVuSans-52" x="135.009766"/>
       <use xlink:href="#DejaVuSans-41" x="200.492188"/>
       <use xlink:href="#DejaVuSans-4d" x="268.900391"/>
       <use xlink:href="#DejaVuSans-50" x="355.179688"/>
       <use xlink:href="#DejaVuSans-48" x="415.482422"/>
       <use xlink:href="#DejaVuSans-31" x="490.677734"/>
       <use xlink:href="#DejaVuSans-5f" x="554.300781"/>
       <use xlink:href="#DejaVuSans-30" x="604.300781"/>
       <use xlink:href="#DejaVuSans-31" x="667.923828"/>
       <use xlink:href="#DejaVuSans-54" x="731.546875"/>
       <use xlink:href="#DejaVuSans-30" x="792.630859"/>
       <use xlink:href="#DejaVuSans-30" x="856.253906"/>
       <use xlink:href="#DejaVuSans-31" x="919.876953"/>
       <use xlink:href="#DejaVuSans-33" x="983.5"/>
       <use xlink:href="#DejaVuSans-31" x="1047.123047"/>
      </g>
     </g>
    </g>
    <g id="ytick_14">
     <g id="line2d_19">
      <g>
       <use xlink:href="#m224e99b3dd" x="129.6" y="347.76" style="stroke: #000000; stroke-width: 0.8"/>
      </g>
     </g>
     <g id="text_20">
      <!-- FGRAMPH1_01T08357 -->
      <g transform="translate(11.525 351.470938) scale(0.1 -0.1)">
       <use xlink:href="#DejaVuSans-46"/>
       <use xlink:href="#DejaVuSans-47" x="57.519531"/>
       <use xlink:href="#DejaVuSans-52" x="135.009766"/>
       <use xlink:href="#DejaVuSans-41" x="200.492188"/>
       <use xlink:href="#DejaVuSans-4d" x="268.900391"/>
       <use xlink:href="#DejaVuSans-50" x="355.179688"/>
       <use xlink:href="#DejaVuSans-48" x="415.482422"/>
       <use xlink:href="#DejaVuSans-31" x="490.677734"/>
       <use xlink:href="#DejaVuSans-5f" x="554.300781"/>
       <use xlink:href="#DejaVuSans-30" x="604.300781"/>
       <use xlink:href="#DejaVuSans-31" x="667.923828"/>
       <use xlink:href="#DejaVuSans-54" x="731.546875"/>
       <use xlink:href="#DejaVuSans-30" x="792.630859"/>
       <use xlink:href="#DejaVuSans-38" x="856.253906"/>
       <use xlink:href="#DejaVuSans-33" x="919.876953"/>
       <use xlink:href="#DejaVuSans-35" x="983.5"/>
       <use xlink:href="#DejaVuSans-37" x="1047.123047"/>
      </g>
     </g>
    </g>
    <g id="ytick_15">
     <g id="line2d_20">
      <g>
       <use xlink:href="#m224e99b3dd" x="129.6" y="369.36" style="stroke: #000000; stroke-width: 0.8"/>
      </g>
     </g>
     <g id="text_21">
      <!-- FGRAMPH1_01T00137 -->
      <g transform="translate(11.525 373.070938) scale(0.1 -0.1)">
       <use xlink:href="#DejaVuSans-46"/>
       <use xlink:href="#DejaVuSans-47" x="57.519531"/>
       <use xlink:href="#DejaVuSans-52" x="135.009766"/>
       <use xlink:href="#DejaVuSans-41" x="200.492188"/>
       <use xlink:href="#DejaVuSans-4d" x="268.900391"/>
       <use xlink:href="#DejaVuSans-50" x="355.179688"/>
       <use xlink:href="#DejaVuSans-48" x="415.482422"/>
       <use xlink:href="#DejaVuSans-31" x="490.677734"/>
       <use xlink:href="#DejaVuSans-5f" x="554.300781"/>
       <use xlink:href="#DejaVuSans-30" x="604.300781"/>
       <use xlink:href="#DejaVuSans-31" x="667.923828"/>
       <use xlink:href="#DejaVuSans-54" x="731.546875"/>
       <use xlink:href="#DejaVuSans-30" x="792.630859"/>
       <use xlink:href="#DejaVuSans-30" x="856.253906"/>
       <use xlink:href="#DejaVuSans-31" x="919.876953"/>
       <use xlink:href="#DejaVuSans-33" x="983.5"/>
       <use xlink:href="#DejaVuSans-37" x="1047.123047"/>
      </g>
     </g>
    </g>
    <g id="text_22">
     <!--   -->
     <g transform="translate(5.445312 219.749062) rotate(-90) scale(0.1 -0.1)">
      <defs>
       <path id="DejaVuSans-20" transform="scale(0.015625)"/>
      </defs>
      <use xlink:href="#DejaVuSans-20"/>
     </g>
    </g>
   </g>
   <g id="patch_3">
    <path d="M 129.6 384.48 
L 129.6 51.84 
" style="fill: none; stroke: #000000; stroke-width: 0.8; stroke-linejoin: miter; stroke-linecap: square"/>
   </g>
   <g id="patch_4">
    <path d="M 388.8 384.48 
L 388.8 51.84 
" style="fill: none; stroke: #000000; stroke-width: 0.8; stroke-linejoin: miter; stroke-linecap: square"/>
   </g>
   <g id="patch_5">
    <path d="M 129.6 384.48 
L 388.8 384.48 
" style="fill: none; stroke: #000000; stroke-width: 0.8; stroke-linejoin: miter; stroke-linecap: square"/>
   </g>
   <g id="patch_6">
    <path d="M 129.6 51.84 
L 388.8 51.84 
" style="fill: none; stroke: #000000; stroke-width: 0.8; stroke-linejoin: miter; stroke-linecap: square"/>
   </g>
  </g>
 </g>
 <defs>
  <clipPath id="p4fa86493c2">
   <rect x="129.6" y="51.84" width="259.2" height="332.64"/>
  </clipPath>
 </defs>
</svg>
