<?xml version="1.0" encoding="utf-8" standalone="no"?>
<!DOCTYPE svg PUBLIC "-//W3C//DTD SVG 1.1//EN"
  "http://www.w3.org/Graphics/SVG/1.1/DTD/svg11.dtd">
<svg xmlns:xlink="http://www.w3.org/1999/xlink" width="432pt" height="576pt" viewBox="0 0 432 576" xmlns="http://www.w3.org/2000/svg" version="1.1">
 <metadata>
  <rdf:RDF xmlns:dc="http://purl.org/dc/elements/1.1/" xmlns:cc="http://creativecommons.org/ns#" xmlns:rdf="http://www.w3.org/1999/02/22-rdf-syntax-ns#">
   <cc:Work>
    <dc:type rdf:resource="http://purl.org/dc/dcmitype/StillImage"/>
    <dc:date>2023-07-31T06:19:45.067503</dc:date>
    <dc:format>image/svg+xml</dc:format>
    <dc:creator>
     <cc:Agent>
      <dc:title>Matplotlib v3.7.2, https://matplotlib.org/</dc:title>
     </cc:Agent>
    </dc:creator>
   </cc:Work>
  </rdf:RDF>
 </metadata>
 <defs>
  <style type="text/css">*{stroke-linejoin: round; stroke-linecap: butt}</style>
 </defs>
 <g id="figure_1">
  <g id="patch_1">
   <path d="M 0 576 
L 432 576 
L 432 0 
L 0 0 
z
" style="fill: #ffffff"/>
  </g>
  <g id="axes_1">
   <g id="patch_2">
    <path d="M 54 512.64 
L 388.8 512.64 
L 388.8 69.12 
L 54 69.12 
z
" style="fill: #ffffff"/>
   </g>
   <g id="PathCollection_1">
    <defs>
     <path id="C0_0_16b6ef9bb9" d="M 0 5 
C 1.326016 5 2.597899 4.473168 3.535534 3.535534 
C 4.473168 2.597899 5 1.326016 5 -0 
C 5 -1.326016 4.473168 -2.597899 3.535534 -3.535534 
C 2.597899 -4.473168 1.326016 -5 0 -5 
C -1.326016 -5 -2.597899 -4.473168 -3.535534 -3.535534 
C -4.473168 -2.597899 -5 -1.326016 -5 0 
C -5 1.326016 -4.473168 2.597899 -3.535534 3.535534 
C -2.597899 4.473168 -1.326016 5 0 5 
z
"/>
    </defs>
    <g clip-path="url(#p64e3a95a25)">
     <use xlink:href="#C0_0_16b6ef9bb9" x="104.573513" y="310.870842" style="fill: #a6cee3; fill-opacity: 0.7; stroke: #ffffff; stroke-opacity: 0.7; stroke-width: 0.8"/>
    </g>
    <g clip-path="url(#p64e3a95a25)">
     <use xlink:href="#C0_0_16b6ef9bb9" x="69.218182" y="492.48" style="fill: #a6cee3; fill-opacity: 0.7; stroke: #ffffff; stroke-opacity: 0.7; stroke-width: 0.8"/>
    </g>
    <g clip-path="url(#p64e3a95a25)">
     <use xlink:href="#C0_0_16b6ef9bb9" x="162.221224" y="449.787112" style="fill: #a6cee3; fill-opacity: 0.7; stroke: #ffffff; stroke-opacity: 0.7; stroke-width: 0.8"/>
    </g>
    <g clip-path="url(#p64e3a95a25)">
     <use xlink:href="#C0_0_16b6ef9bb9" x="124.908234" y="355.852893" style="fill: #1f78b4; fill-opacity: 0.7; stroke: #ffffff; stroke-opacity: 0.7; stroke-width: 0.8"/>
    </g>
    <g clip-path="url(#p64e3a95a25)">
     <use xlink:href="#C0_0_16b6ef9bb9" x="174.408968" y="262.903776" style="fill: #1f78b4; fill-opacity: 0.7; stroke: #ffffff; stroke-opacity: 0.7; stroke-width: 0.8"/>
    </g>
    <g clip-path="url(#p64e3a95a25)">
     <use xlink:href="#C0_0_16b6ef9bb9" x="213.279537" y="370.538826" style="fill: #1f78b4; fill-opacity: 0.7; stroke: #ffffff; stroke-opacity: 0.7; stroke-width: 0.8"/>
    </g>
    <g clip-path="url(#p64e3a95a25)">
     <use xlink:href="#C0_0_16b6ef9bb9" x="210.123659" y="311.927869" style="fill: #b2df8a; fill-opacity: 0.7; stroke: #ffffff; stroke-opacity: 0.7; stroke-width: 0.8"/>
    </g>
    <g clip-path="url(#p64e3a95a25)">
     <use xlink:href="#C0_0_16b6ef9bb9" x="163.247594" y="148.881306" style="fill: #b2df8a; fill-opacity: 0.7; stroke: #ffffff; stroke-opacity: 0.7; stroke-width: 0.8"/>
    </g>
    <g clip-path="url(#p64e3a95a25)">
     <use xlink:href="#C0_0_16b6ef9bb9" x="230.547624" y="169.880248" style="fill: #b2df8a; fill-opacity: 0.7; stroke: #ffffff; stroke-opacity: 0.7; stroke-width: 0.8"/>
    </g>
    <g clip-path="url(#p64e3a95a25)">
     <use xlink:href="#C0_0_16b6ef9bb9" x="272.324409" y="395.21671" style="fill: #33a02c; fill-opacity: 0.7; stroke: #ffffff; stroke-opacity: 0.7; stroke-width: 0.8"/>
    </g>
    <g clip-path="url(#p64e3a95a25)">
     <use xlink:href="#C0_0_16b6ef9bb9" x="245.418205" y="361.972279" style="fill: #33a02c; fill-opacity: 0.7; stroke: #ffffff; stroke-opacity: 0.7; stroke-width: 0.8"/>
    </g>
    <g clip-path="url(#p64e3a95a25)">
     <use xlink:href="#C0_0_16b6ef9bb9" x="314.716607" y="434.003766" style="fill: #33a02c; fill-opacity: 0.7; stroke: #ffffff; stroke-opacity: 0.7; stroke-width: 0.8"/>
    </g>
    <g clip-path="url(#p64e3a95a25)">
     <use xlink:href="#C0_0_16b6ef9bb9" x="272.377571" y="320.583806" style="fill: #fb9a99; fill-opacity: 0.7; stroke: #ffffff; stroke-opacity: 0.7; stroke-width: 0.8"/>
    </g>
    <g clip-path="url(#p64e3a95a25)">
     <use xlink:href="#C0_0_16b6ef9bb9" x="151.467855" y="400.788926" style="fill: #fb9a99; fill-opacity: 0.7; stroke: #ffffff; stroke-opacity: 0.7; stroke-width: 0.8"/>
    </g>
    <g clip-path="url(#p64e3a95a25)">
     <use xlink:href="#C0_0_16b6ef9bb9" x="151.072364" y="233.713321" style="fill: #fb9a99; fill-opacity: 0.7; stroke: #ffffff; stroke-opacity: 0.7; stroke-width: 0.8"/>
    </g>
    <g clip-path="url(#p64e3a95a25)">
     <use xlink:href="#C0_0_16b6ef9bb9" x="149.010821" y="245.268705" style="fill: #e31a1c; fill-opacity: 0.7; stroke: #ffffff; stroke-opacity: 0.7; stroke-width: 0.8"/>
    </g>
    <g clip-path="url(#p64e3a95a25)">
     <use xlink:href="#C0_0_16b6ef9bb9" x="255.834169" y="464.592245" style="fill: #e31a1c; fill-opacity: 0.7; stroke: #ffffff; stroke-opacity: 0.7; stroke-width: 0.8"/>
    </g>
    <g clip-path="url(#p64e3a95a25)">
     <use xlink:href="#C0_0_16b6ef9bb9" x="163.684498" y="122.049013" style="fill: #e31a1c; fill-opacity: 0.7; stroke: #ffffff; stroke-opacity: 0.7; stroke-width: 0.8"/>
    </g>
    <g clip-path="url(#p64e3a95a25)">
     <use xlink:href="#C0_0_16b6ef9bb9" x="165.592817" y="247.340714" style="fill: #fdbf6f; fill-opacity: 0.7; stroke: #ffffff; stroke-opacity: 0.7; stroke-width: 0.8"/>
    </g>
    <g clip-path="url(#p64e3a95a25)">
     <use xlink:href="#C0_0_16b6ef9bb9" x="177.727253" y="238.015427" style="fill: #fdbf6f; fill-opacity: 0.7; stroke: #ffffff; stroke-opacity: 0.7; stroke-width: 0.8"/>
    </g>
    <g clip-path="url(#p64e3a95a25)">
     <use xlink:href="#C0_0_16b6ef9bb9" x="373.581818" y="441.553883" style="fill: #fdbf6f; fill-opacity: 0.7; stroke: #ffffff; stroke-opacity: 0.7; stroke-width: 0.8"/>
    </g>
    <g clip-path="url(#p64e3a95a25)">
     <use xlink:href="#C0_0_16b6ef9bb9" x="239.588421" y="292.844521" style="fill: #ff7f00; fill-opacity: 0.7; stroke: #ffffff; stroke-opacity: 0.7; stroke-width: 0.8"/>
    </g>
    <g clip-path="url(#p64e3a95a25)">
     <use xlink:href="#C0_0_16b6ef9bb9" x="187.588913" y="204.964428" style="fill: #ff7f00; fill-opacity: 0.7; stroke: #ffffff; stroke-opacity: 0.7; stroke-width: 0.8"/>
    </g>
    <g clip-path="url(#p64e3a95a25)">
     <use xlink:href="#C0_0_16b6ef9bb9" x="77.593417" y="410.985926" style="fill: #ff7f00; fill-opacity: 0.7; stroke: #ffffff; stroke-opacity: 0.7; stroke-width: 0.8"/>
    </g>
    <g clip-path="url(#p64e3a95a25)">
     <use xlink:href="#C0_0_16b6ef9bb9" x="229.164221" y="130.605172" style="fill: #cab2d6; fill-opacity: 0.7; stroke: #ffffff; stroke-opacity: 0.7; stroke-width: 0.8"/>
    </g>
    <g clip-path="url(#p64e3a95a25)">
     <use xlink:href="#C0_0_16b6ef9bb9" x="286.98838" y="89.28" style="fill: #cab2d6; fill-opacity: 0.7; stroke: #ffffff; stroke-opacity: 0.7; stroke-width: 0.8"/>
    </g>
    <g clip-path="url(#p64e3a95a25)">
     <use xlink:href="#C0_0_16b6ef9bb9" x="279.563323" y="267.84904" style="fill: #cab2d6; fill-opacity: 0.7; stroke: #ffffff; stroke-opacity: 0.7; stroke-width: 0.8"/>
    </g>
   </g>
   <g id="PathCollection_2"/>
   <g id="PathCollection_3"/>
   <g id="PathCollection_4"/>
   <g id="PathCollection_5"/>
   <g id="PathCollection_6"/>
   <g id="PathCollection_7"/>
   <g id="PathCollection_8"/>
   <g id="PathCollection_9"/>
   <g id="PathCollection_10"/>
   <g id="patch_3">
    <path d="M 220.997205 382.521739 
C 227.047982 382.521739 232.851748 376.471816 237.130293 365.704396 
C 241.408838 354.936976 243.812837 340.33117 243.812837 325.103739 
C 243.812837 309.876307 241.408838 295.270502 237.130293 284.503081 
C 232.851748 273.735661 227.047982 267.685738 220.997205 267.685738 
C 214.946429 267.685738 209.142663 273.735661 204.864118 284.503081 
C 200.585573 295.270502 198.181574 309.876307 198.181574 325.103739 
C 198.181574 340.33117 200.585573 354.936976 204.864118 365.704396 
C 209.142663 376.471816 214.946429 382.521739 220.997205 382.521739 
z
" clip-path="url(#p64e3a95a25)" style="fill: #1f77b4; opacity: 0.1"/>
   </g>
   <g id="patch_4">
    <path d="M 135.792707 467.953946 
C 145.132535 467.953946 154.091085 458.615435 160.695341 441.995112 
C 167.299597 425.374789 171.01035 402.82963 171.01035 379.324943 
C 171.01035 355.820257 167.299597 333.275097 160.695341 316.654774 
C 154.091085 300.034451 145.132535 290.69594 135.792707 290.69594 
C 126.452879 290.69594 117.494328 300.034451 110.890072 316.654774 
C 104.285817 333.275097 100.575064 355.820257 100.575064 379.324943 
C 100.575064 402.82963 104.285817 425.374789 110.890072 441.995112 
C 117.494328 458.615435 126.452879 467.953946 135.792707 467.953946 
z
" clip-path="url(#p64e3a95a25)" style="fill: #1f77b4; opacity: 0.1"/>
   </g>
   <g id="patch_5">
    <path d="M 344.149212 542.66605 
C 355.202351 542.66605 365.80427 531.61447 373.620019 511.945293 
C 381.435769 492.276116 385.827227 465.595242 385.827227 437.778825 
C 385.827227 409.962407 381.435769 383.281534 373.620019 363.612356 
C 365.80427 343.943179 355.202351 332.891599 344.149212 332.891599 
C 333.096074 332.891599 322.494155 343.943179 314.678406 363.612356 
C 306.862656 383.281534 302.471198 409.962407 302.471198 437.778825 
C 302.471198 465.595242 306.862656 492.276116 314.678406 511.945293 
C 322.494155 531.61447 333.096074 542.66605 344.149212 542.66605 
z
" clip-path="url(#p64e3a95a25)" style="fill: #1f77b4; opacity: 0.1"/>
   </g>
   <g id="patch_6">
    <path d="M 166.541654 273.592291 
C 172.938312 273.592291 179.073842 267.196535 183.596962 255.813613 
C 188.120083 244.430691 190.661503 228.989969 190.661503 212.892086 
C 190.661503 196.794204 188.120083 181.353482 183.596962 169.97056 
C 179.073842 158.587638 172.938312 152.191882 166.541654 152.191882 
C 160.144995 152.191882 154.009466 158.587638 149.486345 169.97056 
C 144.963224 181.353482 142.421805 196.794204 142.421805 212.892086 
C 142.421805 228.989969 144.963224 244.430691 149.486345 255.813613 
C 154.009466 267.196535 160.144995 273.592291 166.541654 273.592291 
z
" clip-path="url(#p64e3a95a25)" style="fill: #1f77b4; opacity: 0.1"/>
   </g>
   <g id="patch_7">
    <path d="M 248.900075 222.216858 
C 258.626235 222.216858 267.955347 212.492069 274.832781 195.184263 
C 281.710215 177.876457 285.57446 154.39874 285.57446 129.921806 
C 285.57446 105.444873 281.710215 81.967156 274.832781 64.65935 
C 267.955347 47.351544 258.626235 37.626755 248.900075 37.626755 
C 239.173914 37.626755 229.844802 47.351544 222.967368 64.65935 
C 216.089934 81.967156 212.22569 105.444873 212.22569 129.921806 
C 212.22569 154.39874 216.089934 177.876457 222.967368 195.184263 
C 229.844802 212.492069 239.173914 222.216858 248.900075 222.216858 
z
" clip-path="url(#p64e3a95a25)" style="fill: #1f77b4; opacity: 0.1"/>
   </g>
   <g id="patch_8">
    <path d="M 265.103535 444.499097 
C 273.792875 444.499097 282.127491 435.810983 288.271782 420.348212 
C 294.416073 404.88544 297.868384 383.910477 297.868384 362.042816 
C 297.868384 340.175155 294.416073 319.200192 288.271782 303.73742 
C 282.127491 288.274649 273.792875 279.586535 265.103535 279.586535 
C 256.414196 279.586535 248.079579 288.274649 241.935288 303.73742 
C 235.790997 319.200192 232.338686 340.175155 232.338686 362.042816 
C 232.338686 383.910477 235.790997 404.88544 241.935288 420.348212 
C 248.079579 435.810983 256.414196 444.499097 265.103535 444.499097 
z
" clip-path="url(#p64e3a95a25)" style="fill: #1f77b4; opacity: 0.1"/>
   </g>
   <g id="patch_9">
    <path d="M 73.405799 511.254101 
C 79.678207 511.254101 85.694557 504.982578 90.129818 493.820763 
C 94.56508 482.658948 97.057134 467.518153 97.057134 451.732963 
C 97.057134 435.947773 94.56508 420.806978 90.129818 409.645163 
C 85.694557 398.483348 79.678207 392.211825 73.405799 392.211825 
C 67.133392 392.211825 61.117042 398.483348 56.68178 409.645163 
C 52.246519 420.806978 49.754465 435.947773 49.754465 451.732963 
C 49.754465 467.518153 52.246519 482.658948 56.68178 493.820763 
C 61.117042 504.982578 67.133392 511.254101 73.405799 511.254101 
z
" clip-path="url(#p64e3a95a25)" style="fill: #1f77b4; opacity: 0.1"/>
   </g>
   <g id="matplotlib.axis_1">
    <g id="text_1">
     <!-- PC1 -->
     <g transform="translate(211.7125 524.238438) scale(0.1 -0.1)">
      <defs>
       <path id="DejaVuSans-50" d="M 1259 4147 
L 1259 2394 
L 2053 2394 
Q 2494 2394 2734 2622 
Q 2975 2850 2975 3272 
Q 2975 3691 2734 3919 
Q 2494 4147 2053 4147 
L 1259 4147 
z
M 628 4666 
L 2053 4666 
Q 2838 4666 3239 4311 
Q 3641 3956 3641 3272 
Q 3641 2581 3239 2228 
Q 2838 1875 2053 1875 
L 1259 1875 
L 1259 0 
L 628 0 
L 628 4666 
z
" transform="scale(0.015625)"/>
       <path id="DejaVuSans-43" d="M 4122 4306 
L 4122 3641 
Q 3803 3938 3442 4084 
Q 3081 4231 2675 4231 
Q 1875 4231 1450 3742 
Q 1025 3253 1025 2328 
Q 1025 1406 1450 917 
Q 1875 428 2675 428 
Q 3081 428 3442 575 
Q 3803 722 4122 1019 
L 4122 359 
Q 3791 134 3420 21 
Q 3050 -91 2638 -91 
Q 1578 -91 968 557 
Q 359 1206 359 2328 
Q 359 3453 968 4101 
Q 1578 4750 2638 4750 
Q 3056 4750 3426 4639 
Q 3797 4528 4122 4306 
z
" transform="scale(0.015625)"/>
       <path id="DejaVuSans-31" d="M 794 531 
L 1825 531 
L 1825 4091 
L 703 3866 
L 703 4441 
L 1819 4666 
L 2450 4666 
L 2450 531 
L 3481 531 
L 3481 0 
L 794 0 
L 794 531 
z
" transform="scale(0.015625)"/>
      </defs>
      <use xlink:href="#DejaVuSans-50"/>
      <use xlink:href="#DejaVuSans-43" x="60.302734"/>
      <use xlink:href="#DejaVuSans-31" x="130.126953"/>
     </g>
    </g>
   </g>
   <g id="matplotlib.axis_2">
    <g id="text_2">
     <!-- PC2 -->
     <g transform="translate(47.920313 300.5675) rotate(-90) scale(0.1 -0.1)">
      <defs>
       <path id="DejaVuSans-32" d="M 1228 531 
L 3431 531 
L 3431 0 
L 469 0 
L 469 531 
Q 828 903 1448 1529 
Q 2069 2156 2228 2338 
Q 2531 2678 2651 2914 
Q 2772 3150 2772 3378 
Q 2772 3750 2511 3984 
Q 2250 4219 1831 4219 
Q 1534 4219 1204 4116 
Q 875 4013 500 3803 
L 500 4441 
Q 881 4594 1212 4672 
Q 1544 4750 1819 4750 
Q 2544 4750 2975 4387 
Q 3406 4025 3406 3419 
Q 3406 3131 3298 2873 
Q 3191 2616 2906 2266 
Q 2828 2175 2409 1742 
Q 1991 1309 1228 531 
z
" transform="scale(0.015625)"/>
      </defs>
      <use xlink:href="#DejaVuSans-50"/>
      <use xlink:href="#DejaVuSans-43" x="60.302734"/>
      <use xlink:href="#DejaVuSans-32" x="130.126953"/>
     </g>
    </g>
   </g>
   <g id="patch_10">
    <path d="M 54 512.64 
L 54 69.12 
" style="fill: none; stroke: #000000; stroke-width: 0.8; stroke-linejoin: miter; stroke-linecap: square"/>
   </g>
   <g id="patch_11">
    <path d="M 388.8 512.64 
L 388.8 69.12 
" style="fill: none; stroke: #000000; stroke-width: 0.8; stroke-linejoin: miter; stroke-linecap: square"/>
   </g>
   <g id="patch_12">
    <path d="M 54 512.64 
L 388.8 512.64 
" style="fill: none; stroke: #000000; stroke-width: 0.8; stroke-linejoin: miter; stroke-linecap: square"/>
   </g>
   <g id="patch_13">
    <path d="M 54 69.12 
L 388.8 69.12 
" style="fill: none; stroke: #000000; stroke-width: 0.8; stroke-linejoin: miter; stroke-linecap: square"/>
   </g>
   <g id="text_3">
    <!-- Gcn5_1 -->
    <g style="fill: #808080" transform="translate(105.260826 307.520779) scale(0.1 -0.1)">
     <defs>
      <path id="DejaVuSans-47" d="M 3809 666 
L 3809 1919 
L 2778 1919 
L 2778 2438 
L 4434 2438 
L 4434 434 
Q 4069 175 3628 42 
Q 3188 -91 2688 -91 
Q 1594 -91 976 548 
Q 359 1188 359 2328 
Q 359 3472 976 4111 
Q 1594 4750 2688 4750 
Q 3144 4750 3555 4637 
Q 3966 4525 4313 4306 
L 4313 3634 
Q 3963 3931 3569 4081 
Q 3175 4231 2741 4231 
Q 1884 4231 1454 3753 
Q 1025 3275 1025 2328 
Q 1025 1384 1454 906 
Q 1884 428 2741 428 
Q 3075 428 3337 486 
Q 3600 544 3809 666 
z
" transform="scale(0.015625)"/>
      <path id="DejaVuSans-63" d="M 3122 3366 
L 3122 2828 
Q 2878 2963 2633 3030 
Q 2388 3097 2138 3097 
Q 1578 3097 1268 2742 
Q 959 2388 959 1747 
Q 959 1106 1268 751 
Q 1578 397 2138 397 
Q 2388 397 2633 464 
Q 2878 531 3122 666 
L 3122 134 
Q 2881 22 2623 -34 
Q 2366 -91 2075 -91 
Q 1284 -91 818 406 
Q 353 903 353 1747 
Q 353 2603 823 3093 
Q 1294 3584 2113 3584 
Q 2378 3584 2631 3529 
Q 2884 3475 3122 3366 
z
" transform="scale(0.015625)"/>
      <path id="DejaVuSans-6e" d="M 3513 2113 
L 3513 0 
L 2938 0 
L 2938 2094 
Q 2938 2591 2744 2837 
Q 2550 3084 2163 3084 
Q 1697 3084 1428 2787 
Q 1159 2491 1159 1978 
L 1159 0 
L 581 0 
L 581 3500 
L 1159 3500 
L 1159 2956 
Q 1366 3272 1645 3428 
Q 1925 3584 2291 3584 
Q 2894 3584 3203 3211 
Q 3513 2838 3513 2113 
z
" transform="scale(0.015625)"/>
      <path id="DejaVuSans-35" d="M 691 4666 
L 3169 4666 
L 3169 4134 
L 1269 4134 
L 1269 2991 
Q 1406 3038 1543 3061 
Q 1681 3084 1819 3084 
Q 2600 3084 3056 2656 
Q 3513 2228 3513 1497 
Q 3513 744 3044 326 
Q 2575 -91 1722 -91 
Q 1428 -91 1123 -41 
Q 819 9 494 109 
L 494 744 
Q 775 591 1075 516 
Q 1375 441 1709 441 
Q 2250 441 2565 725 
Q 2881 1009 2881 1497 
Q 2881 1984 2565 2268 
Q 2250 2553 1709 2553 
Q 1456 2553 1204 2497 
Q 953 2441 691 2322 
L 691 4666 
z
" transform="scale(0.015625)"/>
      <path id="DejaVuSans-5f" d="M 3263 -1063 
L 3263 -1509 
L -63 -1509 
L -63 -1063 
L 3263 -1063 
z
" transform="scale(0.015625)"/>
     </defs>
     <use xlink:href="#DejaVuSans-47"/>
     <use xlink:href="#DejaVuSans-63" x="77.490234"/>
     <use xlink:href="#DejaVuSans-6e" x="132.470703"/>
     <use xlink:href="#DejaVuSans-35" x="195.849609"/>
     <use xlink:href="#DejaVuSans-5f" x="259.472656"/>
     <use xlink:href="#DejaVuSans-31" x="309.472656"/>
    </g>
   </g>
   <g id="text_4">
    <!-- Gcn5_2 -->
    <g style="fill: #808080" transform="translate(69.903835 489.129938) scale(0.1 -0.1)">
     <use xlink:href="#DejaVuSans-47"/>
     <use xlink:href="#DejaVuSans-63" x="77.490234"/>
     <use xlink:href="#DejaVuSans-6e" x="132.470703"/>
     <use xlink:href="#DejaVuSans-35" x="195.849609"/>
     <use xlink:href="#DejaVuSans-5f" x="259.472656"/>
     <use xlink:href="#DejaVuSans-32" x="309.472656"/>
    </g>
   </g>
   <g id="text_5">
    <!-- Gcn5_3 -->
    <g style="fill: #808080" transform="translate(162.906877 446.43705) scale(0.1 -0.1)">
     <defs>
      <path id="DejaVuSans-33" d="M 2597 2516 
Q 3050 2419 3304 2112 
Q 3559 1806 3559 1356 
Q 3559 666 3084 287 
Q 2609 -91 1734 -91 
Q 1441 -91 1130 -33 
Q 819 25 488 141 
L 488 750 
Q 750 597 1062 519 
Q 1375 441 1716 441 
Q 2309 441 2620 675 
Q 2931 909 2931 1356 
Q 2931 1769 2642 2001 
Q 2353 2234 1838 2234 
L 1294 2234 
L 1294 2753 
L 1863 2753 
Q 2328 2753 2575 2939 
Q 2822 3125 2822 3475 
Q 2822 3834 2567 4026 
Q 2313 4219 1838 4219 
Q 1578 4219 1281 4162 
Q 984 4106 628 3988 
L 628 4550 
Q 988 4650 1302 4700 
Q 1616 4750 1894 4750 
Q 2613 4750 3031 4423 
Q 3450 4097 3450 3541 
Q 3450 3153 3228 2886 
Q 3006 2619 2597 2516 
z
" transform="scale(0.015625)"/>
     </defs>
     <use xlink:href="#DejaVuSans-47"/>
     <use xlink:href="#DejaVuSans-63" x="77.490234"/>
     <use xlink:href="#DejaVuSans-6e" x="132.470703"/>
     <use xlink:href="#DejaVuSans-35" x="195.849609"/>
     <use xlink:href="#DejaVuSans-5f" x="259.472656"/>
     <use xlink:href="#DejaVuSans-33" x="309.472656"/>
    </g>
   </g>
   <g id="text_6">
    <!-- Elp3_1 -->
    <g style="fill: #808080" transform="translate(125.520839 352.492863) scale(0.1 -0.1)">
     <defs>
      <path id="DejaVuSans-45" d="M 628 4666 
L 3578 4666 
L 3578 4134 
L 1259 4134 
L 1259 2753 
L 3481 2753 
L 3481 2222 
L 1259 2222 
L 1259 531 
L 3634 531 
L 3634 0 
L 628 0 
L 628 4666 
z
" transform="scale(0.015625)"/>
      <path id="DejaVuSans-6c" d="M 603 4863 
L 1178 4863 
L 1178 0 
L 603 0 
L 603 4863 
z
" transform="scale(0.015625)"/>
      <path id="DejaVuSans-70" d="M 1159 525 
L 1159 -1331 
L 581 -1331 
L 581 3500 
L 1159 3500 
L 1159 2969 
Q 1341 3281 1617 3432 
Q 1894 3584 2278 3584 
Q 2916 3584 3314 3078 
Q 3713 2572 3713 1747 
Q 3713 922 3314 415 
Q 2916 -91 2278 -91 
Q 1894 -91 1617 61 
Q 1341 213 1159 525 
z
M 3116 1747 
Q 3116 2381 2855 2742 
Q 2594 3103 2138 3103 
Q 1681 3103 1420 2742 
Q 1159 2381 1159 1747 
Q 1159 1113 1420 752 
Q 1681 391 2138 391 
Q 2594 391 2855 752 
Q 3116 1113 3116 1747 
z
" transform="scale(0.015625)"/>
     </defs>
     <use xlink:href="#DejaVuSans-45"/>
     <use xlink:href="#DejaVuSans-6c" x="63.183594"/>
     <use xlink:href="#DejaVuSans-70" x="90.966797"/>
     <use xlink:href="#DejaVuSans-33" x="154.443359"/>
     <use xlink:href="#DejaVuSans-5f" x="218.066406"/>
     <use xlink:href="#DejaVuSans-31" x="268.066406"/>
    </g>
   </g>
   <g id="text_7">
    <!-- Elp3_2 -->
    <g style="fill: #808080" transform="translate(175.019913 271.50443) scale(0.1 -0.1)">
     <use xlink:href="#DejaVuSans-45"/>
     <use xlink:href="#DejaVuSans-6c" x="63.183594"/>
     <use xlink:href="#DejaVuSans-70" x="90.966797"/>
     <use xlink:href="#DejaVuSans-33" x="154.443359"/>
     <use xlink:href="#DejaVuSans-5f" x="218.066406"/>
     <use xlink:href="#DejaVuSans-32" x="268.066406"/>
    </g>
   </g>
   <g id="text_8">
    <!-- Elp3_3 -->
    <g style="fill: #808080" transform="translate(213.890481 379.13948) scale(0.1 -0.1)">
     <use xlink:href="#DejaVuSans-45"/>
     <use xlink:href="#DejaVuSans-6c" x="63.183594"/>
     <use xlink:href="#DejaVuSans-70" x="90.966797"/>
     <use xlink:href="#DejaVuSans-33" x="154.443359"/>
     <use xlink:href="#DejaVuSans-5f" x="218.066406"/>
     <use xlink:href="#DejaVuSans-33" x="268.066406"/>
    </g>
   </g>
   <g id="text_9">
    <!-- Hda1_1 -->
    <g style="fill: #808080" transform="translate(210.822593 308.56784) scale(0.1 -0.1)">
     <defs>
      <path id="DejaVuSans-48" d="M 628 4666 
L 1259 4666 
L 1259 2753 
L 3553 2753 
L 3553 4666 
L 4184 4666 
L 4184 0 
L 3553 0 
L 3553 2222 
L 1259 2222 
L 1259 0 
L 628 0 
L 628 4666 
z
" transform="scale(0.015625)"/>
      <path id="DejaVuSans-64" d="M 2906 2969 
L 2906 4863 
L 3481 4863 
L 3481 0 
L 2906 0 
L 2906 525 
Q 2725 213 2448 61 
Q 2172 -91 1784 -91 
Q 1150 -91 751 415 
Q 353 922 353 1747 
Q 353 2572 751 3078 
Q 1150 3584 1784 3584 
Q 2172 3584 2448 3432 
Q 2725 3281 2906 2969 
z
M 947 1747 
Q 947 1113 1208 752 
Q 1469 391 1925 391 
Q 2381 391 2643 752 
Q 2906 1113 2906 1747 
Q 2906 2381 2643 2742 
Q 2381 3103 1925 3103 
Q 1469 3103 1208 2742 
Q 947 2381 947 1747 
z
" transform="scale(0.015625)"/>
      <path id="DejaVuSans-61" d="M 2194 1759 
Q 1497 1759 1228 1600 
Q 959 1441 959 1056 
Q 959 750 1161 570 
Q 1363 391 1709 391 
Q 2188 391 2477 730 
Q 2766 1069 2766 1631 
L 2766 1759 
L 2194 1759 
z
M 3341 1997 
L 3341 0 
L 2766 0 
L 2766 531 
Q 2569 213 2275 61 
Q 1981 -91 1556 -91 
Q 1019 -91 701 211 
Q 384 513 384 1019 
Q 384 1609 779 1909 
Q 1175 2209 1959 2209 
L 2766 2209 
L 2766 2266 
Q 2766 2663 2505 2880 
Q 2244 3097 1772 3097 
Q 1472 3097 1187 3025 
Q 903 2953 641 2809 
L 641 3341 
Q 956 3463 1253 3523 
Q 1550 3584 1831 3584 
Q 2591 3584 2966 3190 
Q 3341 2797 3341 1997 
z
" transform="scale(0.015625)"/>
     </defs>
     <use xlink:href="#DejaVuSans-48"/>
     <use xlink:href="#DejaVuSans-64" x="75.195312"/>
     <use xlink:href="#DejaVuSans-61" x="138.671875"/>
     <use xlink:href="#DejaVuSans-31" x="199.951172"/>
     <use xlink:href="#DejaVuSans-5f" x="263.574219"/>
     <use xlink:href="#DejaVuSans-31" x="313.574219"/>
    </g>
   </g>
   <g id="text_10">
    <!-- Hda1_2 -->
    <g style="fill: #808080" transform="translate(163.944868 145.521277) scale(0.1 -0.1)">
     <use xlink:href="#DejaVuSans-48"/>
     <use xlink:href="#DejaVuSans-64" x="75.195312"/>
     <use xlink:href="#DejaVuSans-61" x="138.671875"/>
     <use xlink:href="#DejaVuSans-31" x="199.951172"/>
     <use xlink:href="#DejaVuSans-5f" x="263.574219"/>
     <use xlink:href="#DejaVuSans-32" x="313.574219"/>
    </g>
   </g>
   <g id="text_11">
    <!-- Hda1_3 -->
    <g style="fill: #808080" transform="translate(231.244898 166.520218) scale(0.1 -0.1)">
     <use xlink:href="#DejaVuSans-48"/>
     <use xlink:href="#DejaVuSans-64" x="75.195312"/>
     <use xlink:href="#DejaVuSans-61" x="138.671875"/>
     <use xlink:href="#DejaVuSans-31" x="199.951172"/>
     <use xlink:href="#DejaVuSans-5f" x="263.574219"/>
     <use xlink:href="#DejaVuSans-33" x="313.574219"/>
    </g>
   </g>
   <g id="text_12">
    <!-- Sas2_1 -->
    <g style="fill: #808080" transform="translate(272.976858 391.866648) scale(0.1 -0.1)">
     <defs>
      <path id="DejaVuSans-53" d="M 3425 4513 
L 3425 3897 
Q 3066 4069 2747 4153 
Q 2428 4238 2131 4238 
Q 1616 4238 1336 4038 
Q 1056 3838 1056 3469 
Q 1056 3159 1242 3001 
Q 1428 2844 1947 2747 
L 2328 2669 
Q 3034 2534 3370 2195 
Q 3706 1856 3706 1288 
Q 3706 609 3251 259 
Q 2797 -91 1919 -91 
Q 1588 -91 1214 -16 
Q 841 59 441 206 
L 441 856 
Q 825 641 1194 531 
Q 1563 422 1919 422 
Q 2459 422 2753 634 
Q 3047 847 3047 1241 
Q 3047 1584 2836 1778 
Q 2625 1972 2144 2069 
L 1759 2144 
Q 1053 2284 737 2584 
Q 422 2884 422 3419 
Q 422 4038 858 4394 
Q 1294 4750 2059 4750 
Q 2388 4750 2728 4690 
Q 3069 4631 3425 4513 
z
" transform="scale(0.015625)"/>
      <path id="DejaVuSans-73" d="M 2834 3397 
L 2834 2853 
Q 2591 2978 2328 3040 
Q 2066 3103 1784 3103 
Q 1356 3103 1142 2972 
Q 928 2841 928 2578 
Q 928 2378 1081 2264 
Q 1234 2150 1697 2047 
L 1894 2003 
Q 2506 1872 2764 1633 
Q 3022 1394 3022 966 
Q 3022 478 2636 193 
Q 2250 -91 1575 -91 
Q 1294 -91 989 -36 
Q 684 19 347 128 
L 347 722 
Q 666 556 975 473 
Q 1284 391 1588 391 
Q 1994 391 2212 530 
Q 2431 669 2431 922 
Q 2431 1156 2273 1281 
Q 2116 1406 1581 1522 
L 1381 1569 
Q 847 1681 609 1914 
Q 372 2147 372 2553 
Q 372 3047 722 3315 
Q 1072 3584 1716 3584 
Q 2034 3584 2315 3537 
Q 2597 3491 2834 3397 
z
" transform="scale(0.015625)"/>
     </defs>
     <use xlink:href="#DejaVuSans-53"/>
     <use xlink:href="#DejaVuSans-61" x="63.476562"/>
     <use xlink:href="#DejaVuSans-73" x="124.755859"/>
     <use xlink:href="#DejaVuSans-32" x="176.855469"/>
     <use xlink:href="#DejaVuSans-5f" x="240.478516"/>
     <use xlink:href="#DejaVuSans-31" x="290.478516"/>
    </g>
   </g>
   <g id="text_13">
    <!-- Sas2_2 -->
    <g style="fill: #808080" transform="translate(246.068994 358.622217) scale(0.1 -0.1)">
     <use xlink:href="#DejaVuSans-53"/>
     <use xlink:href="#DejaVuSans-61" x="63.476562"/>
     <use xlink:href="#DejaVuSans-73" x="124.755859"/>
     <use xlink:href="#DejaVuSans-32" x="176.855469"/>
     <use xlink:href="#DejaVuSans-5f" x="240.478516"/>
     <use xlink:href="#DejaVuSans-32" x="290.478516"/>
    </g>
   </g>
   <g id="text_14">
    <!-- Sas2_3 -->
    <g style="fill: #808080" transform="translate(315.367396 430.653704) scale(0.1 -0.1)">
     <use xlink:href="#DejaVuSans-53"/>
     <use xlink:href="#DejaVuSans-61" x="63.476562"/>
     <use xlink:href="#DejaVuSans-73" x="124.755859"/>
     <use xlink:href="#DejaVuSans-32" x="176.855469"/>
     <use xlink:href="#DejaVuSans-5f" x="240.478516"/>
     <use xlink:href="#DejaVuSans-33" x="290.478516"/>
    </g>
   </g>
   <g id="text_15">
    <!-- Sas3_1 -->
    <g style="fill: #808080" transform="translate(273.03002 317.233743) scale(0.1 -0.1)">
     <use xlink:href="#DejaVuSans-53"/>
     <use xlink:href="#DejaVuSans-61" x="63.476562"/>
     <use xlink:href="#DejaVuSans-73" x="124.755859"/>
     <use xlink:href="#DejaVuSans-33" x="176.855469"/>
     <use xlink:href="#DejaVuSans-5f" x="240.478516"/>
     <use xlink:href="#DejaVuSans-31" x="290.478516"/>
    </g>
   </g>
   <g id="text_16">
    <!-- Sas3_2 -->
    <g style="fill: #808080" transform="translate(152.118644 397.438864) scale(0.1 -0.1)">
     <use xlink:href="#DejaVuSans-53"/>
     <use xlink:href="#DejaVuSans-61" x="63.476562"/>
     <use xlink:href="#DejaVuSans-73" x="124.755859"/>
     <use xlink:href="#DejaVuSans-33" x="176.855469"/>
     <use xlink:href="#DejaVuSans-5f" x="240.478516"/>
     <use xlink:href="#DejaVuSans-32" x="290.478516"/>
    </g>
   </g>
   <g id="text_17">
    <!-- Sas3_3 -->
    <g style="fill: #808080" transform="translate(115.010637 230.363259) scale(0.1 -0.1)">
     <use xlink:href="#DejaVuSans-53"/>
     <use xlink:href="#DejaVuSans-61" x="63.476562"/>
     <use xlink:href="#DejaVuSans-73" x="124.755859"/>
     <use xlink:href="#DejaVuSans-33" x="176.855469"/>
     <use xlink:href="#DejaVuSans-5f" x="240.478516"/>
     <use xlink:href="#DejaVuSans-33" x="290.478516"/>
    </g>
   </g>
   <g id="text_18">
    <!-- Hst2_1 -->
    <g style="fill: #808080" transform="translate(114.003294 253.68283) scale(0.1 -0.1)">
     <defs>
      <path id="DejaVuSans-74" d="M 1172 4494 
L 1172 3500 
L 2356 3500 
L 2356 3053 
L 1172 3053 
L 1172 1153 
Q 1172 725 1289 603 
Q 1406 481 1766 481 
L 2356 481 
L 2356 0 
L 1766 0 
Q 1100 0 847 248 
Q 594 497 594 1153 
L 594 3053 
L 172 3053 
L 172 3500 
L 594 3500 
L 594 4494 
L 1172 4494 
z
" transform="scale(0.015625)"/>
     </defs>
     <use xlink:href="#DejaVuSans-48"/>
     <use xlink:href="#DejaVuSans-73" x="75.195312"/>
     <use xlink:href="#DejaVuSans-74" x="127.294922"/>
     <use xlink:href="#DejaVuSans-32" x="166.503906"/>
     <use xlink:href="#DejaVuSans-5f" x="230.126953"/>
     <use xlink:href="#DejaVuSans-31" x="280.126953"/>
    </g>
   </g>
   <g id="text_19">
    <!-- Hst2_2 -->
    <g style="fill: #808080" transform="translate(256.465036 461.242182) scale(0.1 -0.1)">
     <use xlink:href="#DejaVuSans-48"/>
     <use xlink:href="#DejaVuSans-73" x="75.195312"/>
     <use xlink:href="#DejaVuSans-74" x="127.294922"/>
     <use xlink:href="#DejaVuSans-32" x="166.503906"/>
     <use xlink:href="#DejaVuSans-5f" x="230.126953"/>
     <use xlink:href="#DejaVuSans-32" x="280.126953"/>
    </g>
   </g>
   <g id="text_20">
    <!-- Hst2_3 -->
    <g style="fill: #808080" transform="translate(164.315365 118.698951) scale(0.1 -0.1)">
     <use xlink:href="#DejaVuSans-48"/>
     <use xlink:href="#DejaVuSans-73" x="75.195312"/>
     <use xlink:href="#DejaVuSans-74" x="127.294922"/>
     <use xlink:href="#DejaVuSans-32" x="166.503906"/>
     <use xlink:href="#DejaVuSans-5f" x="230.126953"/>
     <use xlink:href="#DejaVuSans-33" x="280.126953"/>
    </g>
   </g>
   <g id="text_21">
    <!-- Sir2_1 -->
    <g style="fill: #808080" transform="translate(166.163918 255.941368) scale(0.1 -0.1)">
     <defs>
      <path id="DejaVuSans-69" d="M 603 3500 
L 1178 3500 
L 1178 0 
L 603 0 
L 603 3500 
z
M 603 4863 
L 1178 4863 
L 1178 4134 
L 603 4134 
L 603 4863 
z
" transform="scale(0.015625)"/>
      <path id="DejaVuSans-72" d="M 2631 2963 
Q 2534 3019 2420 3045 
Q 2306 3072 2169 3072 
Q 1681 3072 1420 2755 
Q 1159 2438 1159 1844 
L 1159 0 
L 581 0 
L 581 3500 
L 1159 3500 
L 1159 2956 
Q 1341 3275 1631 3429 
Q 1922 3584 2338 3584 
Q 2397 3584 2469 3576 
Q 2541 3569 2628 3553 
L 2631 2963 
z
" transform="scale(0.015625)"/>
     </defs>
     <use xlink:href="#DejaVuSans-53"/>
     <use xlink:href="#DejaVuSans-69" x="63.476562"/>
     <use xlink:href="#DejaVuSans-72" x="91.259766"/>
     <use xlink:href="#DejaVuSans-32" x="132.373047"/>
     <use xlink:href="#DejaVuSans-5f" x="195.996094"/>
     <use xlink:href="#DejaVuSans-31" x="245.996094"/>
    </g>
   </g>
   <g id="text_22">
    <!-- Sir2_2 -->
    <g style="fill: #808080" transform="translate(178.296694 234.655398) scale(0.1 -0.1)">
     <use xlink:href="#DejaVuSans-53"/>
     <use xlink:href="#DejaVuSans-69" x="63.476562"/>
     <use xlink:href="#DejaVuSans-72" x="91.259766"/>
     <use xlink:href="#DejaVuSans-32" x="132.373047"/>
     <use xlink:href="#DejaVuSans-5f" x="195.996094"/>
     <use xlink:href="#DejaVuSans-32" x="245.996094"/>
    </g>
   </g>
   <g id="text_23">
    <!-- Sir2_3 -->
    <g style="fill: #808080" transform="translate(342.049878 450.154538) scale(0.1 -0.1)">
     <use xlink:href="#DejaVuSans-53"/>
     <use xlink:href="#DejaVuSans-69" x="63.476562"/>
     <use xlink:href="#DejaVuSans-72" x="91.259766"/>
     <use xlink:href="#DejaVuSans-32" x="132.373047"/>
     <use xlink:href="#DejaVuSans-5f" x="195.996094"/>
     <use xlink:href="#DejaVuSans-33" x="245.996094"/>
    </g>
   </g>
   <g id="text_24">
    <!-- Nat3_1 -->
    <g style="fill: #808080" transform="translate(240.24087 289.494458) scale(0.1 -0.1)">
     <defs>
      <path id="DejaVuSans-4e" d="M 628 4666 
L 1478 4666 
L 3547 763 
L 3547 4666 
L 4159 4666 
L 4159 0 
L 3309 0 
L 1241 3903 
L 1241 0 
L 628 0 
L 628 4666 
z
" transform="scale(0.015625)"/>
     </defs>
     <use xlink:href="#DejaVuSans-4e"/>
     <use xlink:href="#DejaVuSans-61" x="74.804688"/>
     <use xlink:href="#DejaVuSans-74" x="136.083984"/>
     <use xlink:href="#DejaVuSans-33" x="175.292969"/>
     <use xlink:href="#DejaVuSans-5f" x="238.916016"/>
     <use xlink:href="#DejaVuSans-31" x="288.916016"/>
    </g>
   </g>
   <g id="text_25">
    <!-- Nat3_2 -->
    <g style="fill: #808080" transform="translate(188.239702 201.614366) scale(0.1 -0.1)">
     <use xlink:href="#DejaVuSans-4e"/>
     <use xlink:href="#DejaVuSans-61" x="74.804688"/>
     <use xlink:href="#DejaVuSans-74" x="136.083984"/>
     <use xlink:href="#DejaVuSans-33" x="175.292969"/>
     <use xlink:href="#DejaVuSans-5f" x="238.916016"/>
     <use xlink:href="#DejaVuSans-32" x="288.916016"/>
    </g>
   </g>
   <g id="text_26">
    <!-- Nat3_3 -->
    <g style="fill: #808080" transform="translate(78.244206 407.635864) scale(0.1 -0.1)">
     <use xlink:href="#DejaVuSans-4e"/>
     <use xlink:href="#DejaVuSans-61" x="74.804688"/>
     <use xlink:href="#DejaVuSans-74" x="136.083984"/>
     <use xlink:href="#DejaVuSans-33" x="175.292969"/>
     <use xlink:href="#DejaVuSans-5f" x="238.916016"/>
     <use xlink:href="#DejaVuSans-33" x="288.916016"/>
    </g>
   </g>
   <g id="text_27">
    <!-- WT_1 -->
    <g style="fill: #808080" transform="translate(229.670574 127.255109) scale(0.1 -0.1)">
     <defs>
      <path id="DejaVuSans-57" d="M 213 4666 
L 850 4666 
L 1831 722 
L 2809 4666 
L 3519 4666 
L 4500 722 
L 5478 4666 
L 6119 4666 
L 4947 0 
L 4153 0 
L 3169 4050 
L 2175 0 
L 1381 0 
L 213 4666 
z
" transform="scale(0.015625)"/>
      <path id="DejaVuSans-54" d="M -19 4666 
L 3928 4666 
L 3928 4134 
L 2272 4134 
L 2272 0 
L 1638 0 
L 1638 4134 
L -19 4134 
L -19 4666 
z
" transform="scale(0.015625)"/>
     </defs>
     <use xlink:href="#DejaVuSans-57"/>
     <use xlink:href="#DejaVuSans-54" x="98.876953"/>
     <use xlink:href="#DejaVuSans-5f" x="159.960938"/>
     <use xlink:href="#DejaVuSans-31" x="209.960938"/>
    </g>
   </g>
   <g id="text_28">
    <!-- WT_2 -->
    <g style="fill: #808080" transform="translate(287.493073 85.929938) scale(0.1 -0.1)">
     <use xlink:href="#DejaVuSans-57"/>
     <use xlink:href="#DejaVuSans-54" x="98.876953"/>
     <use xlink:href="#DejaVuSans-5f" x="159.960938"/>
     <use xlink:href="#DejaVuSans-32" x="209.960938"/>
    </g>
   </g>
   <g id="text_29">
    <!-- WT_3 -->
    <g style="fill: #808080" transform="translate(280.068016 264.498977) scale(0.1 -0.1)">
     <use xlink:href="#DejaVuSans-57"/>
     <use xlink:href="#DejaVuSans-54" x="98.876953"/>
     <use xlink:href="#DejaVuSans-5f" x="159.960938"/>
     <use xlink:href="#DejaVuSans-33" x="209.960938"/>
    </g>
   </g>
  </g>
 </g>
 <defs>
  <clipPath id="p64e3a95a25">
   <rect x="54" y="69.12" width="334.8" height="443.52"/>
  </clipPath>
 </defs>
</svg>
