<?xml version="1.0" encoding="utf-8" standalone="no"?>
<!DOCTYPE svg PUBLIC "-//W3C//DTD SVG 1.1//EN"
  "http://www.w3.org/Graphics/SVG/1.1/DTD/svg11.dtd">
<svg xmlns:xlink="http://www.w3.org/1999/xlink" width="432pt" height="576pt" viewBox="0 0 432 576" xmlns="http://www.w3.org/2000/svg" version="1.1">
 <metadata>
  <rdf:RDF xmlns:dc="http://purl.org/dc/elements/1.1/" xmlns:cc="http://creativecommons.org/ns#" xmlns:rdf="http://www.w3.org/1999/02/22-rdf-syntax-ns#">
   <cc:Work>
    <dc:type rdf:resource="http://purl.org/dc/dcmitype/StillImage"/>
    <dc:date>2023-07-31T06:07:50.169486</dc:date>
    <dc:format>image/svg+xml</dc:format>
    <dc:creator>
     <cc:Agent>
      <dc:title>Matplotlib v3.7.2, https://matplotlib.org/</dc:title>
     </cc:Agent>
    </dc:creator>
   </cc:Work>
  </rdf:RDF>
 </metadata>
 <defs>
  <style type="text/css">*{stroke-linejoin: round; stroke-linecap: butt}</style>
 </defs>
 <g id="figure_1">
  <g id="patch_1">
   <path d="M 0 576 
L 432 576 
L 432 0 
L 0 0 
z
" style="fill: #ffffff"/>
  </g>
  <g id="axes_1">
   <g id="patch_2">
    <path d="M 54 512.64 
L 388.8 512.64 
L 388.8 69.12 
L 54 69.12 
z
" style="fill: #ffffff"/>
   </g>
   <g id="PathCollection_1">
    <defs>
     <path id="C0_0_dbf1c6278a" d="M 0 5 
C 1.326016 5 2.597899 4.473168 3.535534 3.535534 
C 4.473168 2.597899 5 1.326016 5 -0 
C 5 -1.326016 4.473168 -2.597899 3.535534 -3.535534 
C 2.597899 -4.473168 1.326016 -5 0 -5 
C -1.326016 -5 -2.597899 -4.473168 -3.535534 -3.535534 
C -4.473168 -2.597899 -5 -1.326016 -5 0 
C -5 1.326016 -4.473168 2.597899 -3.535534 3.535534 
C -2.597899 4.473168 -1.326016 5 0 5 
z
"/>
    </defs>
    <g clip-path="url(#p3e7da7affd)">
     <use xlink:href="#C0_0_dbf1c6278a" x="71.482883" y="399.555063" style="fill: #a6cee3; fill-opacity: 0.7; stroke: #ffffff; stroke-opacity: 0.7; stroke-width: 0.8"/>
    </g>
    <g clip-path="url(#p3e7da7affd)">
     <use xlink:href="#C0_0_dbf1c6278a" x="69.496804" y="387.992836" style="fill: #a6cee3; fill-opacity: 0.7; stroke: #ffffff; stroke-opacity: 0.7; stroke-width: 0.8"/>
    </g>
    <g clip-path="url(#p3e7da7affd)">
     <use xlink:href="#C0_0_dbf1c6278a" x="69.353745" y="375.173972" style="fill: #a6cee3; fill-opacity: 0.7; stroke: #ffffff; stroke-opacity: 0.7; stroke-width: 0.8"/>
    </g>
    <g clip-path="url(#p3e7da7affd)">
     <use xlink:href="#C0_0_dbf1c6278a" x="70.820483" y="383.872583" style="fill: #1f78b4; fill-opacity: 0.7; stroke: #ffffff; stroke-opacity: 0.7; stroke-width: 0.8"/>
    </g>
    <g clip-path="url(#p3e7da7affd)">
     <use xlink:href="#C0_0_dbf1c6278a" x="69.218182" y="387.078604" style="fill: #1f78b4; fill-opacity: 0.7; stroke: #ffffff; stroke-opacity: 0.7; stroke-width: 0.8"/>
    </g>
    <g clip-path="url(#p3e7da7affd)">
     <use xlink:href="#C0_0_dbf1c6278a" x="93.012418" y="322.597385" style="fill: #1f78b4; fill-opacity: 0.7; stroke: #ffffff; stroke-opacity: 0.7; stroke-width: 0.8"/>
    </g>
    <g clip-path="url(#p3e7da7affd)">
     <use xlink:href="#C0_0_dbf1c6278a" x="120.982934" y="279.283651" style="fill: #b2df8a; fill-opacity: 0.7; stroke: #ffffff; stroke-opacity: 0.7; stroke-width: 0.8"/>
    </g>
    <g clip-path="url(#p3e7da7affd)">
     <use xlink:href="#C0_0_dbf1c6278a" x="158.829333" y="326.961734" style="fill: #b2df8a; fill-opacity: 0.7; stroke: #ffffff; stroke-opacity: 0.7; stroke-width: 0.8"/>
    </g>
    <g clip-path="url(#p3e7da7affd)">
     <use xlink:href="#C0_0_dbf1c6278a" x="152.184585" y="306.763935" style="fill: #b2df8a; fill-opacity: 0.7; stroke: #ffffff; stroke-opacity: 0.7; stroke-width: 0.8"/>
    </g>
    <g clip-path="url(#p3e7da7affd)">
     <use xlink:href="#C0_0_dbf1c6278a" x="326.470206" y="382.555935" style="fill: #33a02c; fill-opacity: 0.7; stroke: #ffffff; stroke-opacity: 0.7; stroke-width: 0.8"/>
    </g>
    <g clip-path="url(#p3e7da7affd)">
     <use xlink:href="#C0_0_dbf1c6278a" x="354.068121" y="381.358484" style="fill: #33a02c; fill-opacity: 0.7; stroke: #ffffff; stroke-opacity: 0.7; stroke-width: 0.8"/>
    </g>
    <g clip-path="url(#p3e7da7affd)">
     <use xlink:href="#C0_0_dbf1c6278a" x="373.581818" y="402.170073" style="fill: #33a02c; fill-opacity: 0.7; stroke: #ffffff; stroke-opacity: 0.7; stroke-width: 0.8"/>
    </g>
    <g clip-path="url(#p3e7da7affd)">
     <use xlink:href="#C0_0_dbf1c6278a" x="94.799378" y="262.924705" style="fill: #fb9a99; fill-opacity: 0.7; stroke: #ffffff; stroke-opacity: 0.7; stroke-width: 0.8"/>
    </g>
    <g clip-path="url(#p3e7da7affd)">
     <use xlink:href="#C0_0_dbf1c6278a" x="124.301284" y="285.349131" style="fill: #fb9a99; fill-opacity: 0.7; stroke: #ffffff; stroke-opacity: 0.7; stroke-width: 0.8"/>
    </g>
    <g clip-path="url(#p3e7da7affd)">
     <use xlink:href="#C0_0_dbf1c6278a" x="91.531329" y="249.227624" style="fill: #fb9a99; fill-opacity: 0.7; stroke: #ffffff; stroke-opacity: 0.7; stroke-width: 0.8"/>
    </g>
    <g clip-path="url(#p3e7da7affd)">
     <use xlink:href="#C0_0_dbf1c6278a" x="189.224974" y="203.812162" style="fill: #e31a1c; fill-opacity: 0.7; stroke: #ffffff; stroke-opacity: 0.7; stroke-width: 0.8"/>
    </g>
    <g clip-path="url(#p3e7da7affd)">
     <use xlink:href="#C0_0_dbf1c6278a" x="105.759231" y="248.363593" style="fill: #e31a1c; fill-opacity: 0.7; stroke: #ffffff; stroke-opacity: 0.7; stroke-width: 0.8"/>
    </g>
    <g clip-path="url(#p3e7da7affd)">
     <use xlink:href="#C0_0_dbf1c6278a" x="70.745816" y="437.165075" style="fill: #e31a1c; fill-opacity: 0.7; stroke: #ffffff; stroke-opacity: 0.7; stroke-width: 0.8"/>
    </g>
    <g clip-path="url(#p3e7da7affd)">
     <use xlink:href="#C0_0_dbf1c6278a" x="182.781795" y="492.48" style="fill: #fdbf6f; fill-opacity: 0.7; stroke: #ffffff; stroke-opacity: 0.7; stroke-width: 0.8"/>
    </g>
    <g clip-path="url(#p3e7da7affd)">
     <use xlink:href="#C0_0_dbf1c6278a" x="96.374321" y="389.461432" style="fill: #fdbf6f; fill-opacity: 0.7; stroke: #ffffff; stroke-opacity: 0.7; stroke-width: 0.8"/>
    </g>
    <g clip-path="url(#p3e7da7affd)">
     <use xlink:href="#C0_0_dbf1c6278a" x="135.361137" y="468.052337" style="fill: #fdbf6f; fill-opacity: 0.7; stroke: #ffffff; stroke-opacity: 0.7; stroke-width: 0.8"/>
    </g>
    <g clip-path="url(#p3e7da7affd)">
     <use xlink:href="#C0_0_dbf1c6278a" x="172.958776" y="165.759346" style="fill: #ff7f00; fill-opacity: 0.7; stroke: #ffffff; stroke-opacity: 0.7; stroke-width: 0.8"/>
    </g>
    <g clip-path="url(#p3e7da7affd)">
     <use xlink:href="#C0_0_dbf1c6278a" x="175.946844" y="103.577059" style="fill: #ff7f00; fill-opacity: 0.7; stroke: #ffffff; stroke-opacity: 0.7; stroke-width: 0.8"/>
    </g>
    <g clip-path="url(#p3e7da7affd)">
     <use xlink:href="#C0_0_dbf1c6278a" x="169.901142" y="89.28" style="fill: #ff7f00; fill-opacity: 0.7; stroke: #ffffff; stroke-opacity: 0.7; stroke-width: 0.8"/>
    </g>
   </g>
   <g id="PathCollection_2"/>
   <g id="PathCollection_3"/>
   <g id="PathCollection_4"/>
   <g id="PathCollection_5"/>
   <g id="PathCollection_6"/>
   <g id="PathCollection_7"/>
   <g id="PathCollection_8"/>
   <g id="PathCollection_9"/>
   <g id="patch_3">
    <path d="M 148.791685 484.179943 
C 153.654672 484.179943 158.319138 471.860451 161.757789 449.93469 
C 165.196441 428.00893 167.128526 398.267043 167.128526 367.259335 
C 167.128526 336.251628 165.196441 306.509741 161.757789 284.583981 
C 158.319138 262.65822 153.654672 250.338727 148.791685 250.338727 
C 143.928698 250.338727 139.264232 262.65822 135.825581 284.583981 
C 132.386929 306.509741 130.454844 336.251628 130.454844 367.259335 
C 130.454844 398.267043 132.386929 428.00893 135.825581 449.93469 
C 139.264232 471.860451 143.928698 484.179943 148.791685 484.179943 
z
" clip-path="url(#p3e7da7affd)" style="fill: #1f77b4; opacity: 0.1"/>
   </g>
   <g id="patch_4">
    <path d="M 351.373382 540.079932 
C 357.669823 540.079932 363.709227 524.129042 368.161483 495.740262 
C 372.61374 467.351482 375.115342 428.842629 375.115342 388.694831 
C 375.115342 348.547032 372.61374 310.038179 368.161483 281.649399 
C 363.709227 253.260619 357.669823 237.309729 351.373382 237.309729 
C 345.07694 237.309729 339.037537 253.260619 334.58528 281.649399 
C 330.133024 310.038179 327.631421 348.547032 327.631421 388.694831 
C 327.631421 428.842629 330.133024 467.351482 334.58528 495.740262 
C 339.037537 524.129042 345.07694 540.079932 351.373382 540.079932 
z
" clip-path="url(#p3e7da7affd)" style="fill: #1f77b4; opacity: 0.1"/>
   </g>
   <g id="patch_5">
    <path d="M 70.186319 417.98836 
C 71.136645 417.98836 72.048177 415.58088 72.72016 411.296139 
C 73.392142 407.011399 73.769711 401.199227 73.769711 395.139689 
C 73.769711 389.08015 73.392142 383.267979 72.72016 378.983238 
C 72.048177 374.698498 71.136645 372.291018 70.186319 372.291018 
C 69.235992 372.291018 68.32446 374.698498 67.652477 378.983238 
C 66.980495 383.267979 66.602926 389.08015 66.602926 395.139689 
C 66.602926 401.199227 66.980495 407.011399 67.652477 411.296139 
C 68.32446 415.58088 69.235992 417.98836 70.186319 417.98836 
z
" clip-path="url(#p3e7da7affd)" style="fill: #1f77b4; opacity: 0.1"/>
   </g>
   <g id="patch_6">
    <path d="M 177.007934 216.911983 
C 180.181621 216.911983 183.22575 208.872023 185.469886 194.562812 
C 187.714022 180.253601 188.974941 160.843422 188.974941 140.607142 
C 188.974941 120.370861 187.714022 100.960682 185.469886 86.651471 
C 183.22575 72.34226 180.181621 64.302301 177.007934 64.302301 
C 173.834247 64.302301 170.790118 72.34226 168.545982 86.651471 
C 166.301847 100.960682 165.040927 120.370861 165.040927 140.607142 
C 165.040927 160.843422 166.301847 180.253601 168.545982 194.562812 
C 170.790118 208.872023 173.834247 216.911983 177.007934 216.911983 
z
" clip-path="url(#p3e7da7affd)" style="fill: #1f77b4; opacity: 0.1"/>
   </g>
   <g id="patch_7">
    <path d="M 96.295335 365.359648 
C 99.241923 365.359648 102.068223 357.895003 104.151776 344.609715 
C 106.235328 331.324428 107.40602 313.303182 107.40602 294.514948 
C 107.40602 275.726714 106.235328 257.705468 104.151776 244.42018 
C 102.068223 231.134893 99.241923 223.670248 96.295335 223.670248 
C 93.348747 223.670248 90.522447 231.134893 88.438895 244.42018 
C 86.355343 257.705468 85.184651 275.726714 85.184651 294.514948 
C 85.184651 313.303182 86.355343 331.324428 88.438895 344.609715 
C 90.522447 357.895003 93.348747 365.359648 96.295335 365.359648 
z
" clip-path="url(#p3e7da7affd)" style="fill: #1f77b4; opacity: 0.1"/>
   </g>
   <g id="patch_8">
    <path d="M 122.642109 297.880456 
C 123.289453 297.880456 123.91037 296.240528 124.368112 293.321847 
C 124.825853 290.403166 125.083045 286.444029 125.083045 282.316391 
C 125.083045 278.188753 124.825853 274.229616 124.368112 271.310935 
C 123.91037 268.392254 123.289453 266.752326 122.642109 266.752326 
C 121.994765 266.752326 121.373847 268.392254 120.916106 271.310935 
C 120.458365 274.229616 120.201172 278.188753 120.201172 282.316391 
C 120.201172 286.444029 120.458365 290.403166 120.916106 293.321847 
C 121.373847 296.240528 121.994765 297.880456 122.642109 297.880456 
z
" clip-path="url(#p3e7da7affd)" style="fill: #1f77b4; opacity: 0.1"/>
   </g>
   <g id="patch_9">
    <path d="M 0 -1 
z
" clip-path="url(#p3e7da7affd)" style="fill: #1f77b4; opacity: 0.1"/>
   </g>
   <g id="matplotlib.axis_1">
    <g id="text_1">
     <!-- PC1 -->
     <g transform="translate(211.7125 524.238438) scale(0.1 -0.1)">
      <defs>
       <path id="DejaVuSans-50" d="M 1259 4147 
L 1259 2394 
L 2053 2394 
Q 2494 2394 2734 2622 
Q 2975 2850 2975 3272 
Q 2975 3691 2734 3919 
Q 2494 4147 2053 4147 
L 1259 4147 
z
M 628 4666 
L 2053 4666 
Q 2838 4666 3239 4311 
Q 3641 3956 3641 3272 
Q 3641 2581 3239 2228 
Q 2838 1875 2053 1875 
L 1259 1875 
L 1259 0 
L 628 0 
L 628 4666 
z
" transform="scale(0.015625)"/>
       <path id="DejaVuSans-43" d="M 4122 4306 
L 4122 3641 
Q 3803 3938 3442 4084 
Q 3081 4231 2675 4231 
Q 1875 4231 1450 3742 
Q 1025 3253 1025 2328 
Q 1025 1406 1450 917 
Q 1875 428 2675 428 
Q 3081 428 3442 575 
Q 3803 722 4122 1019 
L 4122 359 
Q 3791 134 3420 21 
Q 3050 -91 2638 -91 
Q 1578 -91 968 557 
Q 359 1206 359 2328 
Q 359 3453 968 4101 
Q 1578 4750 2638 4750 
Q 3056 4750 3426 4639 
Q 3797 4528 4122 4306 
z
" transform="scale(0.015625)"/>
       <path id="DejaVuSans-31" d="M 794 531 
L 1825 531 
L 1825 4091 
L 703 3866 
L 703 4441 
L 1819 4666 
L 2450 4666 
L 2450 531 
L 3481 531 
L 3481 0 
L 794 0 
L 794 531 
z
" transform="scale(0.015625)"/>
      </defs>
      <use xlink:href="#DejaVuSans-50"/>
      <use xlink:href="#DejaVuSans-43" x="60.302734"/>
      <use xlink:href="#DejaVuSans-31" x="130.126953"/>
     </g>
    </g>
   </g>
   <g id="matplotlib.axis_2">
    <g id="text_2">
     <!-- PC2 -->
     <g transform="translate(47.920313 300.5675) rotate(-90) scale(0.1 -0.1)">
      <defs>
       <path id="DejaVuSans-32" d="M 1228 531 
L 3431 531 
L 3431 0 
L 469 0 
L 469 531 
Q 828 903 1448 1529 
Q 2069 2156 2228 2338 
Q 2531 2678 2651 2914 
Q 2772 3150 2772 3378 
Q 2772 3750 2511 3984 
Q 2250 4219 1831 4219 
Q 1534 4219 1204 4116 
Q 875 4013 500 3803 
L 500 4441 
Q 881 4594 1212 4672 
Q 1544 4750 1819 4750 
Q 2544 4750 2975 4387 
Q 3406 4025 3406 3419 
Q 3406 3131 3298 2873 
Q 3191 2616 2906 2266 
Q 2828 2175 2409 1742 
Q 1991 1309 1228 531 
z
" transform="scale(0.015625)"/>
      </defs>
      <use xlink:href="#DejaVuSans-50"/>
      <use xlink:href="#DejaVuSans-43" x="60.302734"/>
      <use xlink:href="#DejaVuSans-32" x="130.126953"/>
     </g>
    </g>
   </g>
   <g id="patch_10">
    <path d="M 54 512.64 
L 54 69.12 
" style="fill: none; stroke: #000000; stroke-width: 0.8; stroke-linejoin: miter; stroke-linecap: square"/>
   </g>
   <g id="patch_11">
    <path d="M 388.8 512.64 
L 388.8 69.12 
" style="fill: none; stroke: #000000; stroke-width: 0.8; stroke-linejoin: miter; stroke-linecap: square"/>
   </g>
   <g id="patch_12">
    <path d="M 54 512.64 
L 388.8 512.64 
" style="fill: none; stroke: #000000; stroke-width: 0.8; stroke-linejoin: miter; stroke-linecap: square"/>
   </g>
   <g id="patch_13">
    <path d="M 54 69.12 
L 388.8 69.12 
" style="fill: none; stroke: #000000; stroke-width: 0.8; stroke-linejoin: miter; stroke-linecap: square"/>
   </g>
   <g id="text_3">
    <!-- Nat3_1 -->
    <g style="fill: #808080" transform="translate(68.916674 415.081215) scale(0.1 -0.1)">
     <defs>
      <path id="DejaVuSans-4e" d="M 628 4666 
L 1478 4666 
L 3547 763 
L 3547 4666 
L 4159 4666 
L 4159 0 
L 3309 0 
L 1241 3903 
L 1241 0 
L 628 0 
L 628 4666 
z
" transform="scale(0.015625)"/>
      <path id="DejaVuSans-61" d="M 2194 1759 
Q 1497 1759 1228 1600 
Q 959 1441 959 1056 
Q 959 750 1161 570 
Q 1363 391 1709 391 
Q 2188 391 2477 730 
Q 2766 1069 2766 1631 
L 2766 1759 
L 2194 1759 
z
M 3341 1997 
L 3341 0 
L 2766 0 
L 2766 531 
Q 2569 213 2275 61 
Q 1981 -91 1556 -91 
Q 1019 -91 701 211 
Q 384 513 384 1019 
Q 384 1609 779 1909 
Q 1175 2209 1959 2209 
L 2766 2209 
L 2766 2266 
Q 2766 2663 2505 2880 
Q 2244 3097 1772 3097 
Q 1472 3097 1187 3025 
Q 903 2953 641 2809 
L 641 3341 
Q 956 3463 1253 3523 
Q 1550 3584 1831 3584 
Q 2591 3584 2966 3190 
Q 3341 2797 3341 1997 
z
" transform="scale(0.015625)"/>
      <path id="DejaVuSans-74" d="M 1172 4494 
L 1172 3500 
L 2356 3500 
L 2356 3053 
L 1172 3053 
L 1172 1153 
Q 1172 725 1289 603 
Q 1406 481 1766 481 
L 2356 481 
L 2356 0 
L 1766 0 
Q 1100 0 847 248 
Q 594 497 594 1153 
L 594 3053 
L 172 3053 
L 172 3500 
L 594 3500 
L 594 4494 
L 1172 4494 
z
" transform="scale(0.015625)"/>
      <path id="DejaVuSans-33" d="M 2597 2516 
Q 3050 2419 3304 2112 
Q 3559 1806 3559 1356 
Q 3559 666 3084 287 
Q 2609 -91 1734 -91 
Q 1441 -91 1130 -33 
Q 819 25 488 141 
L 488 750 
Q 750 597 1062 519 
Q 1375 441 1716 441 
Q 2309 441 2620 675 
Q 2931 909 2931 1356 
Q 2931 1769 2642 2001 
Q 2353 2234 1838 2234 
L 1294 2234 
L 1294 2753 
L 1863 2753 
Q 2328 2753 2575 2939 
Q 2822 3125 2822 3475 
Q 2822 3834 2567 4026 
Q 2313 4219 1838 4219 
Q 1578 4219 1281 4162 
Q 984 4106 628 3988 
L 628 4550 
Q 988 4650 1302 4700 
Q 1616 4750 1894 4750 
Q 2613 4750 3031 4423 
Q 3450 4097 3450 3541 
Q 3450 3153 3228 2886 
Q 3006 2619 2597 2516 
z
" transform="scale(0.015625)"/>
      <path id="DejaVuSans-5f" d="M 3263 -1063 
L 3263 -1509 
L -63 -1509 
L -63 -1063 
L 3263 -1063 
z
" transform="scale(0.015625)"/>
     </defs>
     <use xlink:href="#DejaVuSans-4e"/>
     <use xlink:href="#DejaVuSans-61" x="74.804688"/>
     <use xlink:href="#DejaVuSans-74" x="136.083984"/>
     <use xlink:href="#DejaVuSans-33" x="175.292969"/>
     <use xlink:href="#DejaVuSans-5f" x="238.916016"/>
     <use xlink:href="#DejaVuSans-31" x="288.916016"/>
    </g>
   </g>
   <g id="text_4">
    <!-- Nat3_2 -->
    <g style="fill: #808080" transform="translate(66.288602 396.890122) scale(0.1 -0.1)">
     <use xlink:href="#DejaVuSans-4e"/>
     <use xlink:href="#DejaVuSans-61" x="74.804688"/>
     <use xlink:href="#DejaVuSans-74" x="136.083984"/>
     <use xlink:href="#DejaVuSans-33" x="175.292969"/>
     <use xlink:href="#DejaVuSans-5f" x="238.916016"/>
     <use xlink:href="#DejaVuSans-32" x="288.916016"/>
    </g>
   </g>
   <g id="text_5">
    <!-- Nat3_3 -->
    <g style="fill: #808080" transform="translate(58.637256 363.584268) scale(0.1 -0.1)">
     <use xlink:href="#DejaVuSans-4e"/>
     <use xlink:href="#DejaVuSans-61" x="74.804688"/>
     <use xlink:href="#DejaVuSans-74" x="136.083984"/>
     <use xlink:href="#DejaVuSans-33" x="175.292969"/>
     <use xlink:href="#DejaVuSans-5f" x="238.916016"/>
     <use xlink:href="#DejaVuSans-33" x="288.916016"/>
    </g>
   </g>
   <g id="text_6">
    <!-- Elp3_1 -->
    <g style="fill: #808080" transform="translate(106.426688 368.279146) scale(0.1 -0.1)">
     <defs>
      <path id="DejaVuSans-45" d="M 628 4666 
L 3578 4666 
L 3578 4134 
L 1259 4134 
L 1259 2753 
L 3481 2753 
L 3481 2222 
L 1259 2222 
L 1259 531 
L 3634 531 
L 3634 0 
L 628 0 
L 628 4666 
z
" transform="scale(0.015625)"/>
      <path id="DejaVuSans-6c" d="M 603 4863 
L 1178 4863 
L 1178 0 
L 603 0 
L 603 4863 
z
" transform="scale(0.015625)"/>
      <path id="DejaVuSans-70" d="M 1159 525 
L 1159 -1331 
L 581 -1331 
L 581 3500 
L 1159 3500 
L 1159 2969 
Q 1341 3281 1617 3432 
Q 1894 3584 2278 3584 
Q 2916 3584 3314 3078 
Q 3713 2572 3713 1747 
Q 3713 922 3314 415 
Q 2916 -91 2278 -91 
Q 1894 -91 1617 61 
Q 1341 213 1159 525 
z
M 3116 1747 
Q 3116 2381 2855 2742 
Q 2594 3103 2138 3103 
Q 1681 3103 1420 2742 
Q 1159 2381 1159 1747 
Q 1159 1113 1420 752 
Q 1681 391 2138 391 
Q 2594 391 2855 752 
Q 3116 1113 3116 1747 
z
" transform="scale(0.015625)"/>
     </defs>
     <use xlink:href="#DejaVuSans-45"/>
     <use xlink:href="#DejaVuSans-6c" x="63.183594"/>
     <use xlink:href="#DejaVuSans-70" x="90.966797"/>
     <use xlink:href="#DejaVuSans-33" x="154.443359"/>
     <use xlink:href="#DejaVuSans-5f" x="218.066406"/>
     <use xlink:href="#DejaVuSans-31" x="268.066406"/>
    </g>
   </g>
   <g id="text_7">
    <!-- Elp3_2 -->
    <g style="fill: #808080" transform="translate(71.648457 380.496646) scale(0.1 -0.1)">
     <use xlink:href="#DejaVuSans-45"/>
     <use xlink:href="#DejaVuSans-6c" x="63.183594"/>
     <use xlink:href="#DejaVuSans-70" x="90.966797"/>
     <use xlink:href="#DejaVuSans-33" x="154.443359"/>
     <use xlink:href="#DejaVuSans-5f" x="218.066406"/>
     <use xlink:href="#DejaVuSans-32" x="268.066406"/>
    </g>
   </g>
   <g id="text_8">
    <!-- Elp3_3 -->
    <g style="fill: #808080" transform="translate(93.840373 319.221448) scale(0.1 -0.1)">
     <use xlink:href="#DejaVuSans-45"/>
     <use xlink:href="#DejaVuSans-6c" x="63.183594"/>
     <use xlink:href="#DejaVuSans-70" x="90.966797"/>
     <use xlink:href="#DejaVuSans-33" x="154.443359"/>
     <use xlink:href="#DejaVuSans-5f" x="218.066406"/>
     <use xlink:href="#DejaVuSans-33" x="268.066406"/>
    </g>
   </g>
   <g id="text_9">
    <!-- Hda1_1 -->
    <g style="fill: #808080" transform="translate(121.930132 275.907713) scale(0.1 -0.1)">
     <defs>
      <path id="DejaVuSans-48" d="M 628 4666 
L 1259 4666 
L 1259 2753 
L 3553 2753 
L 3553 4666 
L 4184 4666 
L 4184 0 
L 3553 0 
L 3553 2222 
L 1259 2222 
L 1259 0 
L 628 0 
L 628 4666 
z
" transform="scale(0.015625)"/>
      <path id="DejaVuSans-64" d="M 2906 2969 
L 2906 4863 
L 3481 4863 
L 3481 0 
L 2906 0 
L 2906 525 
Q 2725 213 2448 61 
Q 2172 -91 1784 -91 
Q 1150 -91 751 415 
Q 353 922 353 1747 
Q 353 2572 751 3078 
Q 1150 3584 1784 3584 
Q 2172 3584 2448 3432 
Q 2725 3281 2906 2969 
z
M 947 1747 
Q 947 1113 1208 752 
Q 1469 391 1925 391 
Q 2381 391 2643 752 
Q 2906 1113 2906 1747 
Q 2906 2381 2643 2742 
Q 2381 3103 1925 3103 
Q 1469 3103 1208 2742 
Q 947 2381 947 1747 
z
" transform="scale(0.015625)"/>
     </defs>
     <use xlink:href="#DejaVuSans-48"/>
     <use xlink:href="#DejaVuSans-64" x="75.195312"/>
     <use xlink:href="#DejaVuSans-61" x="138.671875"/>
     <use xlink:href="#DejaVuSans-31" x="199.951172"/>
     <use xlink:href="#DejaVuSans-5f" x="263.574219"/>
     <use xlink:href="#DejaVuSans-31" x="313.574219"/>
    </g>
   </g>
   <g id="text_10">
    <!-- Hda1_2 -->
    <g style="fill: #808080" transform="translate(159.774281 323.585797) scale(0.1 -0.1)">
     <use xlink:href="#DejaVuSans-48"/>
     <use xlink:href="#DejaVuSans-64" x="75.195312"/>
     <use xlink:href="#DejaVuSans-61" x="138.671875"/>
     <use xlink:href="#DejaVuSans-31" x="199.951172"/>
     <use xlink:href="#DejaVuSans-5f" x="263.574219"/>
     <use xlink:href="#DejaVuSans-32" x="313.574219"/>
    </g>
   </g>
   <g id="text_11">
    <!-- Hda1_3 -->
    <g style="fill: #808080" transform="translate(153.129534 303.387997) scale(0.1 -0.1)">
     <use xlink:href="#DejaVuSans-48"/>
     <use xlink:href="#DejaVuSans-64" x="75.195312"/>
     <use xlink:href="#DejaVuSans-61" x="138.671875"/>
     <use xlink:href="#DejaVuSans-31" x="199.951172"/>
     <use xlink:href="#DejaVuSans-5f" x="263.574219"/>
     <use xlink:href="#DejaVuSans-33" x="313.574219"/>
    </g>
   </g>
   <g id="text_12">
    <!-- Sas2_1 -->
    <g style="fill: #808080" transform="translate(290.175066 379.190122) scale(0.1 -0.1)">
     <defs>
      <path id="DejaVuSans-53" d="M 3425 4513 
L 3425 3897 
Q 3066 4069 2747 4153 
Q 2428 4238 2131 4238 
Q 1616 4238 1336 4038 
Q 1056 3838 1056 3469 
Q 1056 3159 1242 3001 
Q 1428 2844 1947 2747 
L 2328 2669 
Q 3034 2534 3370 2195 
Q 3706 1856 3706 1288 
Q 3706 609 3251 259 
Q 2797 -91 1919 -91 
Q 1588 -91 1214 -16 
Q 841 59 441 206 
L 441 856 
Q 825 641 1194 531 
Q 1563 422 1919 422 
Q 2459 422 2753 634 
Q 3047 847 3047 1241 
Q 3047 1584 2836 1778 
Q 2625 1972 2144 2069 
L 1759 2144 
Q 1053 2284 737 2584 
Q 422 2884 422 3419 
Q 422 4038 858 4394 
Q 1294 4750 2059 4750 
Q 2388 4750 2728 4690 
Q 3069 4631 3425 4513 
z
" transform="scale(0.015625)"/>
      <path id="DejaVuSans-73" d="M 2834 3397 
L 2834 2853 
Q 2591 2978 2328 3040 
Q 2066 3103 1784 3103 
Q 1356 3103 1142 2972 
Q 928 2841 928 2578 
Q 928 2378 1081 2264 
Q 1234 2150 1697 2047 
L 1894 2003 
Q 2506 1872 2764 1633 
Q 3022 1394 3022 966 
Q 3022 478 2636 193 
Q 2250 -91 1575 -91 
Q 1294 -91 989 -36 
Q 684 19 347 128 
L 347 722 
Q 666 556 975 473 
Q 1284 391 1588 391 
Q 1994 391 2212 530 
Q 2431 669 2431 922 
Q 2431 1156 2273 1281 
Q 2116 1406 1581 1522 
L 1381 1569 
Q 847 1681 609 1914 
Q 372 2147 372 2553 
Q 372 3047 722 3315 
Q 1072 3584 1716 3584 
Q 2034 3584 2315 3537 
Q 2597 3491 2834 3397 
z
" transform="scale(0.015625)"/>
     </defs>
     <use xlink:href="#DejaVuSans-53"/>
     <use xlink:href="#DejaVuSans-61" x="63.476562"/>
     <use xlink:href="#DejaVuSans-73" x="124.755859"/>
     <use xlink:href="#DejaVuSans-32" x="176.855469"/>
     <use xlink:href="#DejaVuSans-5f" x="240.478516"/>
     <use xlink:href="#DejaVuSans-31" x="290.478516"/>
    </g>
   </g>
   <g id="text_13">
    <!-- Sas2_2 -->
    <g style="fill: #808080" transform="translate(336.362652 377.992671) scale(0.1 -0.1)">
     <use xlink:href="#DejaVuSans-53"/>
     <use xlink:href="#DejaVuSans-61" x="63.476562"/>
     <use xlink:href="#DejaVuSans-73" x="124.755859"/>
     <use xlink:href="#DejaVuSans-32" x="176.855469"/>
     <use xlink:href="#DejaVuSans-5f" x="240.478516"/>
     <use xlink:href="#DejaVuSans-32" x="290.478516"/>
    </g>
   </g>
   <g id="text_14">
    <!-- Sas2_3 -->
    <g style="fill: #808080" transform="translate(337.288929 398.80426) scale(0.1 -0.1)">
     <use xlink:href="#DejaVuSans-53"/>
     <use xlink:href="#DejaVuSans-61" x="63.476562"/>
     <use xlink:href="#DejaVuSans-73" x="124.755859"/>
     <use xlink:href="#DejaVuSans-32" x="176.855469"/>
     <use xlink:href="#DejaVuSans-5f" x="240.478516"/>
     <use xlink:href="#DejaVuSans-33" x="290.478516"/>
    </g>
   </g>
   <g id="text_15">
    <!-- Sas3_1 -->
    <g style="fill: #808080" transform="translate(95.68358 259.558892) scale(0.1 -0.1)">
     <use xlink:href="#DejaVuSans-53"/>
     <use xlink:href="#DejaVuSans-61" x="63.476562"/>
     <use xlink:href="#DejaVuSans-73" x="124.755859"/>
     <use xlink:href="#DejaVuSans-33" x="176.855469"/>
     <use xlink:href="#DejaVuSans-5f" x="240.478516"/>
     <use xlink:href="#DejaVuSans-31" x="290.478516"/>
    </g>
   </g>
   <g id="text_16">
    <!-- Sas3_2 -->
    <g style="fill: #808080" transform="translate(88.008347 293.779006) scale(0.1 -0.1)">
     <use xlink:href="#DejaVuSans-53"/>
     <use xlink:href="#DejaVuSans-61" x="63.476562"/>
     <use xlink:href="#DejaVuSans-73" x="124.755859"/>
     <use xlink:href="#DejaVuSans-33" x="176.855469"/>
     <use xlink:href="#DejaVuSans-5f" x="240.478516"/>
     <use xlink:href="#DejaVuSans-32" x="290.478516"/>
    </g>
   </g>
   <g id="text_17">
    <!-- Sas3_3 -->
    <g style="fill: #808080" transform="translate(55.238439 245.861811) scale(0.1 -0.1)">
     <use xlink:href="#DejaVuSans-53"/>
     <use xlink:href="#DejaVuSans-61" x="63.476562"/>
     <use xlink:href="#DejaVuSans-73" x="124.755859"/>
     <use xlink:href="#DejaVuSans-33" x="176.855469"/>
     <use xlink:href="#DejaVuSans-5f" x="240.478516"/>
     <use xlink:href="#DejaVuSans-33" x="290.478516"/>
    </g>
   </g>
   <g id="text_18">
    <!-- Hst2_1 -->
    <g style="fill: #808080" transform="translate(190.082224 200.446349) scale(0.1 -0.1)">
     <use xlink:href="#DejaVuSans-48"/>
     <use xlink:href="#DejaVuSans-73" x="75.195312"/>
     <use xlink:href="#DejaVuSans-74" x="127.294922"/>
     <use xlink:href="#DejaVuSans-32" x="166.503906"/>
     <use xlink:href="#DejaVuSans-5f" x="230.126953"/>
     <use xlink:href="#DejaVuSans-31" x="280.126953"/>
    </g>
   </g>
   <g id="text_19">
    <!-- Hst2_2 -->
    <g style="fill: #808080" transform="translate(106.614185 244.997781) scale(0.1 -0.1)">
     <use xlink:href="#DejaVuSans-48"/>
     <use xlink:href="#DejaVuSans-73" x="75.195312"/>
     <use xlink:href="#DejaVuSans-74" x="127.294922"/>
     <use xlink:href="#DejaVuSans-32" x="166.503906"/>
     <use xlink:href="#DejaVuSans-5f" x="230.126953"/>
     <use xlink:href="#DejaVuSans-32" x="280.126953"/>
    </g>
   </g>
   <g id="text_20">
    <!-- Hst2_3 -->
    <g style="fill: #808080" transform="translate(71.600769 433.799263) scale(0.1 -0.1)">
     <use xlink:href="#DejaVuSans-48"/>
     <use xlink:href="#DejaVuSans-73" x="75.195312"/>
     <use xlink:href="#DejaVuSans-74" x="127.294922"/>
     <use xlink:href="#DejaVuSans-32" x="166.503906"/>
     <use xlink:href="#DejaVuSans-5f" x="230.126953"/>
     <use xlink:href="#DejaVuSans-33" x="280.126953"/>
    </g>
   </g>
   <g id="text_21">
    <!-- Sir2_1 -->
    <g style="fill: #808080" transform="translate(183.555753 489.104062) scale(0.1 -0.1)">
     <defs>
      <path id="DejaVuSans-69" d="M 603 3500 
L 1178 3500 
L 1178 0 
L 603 0 
L 603 3500 
z
M 603 4863 
L 1178 4863 
L 1178 4134 
L 603 4134 
L 603 4863 
z
" transform="scale(0.015625)"/>
      <path id="DejaVuSans-72" d="M 2631 2963 
Q 2534 3019 2420 3045 
Q 2306 3072 2169 3072 
Q 1681 3072 1420 2755 
Q 1159 2438 1159 1844 
L 1159 0 
L 581 0 
L 581 3500 
L 1159 3500 
L 1159 2956 
Q 1341 3275 1631 3429 
Q 1922 3584 2338 3584 
Q 2397 3584 2469 3576 
Q 2541 3569 2628 3553 
L 2631 2963 
z
" transform="scale(0.015625)"/>
     </defs>
     <use xlink:href="#DejaVuSans-53"/>
     <use xlink:href="#DejaVuSans-69" x="63.476562"/>
     <use xlink:href="#DejaVuSans-72" x="91.259766"/>
     <use xlink:href="#DejaVuSans-32" x="132.373047"/>
     <use xlink:href="#DejaVuSans-5f" x="195.996094"/>
     <use xlink:href="#DejaVuSans-31" x="245.996094"/>
    </g>
   </g>
   <g id="text_22">
    <!-- Sir2_2 -->
    <g style="fill: #808080" transform="translate(105.942638 403.050403) scale(0.1 -0.1)">
     <use xlink:href="#DejaVuSans-53"/>
     <use xlink:href="#DejaVuSans-69" x="63.476562"/>
     <use xlink:href="#DejaVuSans-72" x="91.259766"/>
     <use xlink:href="#DejaVuSans-32" x="132.373047"/>
     <use xlink:href="#DejaVuSans-5f" x="195.996094"/>
     <use xlink:href="#DejaVuSans-32" x="245.996094"/>
    </g>
   </g>
   <g id="text_23">
    <!-- Sir2_3 -->
    <g style="fill: #808080" transform="translate(136.132845 464.6764) scale(0.1 -0.1)">
     <use xlink:href="#DejaVuSans-53"/>
     <use xlink:href="#DejaVuSans-69" x="63.476562"/>
     <use xlink:href="#DejaVuSans-72" x="91.259766"/>
     <use xlink:href="#DejaVuSans-32" x="132.373047"/>
     <use xlink:href="#DejaVuSans-5f" x="195.996094"/>
     <use xlink:href="#DejaVuSans-33" x="245.996094"/>
    </g>
   </g>
   <g id="text_24">
    <!-- WT_1 -->
    <g style="fill: #808080" transform="translate(173.644979 162.393534) scale(0.1 -0.1)">
     <defs>
      <path id="DejaVuSans-57" d="M 213 4666 
L 850 4666 
L 1831 722 
L 2809 4666 
L 3519 4666 
L 4500 722 
L 5478 4666 
L 6119 4666 
L 4947 0 
L 4153 0 
L 3169 4050 
L 2175 0 
L 1381 0 
L 213 4666 
z
" transform="scale(0.015625)"/>
      <path id="DejaVuSans-54" d="M -19 4666 
L 3928 4666 
L 3928 4134 
L 2272 4134 
L 2272 0 
L 1638 0 
L 1638 4134 
L -19 4134 
L -19 4666 
z
" transform="scale(0.015625)"/>
     </defs>
     <use xlink:href="#DejaVuSans-57"/>
     <use xlink:href="#DejaVuSans-54" x="98.876953"/>
     <use xlink:href="#DejaVuSans-5f" x="159.960938"/>
     <use xlink:href="#DejaVuSans-31" x="209.960938"/>
    </g>
   </g>
   <g id="text_25">
    <!-- WT_2 -->
    <g style="fill: #808080" transform="translate(176.630844 100.211247) scale(0.1 -0.1)">
     <use xlink:href="#DejaVuSans-57"/>
     <use xlink:href="#DejaVuSans-54" x="98.876953"/>
     <use xlink:href="#DejaVuSans-5f" x="159.960938"/>
     <use xlink:href="#DejaVuSans-32" x="209.960938"/>
    </g>
   </g>
   <g id="text_26">
    <!-- WT_3 -->
    <g style="fill: #808080" transform="translate(170.585142 85.914188) scale(0.1 -0.1)">
     <use xlink:href="#DejaVuSans-57"/>
     <use xlink:href="#DejaVuSans-54" x="98.876953"/>
     <use xlink:href="#DejaVuSans-5f" x="159.960938"/>
     <use xlink:href="#DejaVuSans-33" x="209.960938"/>
    </g>
   </g>
  </g>
 </g>
 <defs>
  <clipPath id="p3e7da7affd">
   <rect x="54" y="69.12" width="334.8" height="443.52"/>
  </clipPath>
 </defs>
</svg>
